<svg width="28" height="28" viewBox="0 0 28 28" fill="none" xmlns="http://www.w3.org/2000/svg">
  <path d="M13.25 8.25L9.5 11H7.25C6.55964 11 6 11.5596 6 12.25V15.75C6 16.4404 6.55964 17 7.25 17H9.5L13.25 19.75C14.0017 20.275 15 19.7385 15 18.8493V9.15071C15 8.26153 14.0017 7.725 13.25 8.25Z" fill="white"/>
  <path d="M17.25 10.75C17.25 10.3358 17.5858 10 18 10C19.7949 10 21.25 11.4551 21.25 13.25C21.25 15.0449 19.7949 16.5 18 16.5C17.5858 16.5 17.25 16.1642 17.25 15.75C17.25 15.3358 17.5858 15 18 15C19.2426 15 20.25 13.9926 20.25 12.75C20.25 11.5074 19.2426 10.5 18 10.5C17.5858 10.5 17.25 10.1642 17.25 9.75V10.75Z" fill="white"/>
</svg>
