<svg width="28" height="28" viewBox="0 0 28 28" fill="none" xmlns="http://www.w3.org/2000/svg">
  <path d="M13.25 8.25L9.5 11H7.25C6.55964 11 6 11.5596 6 12.25V15.75C6 16.4404 6.55964 17 7.25 17H9.5L13.25 19.75C14.0017 20.275 15 19.7385 15 18.8493V9.15071C15 8.26153 14.0017 7.725 13.25 8.25Z" fill="white"/>
  <path d="M17.4697 10.4697C17.7626 10.1768 18.2374 10.1768 18.5303 10.4697L20 11.9393L21.4697 10.4697C21.7626 10.1768 22.2374 10.1768 22.5303 10.4697C22.8232 10.7626 22.8232 11.2374 22.5303 11.5303L21.0607 13L22.5303 14.4697C22.8232 14.7626 22.8232 15.2374 22.5303 15.5303C22.2374 15.8232 21.7626 15.8232 21.4697 15.5303L20 14.0607L18.5303 15.5303C18.2374 15.8232 17.7626 15.8232 17.4697 15.5303C17.1768 15.2374 17.1768 14.7626 17.4697 14.4697L18.9393 13L17.4697 11.5303C17.1768 11.2374 17.1768 10.7626 17.4697 10.4697Z" fill="white"/>
</svg>
