<svg width="28" height="28" viewBox="0 0 28 28" fill="none" xmlns="http://www.w3.org/2000/svg">
  <path d="M10.5 8.5H12.75C13.1642 8.5 13.5 8.83579 13.5 9.25V18.75C13.5 19.1642 13.1642 19.5 12.75 19.5H10.5C10.0858 19.5 9.75 19.1642 9.75 18.75V9.25C9.75 8.83579 10.0858 8.5 10.5 8.5Z" fill="white"/>
  <path d="M15.25 8.5H17.5C17.9142 8.5 18.25 8.83579 18.25 9.25V18.75C18.25 19.1642 17.9142 19.5 17.5 19.5H15.25C14.8358 19.5 14.5 19.1642 14.5 18.75V9.25C14.5 8.83579 14.8358 8.5 15.25 8.5Z" fill="white"/>
</svg>
