<svg width="22" height="22" viewBox="0 0 22 22" fill="none" xmlns="http://www.w3.org/2000/svg">
<path fill-rule="evenodd" clip-rule="evenodd" d="M21.3113 0.68875C20.9272 0.304924 20.3657 0.158628 19.8431 0.30625H19.8291L1.83469 5.76625C1.23493 5.93873 0.804617 6.46454 0.754171 7.08657C0.703725 7.7086 1.04368 8.29688 1.60781 8.56375L9.63469 12.3653L13.4362 20.3922C13.6813 20.917 14.2089 21.2518 14.7881 21.25C14.8313 21.25 14.8744 21.2481 14.9175 21.2444C15.5375 21.1942 16.0609 20.7639 16.23 20.1653L21.6863 2.17094C21.6863 2.16625 21.6863 2.16156 21.6863 2.15688C21.8358 1.63569 21.6924 1.07438 21.3113 0.68875ZM14.7966 19.7359L14.7919 19.7491L11.1019 11.9594L15.5306 7.52969C15.8108 7.23481 15.8048 6.77038 15.5172 6.48278C15.2296 6.19517 14.7652 6.18923 14.4703 6.46937L10.0406 10.8981L2.25 7.20813H2.26312L20.25 1.75L14.7966 19.7359Z" fill="black"/>
</svg>
