<svg width="21" height="20" viewBox="0 0 21 20" fill="none" xmlns="http://www.w3.org/2000/svg">
<path fill-rule="evenodd" clip-rule="evenodd" d="M11.625 10C11.625 10.6213 11.1213 11.125 10.5 11.125C9.87868 11.125 9.375 10.6213 9.375 10C9.375 9.37868 9.87868 8.875 10.5 8.875C11.1213 8.875 11.625 9.37868 11.625 10ZM6.375 8.875C5.75368 8.875 5.25 9.37868 5.25 10C5.25 10.6213 5.75368 11.125 6.375 11.125C6.99632 11.125 7.5 10.6213 7.5 10C7.5 9.37868 6.99632 8.875 6.375 8.875ZM14.625 8.875C14.0037 8.875 13.5 9.37868 13.5 10C13.5 10.6213 14.0037 11.125 14.625 11.125C15.2463 11.125 15.75 10.6213 15.75 10C15.75 9.37868 15.2463 8.875 14.625 8.875ZM20.25 10C20.2507 13.424 18.4553 16.5975 15.52 18.3605C12.5847 20.1234 8.93978 20.2174 5.9175 18.6081L2.72531 19.6722C2.18626 19.852 1.59191 19.7117 1.19011 19.3099C0.788308 18.9081 0.648045 18.3137 0.827812 17.7747L1.89188 14.5825C-0.0132599 11.0006 0.498742 6.61332 3.17747 3.56638C5.85619 0.519438 10.1418 -0.550316 13.9382 0.880322C17.7346 2.31096 20.2483 5.94298 20.25 10ZM18.75 10C18.749 6.53154 16.5787 3.43408 13.319 2.24891C10.0593 1.06374 6.40643 2.04399 4.17801 4.70188C1.94959 7.35977 1.62157 11.1276 3.35719 14.1306C3.4647 14.3167 3.48723 14.5399 3.41906 14.7437L2.25 18.25L5.75625 17.0809C5.83262 17.0549 5.91275 17.0416 5.99344 17.0416C6.12516 17.0418 6.2545 17.0767 6.36844 17.1428C8.92111 18.6197 12.068 18.6217 14.6225 17.148C17.1771 15.6743 18.7507 12.9491 18.75 10Z" fill="white"/>
</svg>
