<svg width="19" height="18" viewBox="0 0 19 18" fill="none" xmlns="http://www.w3.org/2000/svg">
<path fill-rule="evenodd" clip-rule="evenodd" d="M16.875 0H1.875C1.04657 0 0.375 0.671573 0.375 1.5V16.5C0.375 17.3284 1.04657 18 1.875 18H16.875C17.7034 18 18.375 17.3284 18.375 16.5V1.5C18.375 0.671573 17.7034 0 16.875 0ZM16.875 16.5H1.875V1.5H16.875V16.5ZM13.875 9C13.875 9.41421 13.5392 9.75 13.125 9.75H10.125V12.75C10.125 13.1642 9.78921 13.5 9.375 13.5C8.96079 13.5 8.625 13.1642 8.625 12.75V9.75H5.625C5.21079 9.75 4.875 9.41421 4.875 9C4.875 8.58579 5.21079 8.25 5.625 8.25H8.625V5.25C8.625 4.83579 8.96079 4.5 9.375 4.5C9.78921 4.5 10.125 4.83579 10.125 5.25V8.25H13.125C13.5392 8.25 13.875 8.58579 13.875 9Z" fill="black"/>
</svg>
