<svg width="22" height="22" viewBox="0 0 22 22" fill="none" xmlns="http://www.w3.org/2000/svg">
<path fill-rule="evenodd" clip-rule="evenodd" d="M20.9 10.1541V19.3999C20.9 20.2836 20.1538 21 19.2333 21H15.0667C14.1461 21 13.4 20.2836 13.4 19.3999V15.3995C13.4 14.9577 13.0269 14.5995 12.5667 14.5995H9.23334C8.7731 14.5995 8.40001 14.9577 8.40001 15.3995V19.3999C8.40001 20.2836 7.65381 21 6.73335 21H2.56669C1.64622 21 0.900024 20.2836 0.900024 19.3999V10.1541C0.899953 9.70634 1.09528 9.27905 1.43856 8.97598L9.77187 1.42734L9.78334 1.41633C10.4191 0.861222 11.3902 0.861222 12.026 1.41633C12.0296 1.42025 12.0335 1.42392 12.0375 1.42734L20.3708 8.97598C20.7107 9.28062 20.9024 9.7077 20.9 10.1541Z" stroke="black" stroke-width="1.57895" stroke-linecap="round" stroke-linejoin="round"/>
</svg>
