<svg width="25" height="24" viewBox="0 0 25 24" fill="none" xmlns="http://www.w3.org/2000/svg">
<path d="M1.46916 0H23.5308C24.0673 0 24.5 0.433629 24.5 0.966875V23.0331C24.5 23.5683 24.0653 24 23.5308 24C23.2626 24 23.0198 23.8906 22.8436 23.7148L12.4745 14.8039L2.10157 23.7637C1.69824 24.1113 1.08737 24.0684 0.736907 23.666C0.578316 23.4843 0.501958 23.2578 0.501958 23.0351H0.5V0.966875C0.5 0.433629 0.934655 0 1.46916 0ZM22.5617 1.9357H2.44028V20.9216L11.8324 12.8077C12.1887 12.4913 12.7349 12.4795 13.1069 12.7999L22.5636 20.9275V1.9357H22.5617Z" fill="white"/>
</svg>
