<svg width="22" height="22" viewBox="0 0 22 22" fill="none" xmlns="http://www.w3.org/2000/svg">
<path fill-rule="evenodd" clip-rule="evenodd" d="M20.8113 0.68875C20.4272 0.304924 19.8657 0.158628 19.3431 0.30625H19.3291L1.33469 5.76625C0.734926 5.93873 0.304617 6.46454 0.254171 7.08657C0.203725 7.7086 0.543682 8.29688 1.10781 8.56375L9.13469 12.3653L12.9362 20.3922C13.1813 20.917 13.7089 21.2518 14.2881 21.25C14.3313 21.25 14.3744 21.2481 14.4175 21.2444C15.0375 21.1942 15.5609 20.7639 15.73 20.1653L21.1863 2.17094C21.1863 2.16625 21.1863 2.16156 21.1863 2.15688C21.3358 1.63569 21.1924 1.07438 20.8113 0.68875ZM14.2966 19.7359L14.2919 19.7491L10.6019 11.9594L15.0306 7.52969C15.3108 7.23481 15.3048 6.77038 15.0172 6.48278C14.7296 6.19517 14.2652 6.18923 13.9703 6.46937L9.54062 10.8981L1.75 7.20813H1.76312L19.75 1.75L14.2966 19.7359Z" fill="white"/>
</svg>
