<svg width="20" height="20" viewBox="0 0 20 20" fill="none" xmlns="http://www.w3.org/2000/svg">
<path fill-rule="evenodd" clip-rule="evenodd" d="M19.6556 18.4694L14.9616 13.7762C17.7879 10.383 17.4454 5.36693 14.1841 2.38935C10.9228 -0.588237 5.89634 -0.474001 2.77367 2.64867C-0.349001 5.77134 -0.463237 10.7978 2.51435 14.0591C5.49193 17.3204 10.508 17.6629 13.9012 14.8366L18.5944 19.5306C18.8874 19.8237 19.3626 19.8237 19.6556 19.5306C19.9487 19.2376 19.9487 18.7624 19.6556 18.4694ZM1.875 8.5C1.875 4.77208 4.89708 1.75 8.625 1.75C12.3529 1.75 15.375 4.77208 15.375 8.5C15.375 12.2279 12.3529 15.25 8.625 15.25C4.89879 15.2459 1.87913 12.2262 1.875 8.5Z" fill="black"/>
</svg>
