<svg width="351" height="14" viewBox="0 0 351 14" fill="none" xmlns="http://www.w3.org/2000/svg">
<path d="M9.42614 4H8.19318C8.12027 3.64536 7.99266 3.33381 7.81037 3.06534C7.63139 2.79688 7.41264 2.5715 7.15412 2.3892C6.89891 2.2036 6.61553 2.06439 6.30398 1.97159C5.99242 1.87879 5.66761 1.83239 5.32955 1.83239C4.71307 1.83239 4.15459 1.98816 3.65412 2.29972C3.15696 2.61127 2.76089 3.07031 2.46591 3.67685C2.17424 4.28338 2.02841 5.02746 2.02841 5.90909C2.02841 6.79072 2.17424 7.5348 2.46591 8.14134C2.76089 8.74787 3.15696 9.20691 3.65412 9.51847C4.15459 9.83002 4.71307 9.9858 5.32955 9.9858C5.66761 9.9858 5.99242 9.93939 6.30398 9.84659C6.61553 9.75379 6.89891 9.61624 7.15412 9.43395C7.41264 9.24834 7.63139 9.02131 7.81037 8.75284C7.99266 8.48106 8.12027 8.16951 8.19318 7.81818H9.42614C9.33333 8.33854 9.1643 8.80421 8.91903 9.2152C8.67377 9.62618 8.36885 9.97585 8.00426 10.2642C7.63968 10.5492 7.23035 10.7663 6.77628 10.9155C6.32552 11.0646 5.84328 11.1392 5.32955 11.1392C4.46117 11.1392 3.68892 10.9271 3.01278 10.5028C2.33665 10.0786 1.80469 9.47538 1.4169 8.69318C1.02912 7.91098 0.835227 6.98295 0.835227 5.90909C0.835227 4.83523 1.02912 3.9072 1.4169 3.125C1.80469 2.3428 2.33665 1.73958 3.01278 1.31534C3.68892 0.891098 4.46117 0.678977 5.32955 0.678977C5.84328 0.678977 6.32552 0.753551 6.77628 0.902699C7.23035 1.05185 7.63968 1.2706 8.00426 1.55895C8.36885 1.84399 8.67377 2.192 8.91903 2.60298C9.1643 3.01065 9.33333 3.47633 9.42614 4ZM14.3617 11.1591C13.6723 11.1591 13.0674 10.995 12.5471 10.6669C12.03 10.3388 11.6257 9.87973 11.334 9.28977C11.0456 8.69981 10.9015 8.01042 10.9015 7.22159C10.9015 6.42614 11.0456 5.73177 11.334 5.13849C11.6257 4.54522 12.03 4.08452 12.5471 3.75639C13.0674 3.42827 13.6723 3.2642 14.3617 3.2642C15.0511 3.2642 15.6543 3.42827 16.1713 3.75639C16.6917 4.08452 17.0961 4.54522 17.3844 5.13849C17.6761 5.73177 17.8219 6.42614 17.8219 7.22159C17.8219 8.01042 17.6761 8.69981 17.3844 9.28977C17.0961 9.87973 16.6917 10.3388 16.1713 10.6669C15.6543 10.995 15.0511 11.1591 14.3617 11.1591ZM14.3617 10.1051C14.8854 10.1051 15.3162 9.97088 15.6543 9.70241C15.9924 9.43395 16.2426 9.08097 16.405 8.64347C16.5674 8.20597 16.6486 7.73201 16.6486 7.22159C16.6486 6.71117 16.5674 6.23556 16.405 5.79474C16.2426 5.35393 15.9924 4.99763 15.6543 4.72585C15.3162 4.45407 14.8854 4.31818 14.3617 4.31818C13.838 4.31818 13.4071 4.45407 13.0691 4.72585C12.731 4.99763 12.4808 5.35393 12.3184 5.79474C12.156 6.23556 12.0748 6.71117 12.0748 7.22159C12.0748 7.73201 12.156 8.20597 12.3184 8.64347C12.4808 9.08097 12.731 9.43395 13.0691 9.70241C13.4071 9.97088 13.838 10.1051 14.3617 10.1051ZM20.7862 6.40625V11H19.6129V3.36364H20.7464V4.55682H20.8459C21.0249 4.16903 21.2966 3.85748 21.6612 3.62216C22.0258 3.38352 22.4964 3.2642 23.0732 3.2642C23.5902 3.2642 24.0426 3.37027 24.4304 3.58239C24.8182 3.79119 25.1198 4.10938 25.3352 4.53693C25.5507 4.96117 25.6584 5.49811 25.6584 6.14773V11H24.4851V6.22727C24.4851 5.62737 24.3293 5.16004 24.0178 4.82528C23.7062 4.48722 23.2786 4.31818 22.7351 4.31818C22.3606 4.31818 22.0258 4.39938 21.7308 4.56179C21.4392 4.72419 21.2088 4.96117 21.0398 5.27273C20.8707 5.58428 20.7862 5.96212 20.7862 6.40625ZM31.0041 11.1591C30.2683 11.1591 29.6336 10.9967 29.1 10.6719C28.5697 10.3438 28.1603 9.88636 27.872 9.29972C27.5869 8.70975 27.4444 8.02367 27.4444 7.24148C27.4444 6.45928 27.5869 5.76989 27.872 5.1733C28.1603 4.57339 28.5614 4.10606 29.0751 3.77131C29.5922 3.43324 30.1954 3.2642 30.8848 3.2642C31.2825 3.2642 31.6752 3.33049 32.063 3.46307C32.4508 3.59564 32.8038 3.81108 33.122 4.10938C33.4402 4.40436 33.6937 4.79545 33.8826 5.28267C34.0716 5.76989 34.166 6.36979 34.166 7.08239V7.57955H28.2797V6.56534H32.9728C32.9728 6.13447 32.8867 5.75 32.7143 5.41193C32.5453 5.07386 32.3033 4.80705 31.9885 4.61151C31.6769 4.41596 31.309 4.31818 30.8848 4.31818C30.4174 4.31818 30.0131 4.43419 29.6717 4.66619C29.3336 4.89489 29.0734 5.19318 28.8912 5.56108C28.7089 5.92898 28.6177 6.32339 28.6177 6.74432V7.42045C28.6177 7.99716 28.7172 8.48603 28.916 8.88707C29.1182 9.2848 29.3983 9.58807 29.7562 9.79688C30.1142 10.0024 30.5301 10.1051 31.0041 10.1051C31.3123 10.1051 31.5907 10.062 31.8393 9.97585C32.0912 9.88636 32.3083 9.75379 32.4906 9.57812C32.6729 9.39915 32.8137 9.17708 32.9132 8.91193L34.0467 9.23011C33.9274 9.61458 33.7269 9.95265 33.4451 10.2443C33.1634 10.5327 32.8154 10.758 32.4011 10.9205C31.9868 11.0795 31.5211 11.1591 31.0041 11.1591ZM39.0531 11.1591C38.3372 11.1591 37.7207 10.9901 37.2037 10.652C36.6866 10.3139 36.2889 9.84825 36.0105 9.25497C35.7321 8.66169 35.5929 7.9839 35.5929 7.22159C35.5929 6.44602 35.7354 5.7616 36.0204 5.16832C36.3088 4.57173 36.7098 4.10606 37.2235 3.77131C37.7406 3.43324 38.3438 3.2642 39.0332 3.2642C39.5701 3.2642 40.054 3.36364 40.4849 3.5625C40.9158 3.76136 41.2688 4.03977 41.5439 4.39773C41.819 4.75568 41.9896 5.1733 42.0559 5.65057H40.8826C40.7931 5.30256 40.5943 4.99432 40.286 4.72585C39.9811 4.45407 39.5701 4.31818 39.0531 4.31818C38.5957 4.31818 38.1947 4.4375 37.85 4.67614C37.5086 4.91146 37.2418 5.24455 37.0495 5.67543C36.8606 6.10298 36.7662 6.60511 36.7662 7.18182C36.7662 7.77178 36.859 8.28551 37.0446 8.72301C37.2335 9.16051 37.4986 9.50024 37.84 9.74219C38.1847 9.98414 38.5891 10.1051 39.0531 10.1051C39.358 10.1051 39.6348 10.0521 39.8833 9.94602C40.1319 9.83996 40.3424 9.6875 40.5147 9.48864C40.6871 9.28977 40.8097 9.05114 40.8826 8.77273H42.0559C41.9896 9.22348 41.8256 9.6295 41.5637 9.99077C41.3052 10.3487 40.9622 10.6338 40.5346 10.8459C40.1104 11.0547 39.6165 11.1591 39.0531 11.1591ZM47.0922 3.36364V4.35795H43.1348V3.36364H47.0922ZM44.2882 1.53409H45.4615V8.8125C45.4615 9.14394 45.5095 9.39252 45.6056 9.55824C45.7051 9.72064 45.831 9.83002 45.9835 9.88636C46.1393 9.93939 46.3033 9.96591 46.4757 9.96591C46.6049 9.96591 46.711 9.95928 46.7939 9.94602C46.8767 9.92945 46.943 9.91619 46.9927 9.90625L47.2314 10.9602C47.1518 10.9901 47.0408 11.0199 46.8983 11.0497C46.7557 11.0829 46.5751 11.0994 46.3564 11.0994C46.0249 11.0994 45.7001 11.0282 45.3819 10.8857C45.0671 10.7431 44.8052 10.526 44.5964 10.2344C44.3909 9.94271 44.2882 9.57481 44.2882 9.13068V1.53409ZM51.1042 11.179C50.6203 11.179 50.1812 11.0878 49.7868 10.9055C49.3923 10.7199 49.0791 10.4531 48.8471 10.1051C48.6151 9.75379 48.4991 9.32955 48.4991 8.83239C48.4991 8.39489 48.5853 8.04025 48.7576 7.76847C48.93 7.49337 49.1603 7.27794 49.4487 7.12216C49.737 6.96638 50.0552 6.85038 50.4032 6.77415C50.7546 6.6946 51.1075 6.63163 51.4622 6.58523C51.9262 6.52557 52.3024 6.48082 52.5907 6.45099C52.8824 6.41785 53.0945 6.36316 53.2271 6.28693C53.363 6.2107 53.4309 6.07812 53.4309 5.8892V5.84943C53.4309 5.3589 53.2967 4.97775 53.0282 4.70597C52.7631 4.43419 52.3604 4.2983 51.8201 4.2983C51.26 4.2983 50.8208 4.42093 50.5027 4.66619C50.1845 4.91146 49.9608 5.1733 49.8315 5.4517L48.7179 5.05398C48.9167 4.58996 49.1819 4.22869 49.5133 3.97017C49.8481 3.70833 50.2127 3.52604 50.6071 3.4233C51.0048 3.31723 51.3959 3.2642 51.7804 3.2642C52.0256 3.2642 52.3074 3.29403 52.6255 3.35369C52.947 3.41004 53.2569 3.5277 53.5552 3.70668C53.8568 3.88565 54.1071 4.15578 54.3059 4.51705C54.5048 4.87831 54.6042 5.36222 54.6042 5.96875V11H53.4309V9.96591H53.3713C53.2917 10.1316 53.1592 10.3089 52.9735 10.4979C52.7879 10.6868 52.541 10.8475 52.2328 10.9801C51.9245 11.1127 51.5484 11.179 51.1042 11.179ZM51.2832 10.125C51.7472 10.125 52.1383 10.0339 52.4565 9.85156C52.778 9.66927 53.0199 9.43395 53.1824 9.1456C53.3481 8.85724 53.4309 8.55398 53.4309 8.2358V7.16193C53.3812 7.22159 53.2718 7.27628 53.1028 7.32599C52.9371 7.3724 52.7449 7.41383 52.5261 7.45028C52.3107 7.48343 52.1002 7.51326 51.8947 7.53977C51.6925 7.56297 51.5285 7.58286 51.4025 7.59943C51.0976 7.6392 50.8126 7.70384 50.5474 7.79332C50.2856 7.8795 50.0734 8.01042 49.911 8.18608C49.752 8.35843 49.6724 8.59375 49.6724 8.89205C49.6724 9.29972 49.8232 9.60795 50.1248 9.81676C50.4297 10.0223 50.8159 10.125 51.2832 10.125ZM56.7457 11V3.36364H57.8793V4.51705H57.9588C58.098 4.1392 58.3499 3.83262 58.7145 3.5973C59.0791 3.36198 59.4901 3.24432 59.9474 3.24432C60.0336 3.24432 60.1413 3.24597 60.2706 3.24929C60.3999 3.2526 60.4976 3.25758 60.5639 3.2642V4.45739C60.5241 4.44744 60.433 4.43253 60.2905 4.41264C60.1513 4.38944 60.0038 4.37784 59.848 4.37784C59.4768 4.37784 59.1454 4.45573 58.8537 4.61151C58.5653 4.76397 58.3366 4.97609 58.1676 5.24787C58.0019 5.51634 57.919 5.82292 57.919 6.16761V11H56.7457ZM65.8922 3.36364H67.0655V11.5568C67.0655 12.0275 66.9843 12.4351 66.8219 12.7798C66.6628 13.1245 66.4209 13.3913 66.0961 13.5803C65.7746 13.7692 65.3685 13.8636 64.878 13.8636C64.8382 13.8636 64.7985 13.8636 64.7587 13.8636C64.7189 13.8636 64.6792 13.8636 64.6394 13.8636V12.7699C64.6792 12.7699 64.7156 12.7699 64.7488 12.7699C64.7819 12.7699 64.8184 12.7699 64.8581 12.7699C65.2161 12.7699 65.4779 12.6638 65.6436 12.4517C65.8094 12.2429 65.8922 11.9446 65.8922 11.5568V3.36364ZM66.4689 2.09091C66.2402 2.09091 66.043 2.01302 65.8773 1.85724C65.7149 1.70147 65.6337 1.5142 65.6337 1.29545C65.6337 1.0767 65.7149 0.889441 65.8773 0.733664C66.043 0.577888 66.2402 0.5 66.4689 0.5C66.6976 0.5 66.8932 0.577888 67.0556 0.733664C67.2213 0.889441 67.3042 1.0767 67.3042 1.29545C67.3042 1.5142 67.2213 1.70147 67.0556 1.85724C66.8932 2.01302 66.6976 2.09091 66.4689 2.09091ZM72.3168 11.1591C71.6274 11.1591 71.0225 10.995 70.5021 10.6669C69.9851 10.3388 69.5807 9.87973 69.2891 9.28977C69.0007 8.69981 68.8565 8.01042 68.8565 7.22159C68.8565 6.42614 69.0007 5.73177 69.2891 5.13849C69.5807 4.54522 69.9851 4.08452 70.5021 3.75639C71.0225 3.42827 71.6274 3.2642 72.3168 3.2642C73.0062 3.2642 73.6094 3.42827 74.1264 3.75639C74.6468 4.08452 75.0511 4.54522 75.3395 5.13849C75.6312 5.73177 75.777 6.42614 75.777 7.22159C75.777 8.01042 75.6312 8.69981 75.3395 9.28977C75.0511 9.87973 74.6468 10.3388 74.1264 10.6669C73.6094 10.995 73.0062 11.1591 72.3168 11.1591ZM72.3168 10.1051C72.8404 10.1051 73.2713 9.97088 73.6094 9.70241C73.9474 9.43395 74.1977 9.08097 74.3601 8.64347C74.5225 8.20597 74.6037 7.73201 74.6037 7.22159C74.6037 6.71117 74.5225 6.23556 74.3601 5.79474C74.1977 5.35393 73.9474 4.99763 73.6094 4.72585C73.2713 4.45407 72.8404 4.31818 72.3168 4.31818C71.7931 4.31818 71.3622 4.45407 71.0241 4.72585C70.6861 4.99763 70.4358 5.35393 70.2734 5.79474C70.111 6.23556 70.0298 6.71117 70.0298 7.22159C70.0298 7.73201 70.111 8.20597 70.2734 8.64347C70.4358 9.08097 70.6861 9.43395 71.0241 9.70241C71.3622 9.97088 71.7931 10.1051 72.3168 10.1051ZM83.5389 3.36364L80.715 11H79.5218L76.698 3.36364H77.9707L80.0787 9.44886H80.1582L82.2662 3.36364H83.5389ZM88.0158 11.1591C87.28 11.1591 86.6453 10.9967 86.1117 10.6719C85.5814 10.3438 85.1721 9.88636 84.8837 9.29972C84.5987 8.70975 84.4561 8.02367 84.4561 7.24148C84.4561 6.45928 84.5987 5.76989 84.8837 5.1733C85.1721 4.57339 85.5731 4.10606 86.0868 3.77131C86.6039 3.43324 87.2071 3.2642 87.8965 3.2642C88.2942 3.2642 88.687 3.33049 89.0748 3.46307C89.4625 3.59564 89.8155 3.81108 90.1337 4.10938C90.4519 4.40436 90.7054 4.79545 90.8944 5.28267C91.0833 5.76989 91.1777 6.36979 91.1777 7.08239V7.57955H85.2914V6.56534H89.9846C89.9846 6.13447 89.8984 5.75 89.726 5.41193C89.557 5.07386 89.315 4.80705 89.0002 4.61151C88.6886 4.41596 88.3207 4.31818 87.8965 4.31818C87.4292 4.31818 87.0248 4.43419 86.6834 4.66619C86.3453 4.89489 86.0852 5.19318 85.9029 5.56108C85.7206 5.92898 85.6294 6.32339 85.6294 6.74432V7.42045C85.6294 7.99716 85.7289 8.48603 85.9277 8.88707C86.1299 9.2848 86.41 9.58807 86.7679 9.79688C87.1259 10.0024 87.5418 10.1051 88.0158 10.1051C88.324 10.1051 88.6025 10.062 88.851 9.97585C89.1029 9.88636 89.32 9.75379 89.5023 9.57812C89.6846 9.39915 89.8255 9.17708 89.9249 8.91193L91.0584 9.23011C90.9391 9.61458 90.7386 9.95265 90.4569 10.2443C90.1751 10.5327 89.8271 10.758 89.4128 10.9205C88.9985 11.0795 88.5328 11.1591 88.0158 11.1591ZM94.1358 6.40625V11H92.9625V3.36364H94.0961V4.55682H94.1955C94.3745 4.16903 94.6462 3.85748 95.0108 3.62216C95.3754 3.38352 95.8461 3.2642 96.4228 3.2642C96.9398 3.2642 97.3922 3.37027 97.78 3.58239C98.1678 3.79119 98.4694 4.10938 98.6848 4.53693C98.9003 4.96117 99.008 5.49811 99.008 6.14773V11H97.8347V6.22727C97.8347 5.62737 97.6789 5.16004 97.3674 4.82528C97.0558 4.48722 96.6283 4.31818 96.0847 4.31818C95.7102 4.31818 95.3754 4.39938 95.0804 4.56179C94.7888 4.72419 94.5584 4.96117 94.3894 5.27273C94.2203 5.58428 94.1358 5.96212 94.1358 6.40625ZM106.561 5.07386L105.507 5.37216C105.441 5.1965 105.343 5.0258 105.214 4.86009C105.088 4.69105 104.915 4.55185 104.697 4.44247C104.478 4.3331 104.198 4.27841 103.857 4.27841C103.389 4.27841 103 4.38613 102.688 4.60156C102.38 4.81368 102.226 5.08381 102.226 5.41193C102.226 5.7036 102.332 5.93395 102.544 6.10298C102.756 6.27202 103.088 6.41288 103.538 6.52557L104.672 6.80398C105.355 6.9697 105.863 7.22325 106.198 7.56463C106.533 7.9027 106.7 8.33854 106.7 8.87216C106.7 9.30966 106.574 9.70076 106.322 10.0455C106.074 10.3902 105.726 10.6619 105.278 10.8608C104.831 11.0597 104.311 11.1591 103.717 11.1591C102.938 11.1591 102.294 10.9901 101.783 10.652C101.273 10.3139 100.95 9.82008 100.814 9.17045L101.928 8.89205C102.034 9.30303 102.234 9.61127 102.529 9.81676C102.827 10.0223 103.217 10.125 103.697 10.125C104.244 10.125 104.679 10.009 105 9.77699C105.325 9.54167 105.487 9.25994 105.487 8.93182C105.487 8.66667 105.394 8.4446 105.209 8.26562C105.023 8.08333 104.738 7.94744 104.354 7.85795L103.081 7.55966C102.382 7.39394 101.868 7.13707 101.54 6.78906C101.215 6.43774 101.053 5.99858 101.053 5.47159C101.053 5.04072 101.174 4.65956 101.415 4.32812C101.661 3.99669 101.994 3.73651 102.415 3.54758C102.839 3.35866 103.32 3.2642 103.857 3.2642C104.612 3.2642 105.205 3.42992 105.636 3.76136C106.071 4.0928 106.379 4.5303 106.561 5.07386ZM115.725 3.36364V4.35795H111.768V3.36364H115.725ZM112.921 1.53409H114.094V8.8125C114.094 9.14394 114.142 9.39252 114.238 9.55824C114.338 9.72064 114.464 9.83002 114.616 9.88636C114.772 9.93939 114.936 9.96591 115.108 9.96591C115.238 9.96591 115.344 9.95928 115.427 9.94602C115.51 9.92945 115.576 9.91619 115.626 9.90625L115.864 10.9602C115.785 10.9901 115.674 11.0199 115.531 11.0497C115.389 11.0829 115.208 11.0994 114.989 11.0994C114.658 11.0994 114.333 11.0282 114.015 10.8857C113.7 10.7431 113.438 10.526 113.229 10.2344C113.024 9.94271 112.921 9.57481 112.921 9.13068V1.53409ZM119.737 11.179C119.253 11.179 118.814 11.0878 118.42 10.9055C118.025 10.7199 117.712 10.4531 117.48 10.1051C117.248 9.75379 117.132 9.32955 117.132 8.83239C117.132 8.39489 117.218 8.04025 117.39 7.76847C117.563 7.49337 117.793 7.27794 118.081 7.12216C118.37 6.96638 118.688 6.85038 119.036 6.77415C119.387 6.6946 119.74 6.63163 120.095 6.58523C120.559 6.52557 120.935 6.48082 121.224 6.45099C121.515 6.41785 121.727 6.36316 121.86 6.28693C121.996 6.2107 122.064 6.07812 122.064 5.8892V5.84943C122.064 5.3589 121.93 4.97775 121.661 4.70597C121.396 4.43419 120.993 4.2983 120.453 4.2983C119.893 4.2983 119.454 4.42093 119.135 4.66619C118.817 4.91146 118.594 5.1733 118.464 5.4517L117.351 5.05398C117.55 4.58996 117.815 4.22869 118.146 3.97017C118.481 3.70833 118.845 3.52604 119.24 3.4233C119.638 3.31723 120.029 3.2642 120.413 3.2642C120.658 3.2642 120.94 3.29403 121.258 3.35369C121.58 3.41004 121.89 3.5277 122.188 3.70668C122.49 3.88565 122.74 4.15578 122.939 4.51705C123.138 4.87831 123.237 5.36222 123.237 5.96875V11H122.064V9.96591H122.004C121.925 10.1316 121.792 10.3089 121.606 10.4979C121.421 10.6868 121.174 10.8475 120.866 10.9801C120.557 11.1127 120.181 11.179 119.737 11.179ZM119.916 10.125C120.38 10.125 120.771 10.0339 121.089 9.85156C121.411 9.66927 121.653 9.43395 121.815 9.1456C121.981 8.85724 122.064 8.55398 122.064 8.2358V7.16193C122.014 7.22159 121.905 7.27628 121.736 7.32599C121.57 7.3724 121.378 7.41383 121.159 7.45028C120.943 7.48343 120.733 7.51326 120.528 7.53977C120.325 7.56297 120.161 7.58286 120.035 7.59943C119.73 7.6392 119.445 7.70384 119.18 7.79332C118.918 7.8795 118.706 8.01042 118.544 8.18608C118.385 8.35843 118.305 8.59375 118.305 8.89205C118.305 9.29972 118.456 9.60795 118.758 9.81676C119.063 10.0223 119.449 10.125 119.916 10.125ZM126.552 0.818182V11H125.379V0.818182H126.552ZM131.903 11.1591C131.167 11.1591 130.532 10.9967 129.998 10.6719C129.468 10.3438 129.059 9.88636 128.77 9.29972C128.485 8.70975 128.343 8.02367 128.343 7.24148C128.343 6.45928 128.485 5.76989 128.77 5.1733C129.059 4.57339 129.46 4.10606 129.974 3.77131C130.491 3.43324 131.094 3.2642 131.783 3.2642C132.181 3.2642 132.574 3.33049 132.961 3.46307C133.349 3.59564 133.702 3.81108 134.02 4.10938C134.339 4.40436 134.592 4.79545 134.781 5.28267C134.97 5.76989 135.064 6.36979 135.064 7.08239V7.57955H129.178V6.56534H133.871C133.871 6.13447 133.785 5.75 133.613 5.41193C133.444 5.07386 133.202 4.80705 132.887 4.61151C132.575 4.41596 132.207 4.31818 131.783 4.31818C131.316 4.31818 130.912 4.43419 130.57 4.66619C130.232 4.89489 129.972 5.19318 129.79 5.56108C129.607 5.92898 129.516 6.32339 129.516 6.74432V7.42045C129.516 7.99716 129.616 8.48603 129.814 8.88707C130.017 9.2848 130.297 9.58807 130.655 9.79688C131.013 10.0024 131.429 10.1051 131.903 10.1051C132.211 10.1051 132.489 10.062 132.738 9.97585C132.99 9.88636 133.207 9.75379 133.389 9.57812C133.571 9.39915 133.712 9.17708 133.812 8.91193L134.945 9.23011C134.826 9.61458 134.625 9.95265 134.344 10.2443C134.062 10.5327 133.714 10.758 133.3 10.9205C132.885 11.0795 132.42 11.1591 131.903 11.1591ZM138.023 6.40625V11H136.849V3.36364H137.983V4.55682H138.082C138.261 4.16903 138.533 3.85748 138.898 3.62216C139.262 3.38352 139.733 3.2642 140.309 3.2642C140.827 3.2642 141.279 3.37027 141.667 3.58239C142.055 3.79119 142.356 4.10938 142.572 4.53693C142.787 4.96117 142.895 5.49811 142.895 6.14773V11H141.721V6.22727C141.721 5.62737 141.566 5.16004 141.254 4.82528C140.943 4.48722 140.515 4.31818 139.971 4.31818C139.597 4.31818 139.262 4.39938 138.967 4.56179C138.675 4.72419 138.445 4.96117 138.276 5.27273C138.107 5.58428 138.023 5.96212 138.023 6.40625ZM148.36 3.36364V4.35795H144.402V3.36364H148.36ZM145.556 1.53409H146.729V8.8125C146.729 9.14394 146.777 9.39252 146.873 9.55824C146.973 9.72064 147.099 9.83002 147.251 9.88636C147.407 9.93939 147.571 9.96591 147.743 9.96591C147.873 9.96591 147.979 9.95928 148.061 9.94602C148.144 9.92945 148.211 9.91619 148.26 9.90625L148.499 10.9602C148.419 10.9901 148.308 11.0199 148.166 11.0497C148.023 11.0829 147.843 11.0994 147.624 11.0994C147.292 11.0994 146.968 11.0282 146.65 10.8857C146.335 10.7431 146.073 10.526 145.864 10.2344C145.658 9.94271 145.556 9.57481 145.556 9.13068V1.53409ZM153.145 11.1591C152.455 11.1591 151.851 10.995 151.33 10.6669C150.813 10.3388 150.409 9.87973 150.117 9.28977C149.829 8.69981 149.685 8.01042 149.685 7.22159C149.685 6.42614 149.829 5.73177 150.117 5.13849C150.409 4.54522 150.813 4.08452 151.33 3.75639C151.851 3.42827 152.455 3.2642 153.145 3.2642C153.834 3.2642 154.438 3.42827 154.955 3.75639C155.475 4.08452 155.879 4.54522 156.168 5.13849C156.459 5.73177 156.605 6.42614 156.605 7.22159C156.605 8.01042 156.459 8.69981 156.168 9.28977C155.879 9.87973 155.475 10.3388 154.955 10.6669C154.438 10.995 153.834 11.1591 153.145 11.1591ZM153.145 10.1051C153.669 10.1051 154.099 9.97088 154.438 9.70241C154.776 9.43395 155.026 9.08097 155.188 8.64347C155.351 8.20597 155.432 7.73201 155.432 7.22159C155.432 6.71117 155.351 6.23556 155.188 5.79474C155.026 5.35393 154.776 4.99763 154.438 4.72585C154.099 4.45407 153.669 4.31818 153.145 4.31818C152.621 4.31818 152.19 4.45407 151.852 4.72585C151.514 4.99763 151.264 5.35393 151.102 5.79474C150.939 6.23556 150.858 6.71117 150.858 7.22159C150.858 7.73201 150.939 8.20597 151.102 8.64347C151.264 9.08097 151.514 9.43395 151.852 9.70241C152.19 9.97088 152.621 10.1051 153.145 10.1051ZM163.805 5.07386L162.751 5.37216C162.685 5.1965 162.587 5.0258 162.458 4.86009C162.332 4.69105 162.16 4.55185 161.941 4.44247C161.722 4.3331 161.442 4.27841 161.101 4.27841C160.633 4.27841 160.244 4.38613 159.932 4.60156C159.624 4.81368 159.47 5.08381 159.47 5.41193C159.47 5.7036 159.576 5.93395 159.788 6.10298C160 6.27202 160.332 6.41288 160.782 6.52557L161.916 6.80398C162.599 6.9697 163.108 7.22325 163.442 7.56463C163.777 7.9027 163.944 8.33854 163.944 8.87216C163.944 9.30966 163.818 9.70076 163.567 10.0455C163.318 10.3902 162.97 10.6619 162.523 10.8608C162.075 11.0597 161.555 11.1591 160.961 11.1591C160.183 11.1591 159.538 10.9901 159.028 10.652C158.517 10.3139 158.194 9.82008 158.058 9.17045L159.172 8.89205C159.278 9.30303 159.478 9.61127 159.773 9.81676C160.072 10.0223 160.461 10.125 160.942 10.125C161.488 10.125 161.923 10.009 162.244 9.77699C162.569 9.54167 162.731 9.25994 162.731 8.93182C162.731 8.66667 162.639 8.4446 162.453 8.26562C162.267 8.08333 161.982 7.94744 161.598 7.85795L160.325 7.55966C159.626 7.39394 159.112 7.13707 158.784 6.78906C158.459 6.43774 158.297 5.99858 158.297 5.47159C158.297 5.04072 158.418 4.65956 158.66 4.32812C158.905 3.99669 159.238 3.73651 159.659 3.54758C160.083 3.35866 160.564 3.2642 161.101 3.2642C161.856 3.2642 162.45 3.42992 162.881 3.76136C163.315 4.0928 163.623 4.5303 163.805 5.07386ZM171.895 11.179C171.411 11.179 170.972 11.0878 170.578 10.9055C170.183 10.7199 169.87 10.4531 169.638 10.1051C169.406 9.75379 169.29 9.32955 169.29 8.83239C169.29 8.39489 169.376 8.04025 169.549 7.76847C169.721 7.49337 169.951 7.27794 170.24 7.12216C170.528 6.96638 170.846 6.85038 171.194 6.77415C171.546 6.6946 171.899 6.63163 172.253 6.58523C172.717 6.52557 173.093 6.48082 173.382 6.45099C173.673 6.41785 173.886 6.36316 174.018 6.28693C174.154 6.2107 174.222 6.07812 174.222 5.8892V5.84943C174.222 5.3589 174.088 4.97775 173.819 4.70597C173.554 4.43419 173.151 4.2983 172.611 4.2983C172.051 4.2983 171.612 4.42093 171.294 4.66619C170.975 4.91146 170.752 5.1733 170.623 5.4517L169.509 5.05398C169.708 4.58996 169.973 4.22869 170.304 3.97017C170.639 3.70833 171.004 3.52604 171.398 3.4233C171.796 3.31723 172.187 3.2642 172.571 3.2642C172.817 3.2642 173.098 3.29403 173.417 3.35369C173.738 3.41004 174.048 3.5277 174.346 3.70668C174.648 3.88565 174.898 4.15578 175.097 4.51705C175.296 4.87831 175.395 5.36222 175.395 5.96875V11H174.222V9.96591H174.162C174.083 10.1316 173.95 10.3089 173.765 10.4979C173.579 10.6868 173.332 10.8475 173.024 10.9801C172.716 11.1127 172.339 11.179 171.895 11.179ZM172.074 10.125C172.538 10.125 172.929 10.0339 173.248 9.85156C173.569 9.66927 173.811 9.43395 173.973 9.1456C174.139 8.85724 174.222 8.55398 174.222 8.2358V7.16193C174.172 7.22159 174.063 7.27628 173.894 7.32599C173.728 7.3724 173.536 7.41383 173.317 7.45028C173.102 7.48343 172.891 7.51326 172.686 7.53977C172.484 7.56297 172.319 7.58286 172.194 7.59943C171.889 7.6392 171.604 7.70384 171.338 7.79332C171.077 7.8795 170.864 8.01042 170.702 8.18608C170.543 8.35843 170.463 8.59375 170.463 8.89205C170.463 9.29972 170.614 9.60795 170.916 9.81676C171.221 10.0223 171.607 10.125 172.074 10.125ZM184.577 11.1591C183.887 11.1591 183.282 10.995 182.762 10.6669C182.245 10.3388 181.84 9.87973 181.549 9.28977C181.26 8.69981 181.116 8.01042 181.116 7.22159C181.116 6.42614 181.26 5.73177 181.549 5.13849C181.84 4.54522 182.245 4.08452 182.762 3.75639C183.282 3.42827 183.887 3.2642 184.577 3.2642C185.266 3.2642 185.869 3.42827 186.386 3.75639C186.907 4.08452 187.311 4.54522 187.599 5.13849C187.891 5.73177 188.037 6.42614 188.037 7.22159C188.037 8.01042 187.891 8.69981 187.599 9.28977C187.311 9.87973 186.907 10.3388 186.386 10.6669C185.869 10.995 185.266 11.1591 184.577 11.1591ZM184.577 10.1051C185.1 10.1051 185.531 9.97088 185.869 9.70241C186.207 9.43395 186.457 9.08097 186.62 8.64347C186.782 8.20597 186.863 7.73201 186.863 7.22159C186.863 6.71117 186.782 6.23556 186.62 5.79474C186.457 5.35393 186.207 4.99763 185.869 4.72585C185.531 4.45407 185.1 4.31818 184.577 4.31818C184.053 4.31818 183.622 4.45407 183.284 4.72585C182.946 4.99763 182.696 5.35393 182.533 5.79474C182.371 6.23556 182.29 6.71117 182.29 7.22159C182.29 7.73201 182.371 8.20597 182.533 8.64347C182.696 9.08097 182.946 9.43395 183.284 9.70241C183.622 9.97088 184.053 10.1051 184.577 10.1051ZM189.828 13.8636V3.36364H190.961V4.5767H191.1C191.187 4.44413 191.306 4.27509 191.458 4.0696C191.614 3.8608 191.836 3.67519 192.125 3.51278C192.416 3.34706 192.811 3.2642 193.308 3.2642C193.951 3.2642 194.518 3.42495 195.008 3.74645C195.499 4.06794 195.882 4.52367 196.157 5.11364C196.432 5.7036 196.569 6.39962 196.569 7.2017C196.569 8.01042 196.432 8.71141 196.157 9.30469C195.882 9.89465 195.5 10.352 195.013 10.6768C194.526 10.9983 193.964 11.1591 193.328 11.1591C192.837 11.1591 192.444 11.0779 192.15 10.9155C191.855 10.7498 191.627 10.5625 191.468 10.3537C191.309 10.1416 191.187 9.96591 191.1 9.8267H191.001V13.8636H189.828ZM190.981 7.18182C190.981 7.75852 191.066 8.26728 191.235 8.7081C191.404 9.1456 191.651 9.48864 191.975 9.73722C192.3 9.98248 192.698 10.1051 193.169 10.1051C193.659 10.1051 194.069 9.97585 194.397 9.71733C194.728 9.45549 194.977 9.10417 195.142 8.66335C195.311 8.21922 195.396 7.72538 195.396 7.18182C195.396 6.64489 195.313 6.16098 195.147 5.73011C194.985 5.29593 194.738 4.95289 194.407 4.70099C194.078 4.44579 193.666 4.31818 193.169 4.31818C192.691 4.31818 192.29 4.43916 191.966 4.68111C191.641 4.91974 191.395 5.2545 191.23 5.68537C191.064 6.11293 190.981 6.61174 190.981 7.18182ZM201.461 11.1591C200.772 11.1591 200.167 10.995 199.647 10.6669C199.13 10.3388 198.725 9.87973 198.434 9.28977C198.145 8.69981 198.001 8.01042 198.001 7.22159C198.001 6.42614 198.145 5.73177 198.434 5.13849C198.725 4.54522 199.13 4.08452 199.647 3.75639C200.167 3.42827 200.772 3.2642 201.461 3.2642C202.151 3.2642 202.754 3.42827 203.271 3.75639C203.791 4.08452 204.196 4.54522 204.484 5.13849C204.776 5.73177 204.922 6.42614 204.922 7.22159C204.922 8.01042 204.776 8.69981 204.484 9.28977C204.196 9.87973 203.791 10.3388 203.271 10.6669C202.754 10.995 202.151 11.1591 201.461 11.1591ZM201.461 10.1051C201.985 10.1051 202.416 9.97088 202.754 9.70241C203.092 9.43395 203.342 9.08097 203.505 8.64347C203.667 8.20597 203.748 7.73201 203.748 7.22159C203.748 6.71117 203.667 6.23556 203.505 5.79474C203.342 5.35393 203.092 4.99763 202.754 4.72585C202.416 4.45407 201.985 4.31818 201.461 4.31818C200.938 4.31818 200.507 4.45407 200.169 4.72585C199.831 4.99763 199.58 5.35393 199.418 5.79474C199.256 6.23556 199.174 6.71117 199.174 7.22159C199.174 7.73201 199.256 8.20597 199.418 8.64347C199.58 9.08097 199.831 9.43395 200.169 9.70241C200.507 9.97088 200.938 10.1051 201.461 10.1051ZM206.713 11V3.36364H207.846V4.51705H207.926C208.065 4.1392 208.317 3.83262 208.681 3.5973C209.046 3.36198 209.457 3.24432 209.914 3.24432C210 3.24432 210.108 3.24597 210.237 3.24929C210.367 3.2526 210.464 3.25758 210.531 3.2642V4.45739C210.491 4.44744 210.4 4.43253 210.257 4.41264C210.118 4.38944 209.971 4.37784 209.815 4.37784C209.444 4.37784 209.112 4.45573 208.82 4.61151C208.532 4.76397 208.303 4.97609 208.134 5.24787C207.969 5.51634 207.886 5.82292 207.886 6.16761V11H206.713ZM215.721 3.36364V4.35795H211.764V3.36364H215.721ZM212.917 1.53409H214.09V8.8125C214.09 9.14394 214.138 9.39252 214.235 9.55824C214.334 9.72064 214.46 9.83002 214.612 9.88636C214.768 9.93939 214.932 9.96591 215.105 9.96591C215.234 9.96591 215.34 9.95928 215.423 9.94602C215.506 9.92945 215.572 9.91619 215.622 9.90625L215.86 10.9602C215.781 10.9901 215.67 11.0199 215.527 11.0497C215.385 11.0829 215.204 11.0994 214.985 11.0994C214.654 11.0994 214.329 11.0282 214.011 10.8857C213.696 10.7431 213.434 10.526 213.225 10.2344C213.02 9.94271 212.917 9.57481 212.917 9.13068V1.53409ZM222.298 7.87784V3.36364H223.472V11H222.298V9.70739H222.219C222.04 10.0952 221.762 10.425 221.384 10.6967C221.006 10.9652 220.529 11.0994 219.952 11.0994C219.475 11.0994 219.05 10.995 218.679 10.7862C218.308 10.5741 218.016 10.2559 217.804 9.83168C217.592 9.40412 217.486 8.86553 217.486 8.21591V3.36364H218.659V8.13636C218.659 8.69318 218.815 9.13731 219.127 9.46875C219.441 9.80019 219.843 9.96591 220.33 9.96591C220.621 9.96591 220.918 9.89134 221.22 9.74219C221.525 9.59304 221.78 9.36435 221.985 9.05611C222.194 8.74787 222.298 8.35511 222.298 7.87784ZM226.794 6.40625V11H225.621V3.36364H226.754V4.55682H226.854C227.033 4.16903 227.304 3.85748 227.669 3.62216C228.034 3.38352 228.504 3.2642 229.081 3.2642C229.598 3.2642 230.05 3.37027 230.438 3.58239C230.826 3.79119 231.128 4.10938 231.343 4.53693C231.558 4.96117 231.666 5.49811 231.666 6.14773V11H230.493V6.22727C230.493 5.62737 230.337 5.16004 230.026 4.82528C229.714 4.48722 229.286 4.31818 228.743 4.31818C228.368 4.31818 228.034 4.39938 227.739 4.56179C227.447 4.72419 227.217 4.96117 227.048 5.27273C226.879 5.58428 226.794 5.96212 226.794 6.40625ZM233.81 11V3.36364H234.983V11H233.81ZM234.407 2.09091C234.178 2.09091 233.981 2.01302 233.815 1.85724C233.653 1.70147 233.572 1.5142 233.572 1.29545C233.572 1.0767 233.653 0.889441 233.815 0.733664C233.981 0.577888 234.178 0.5 234.407 0.5C234.635 0.5 234.831 0.577888 234.993 0.733664C235.159 0.889441 235.242 1.0767 235.242 1.29545C235.242 1.5142 235.159 1.70147 234.993 1.85724C234.831 2.01302 234.635 2.09091 234.407 2.09091ZM240.016 11.1591C239.38 11.1591 238.818 10.9983 238.331 10.6768C237.843 10.352 237.462 9.89465 237.187 9.30469C236.912 8.71141 236.775 8.01042 236.775 7.2017C236.775 6.39962 236.912 5.7036 237.187 5.11364C237.462 4.52367 237.845 4.06794 238.336 3.74645C238.826 3.42495 239.393 3.2642 240.036 3.2642C240.533 3.2642 240.926 3.34706 241.214 3.51278C241.506 3.67519 241.728 3.8608 241.88 4.0696C242.036 4.27509 242.157 4.44413 242.243 4.5767H242.343V0.818182H243.516V11H242.382V9.8267H242.243C242.157 9.96591 242.034 10.1416 241.875 10.3537C241.716 10.5625 241.489 10.7498 241.194 10.9155C240.899 11.0779 240.507 11.1591 240.016 11.1591ZM240.175 10.1051C240.646 10.1051 241.043 9.98248 241.368 9.73722C241.693 9.48864 241.94 9.1456 242.109 8.7081C242.278 8.26728 242.363 7.75852 242.363 7.18182C242.363 6.61174 242.28 6.11293 242.114 5.68537C241.948 5.2545 241.703 4.91974 241.378 4.68111C241.053 4.43916 240.652 4.31818 240.175 4.31818C239.678 4.31818 239.264 4.44579 238.932 4.70099C238.604 4.95289 238.357 5.29593 238.191 5.73011C238.029 6.16098 237.948 6.64489 237.948 7.18182C237.948 7.72538 238.031 8.21922 238.196 8.66335C238.365 9.10417 238.614 9.45549 238.942 9.71733C239.274 9.97585 239.685 10.1051 240.175 10.1051ZM248.075 11.179C247.591 11.179 247.152 11.0878 246.757 10.9055C246.363 10.7199 246.05 10.4531 245.818 10.1051C245.586 9.75379 245.47 9.32955 245.47 8.83239C245.47 8.39489 245.556 8.04025 245.728 7.76847C245.901 7.49337 246.131 7.27794 246.419 7.12216C246.708 6.96638 247.026 6.85038 247.374 6.77415C247.725 6.6946 248.078 6.63163 248.433 6.58523C248.897 6.52557 249.273 6.48082 249.561 6.45099C249.853 6.41785 250.065 6.36316 250.198 6.28693C250.334 6.2107 250.402 6.07812 250.402 5.8892V5.84943C250.402 5.3589 250.267 4.97775 249.999 4.70597C249.734 4.43419 249.331 4.2983 248.791 4.2983C248.231 4.2983 247.792 4.42093 247.473 4.66619C247.155 4.91146 246.931 5.1733 246.802 5.4517L245.689 5.05398C245.887 4.58996 246.153 4.22869 246.484 3.97017C246.819 3.70833 247.183 3.52604 247.578 3.4233C247.975 3.31723 248.367 3.2642 248.751 3.2642C248.996 3.2642 249.278 3.29403 249.596 3.35369C249.918 3.41004 250.228 3.5277 250.526 3.70668C250.828 3.88565 251.078 4.15578 251.277 4.51705C251.475 4.87831 251.575 5.36222 251.575 5.96875V11H250.402V9.96591H250.342C250.262 10.1316 250.13 10.3089 249.944 10.4979C249.759 10.6868 249.512 10.8475 249.203 10.9801C248.895 11.1127 248.519 11.179 248.075 11.179ZM248.254 10.125C248.718 10.125 249.109 10.0339 249.427 9.85156C249.749 9.66927 249.991 9.43395 250.153 9.1456C250.319 8.85724 250.402 8.55398 250.402 8.2358V7.16193C250.352 7.22159 250.243 7.27628 250.074 7.32599C249.908 7.3724 249.716 7.41383 249.497 7.45028C249.281 7.48343 249.071 7.51326 248.865 7.53977C248.663 7.56297 248.499 7.58286 248.373 7.59943C248.068 7.6392 247.783 7.70384 247.518 7.79332C247.256 7.8795 247.044 8.01042 246.882 8.18608C246.723 8.35843 246.643 8.59375 246.643 8.89205C246.643 9.29972 246.794 9.60795 247.096 9.81676C247.4 10.0223 247.787 10.125 248.254 10.125ZM256.6 11.1591C255.964 11.1591 255.402 10.9983 254.915 10.6768C254.427 10.352 254.046 9.89465 253.771 9.30469C253.496 8.71141 253.358 8.01042 253.358 7.2017C253.358 6.39962 253.496 5.7036 253.771 5.11364C254.046 4.52367 254.429 4.06794 254.92 3.74645C255.41 3.42495 255.977 3.2642 256.62 3.2642C257.117 3.2642 257.51 3.34706 257.798 3.51278C258.09 3.67519 258.312 3.8608 258.464 4.0696C258.62 4.27509 258.741 4.44413 258.827 4.5767H258.927V0.818182H260.1V11H258.966V9.8267H258.827C258.741 9.96591 258.618 10.1416 258.459 10.3537C258.3 10.5625 258.073 10.7498 257.778 10.9155C257.483 11.0779 257.09 11.1591 256.6 11.1591ZM256.759 10.1051C257.23 10.1051 257.627 9.98248 257.952 9.73722C258.277 9.48864 258.524 9.1456 258.693 8.7081C258.862 8.26728 258.947 7.75852 258.947 7.18182C258.947 6.61174 258.864 6.11293 258.698 5.68537C258.532 5.2545 258.287 4.91974 257.962 4.68111C257.637 4.43916 257.236 4.31818 256.759 4.31818C256.262 4.31818 255.848 4.44579 255.516 4.70099C255.188 4.95289 254.941 5.29593 254.775 5.73011C254.613 6.16098 254.532 6.64489 254.532 7.18182C254.532 7.72538 254.615 8.21922 254.78 8.66335C254.949 9.10417 255.198 9.45549 255.526 9.71733C255.858 9.97585 256.269 10.1051 256.759 10.1051ZM265.613 11.1591C264.878 11.1591 264.243 10.9967 263.709 10.6719C263.179 10.3438 262.77 9.88636 262.481 9.29972C262.196 8.70975 262.054 8.02367 262.054 7.24148C262.054 6.45928 262.196 5.76989 262.481 5.1733C262.77 4.57339 263.171 4.10606 263.684 3.77131C264.202 3.43324 264.805 3.2642 265.494 3.2642C265.892 3.2642 266.285 3.33049 266.672 3.46307C267.06 3.59564 267.413 3.81108 267.731 4.10938C268.05 4.40436 268.303 4.79545 268.492 5.28267C268.681 5.76989 268.775 6.36979 268.775 7.08239V7.57955H262.889V6.56534H267.582C267.582 6.13447 267.496 5.75 267.324 5.41193C267.155 5.07386 266.913 4.80705 266.598 4.61151C266.286 4.41596 265.918 4.31818 265.494 4.31818C265.027 4.31818 264.622 4.43419 264.281 4.66619C263.943 4.89489 263.683 5.19318 263.501 5.56108C263.318 5.92898 263.227 6.32339 263.227 6.74432V7.42045C263.227 7.99716 263.327 8.48603 263.525 8.88707C263.728 9.2848 264.008 9.58807 264.366 9.79688C264.724 10.0024 265.14 10.1051 265.613 10.1051C265.922 10.1051 266.2 10.062 266.449 9.97585C266.701 9.88636 266.918 9.75379 267.1 9.57812C267.282 9.39915 267.423 9.17708 267.523 8.91193L268.656 9.23011C268.537 9.61458 268.336 9.95265 268.055 10.2443C267.773 10.5327 267.425 10.758 267.01 10.9205C266.596 11.0795 266.131 11.1591 265.613 11.1591ZM275.969 5.07386L274.915 5.37216C274.849 5.1965 274.751 5.0258 274.622 4.86009C274.496 4.69105 274.324 4.55185 274.105 4.44247C273.886 4.3331 273.606 4.27841 273.265 4.27841C272.797 4.27841 272.408 4.38613 272.096 4.60156C271.788 4.81368 271.634 5.08381 271.634 5.41193C271.634 5.7036 271.74 5.93395 271.952 6.10298C272.164 6.27202 272.496 6.41288 272.947 6.52557L274.08 6.80398C274.763 6.9697 275.272 7.22325 275.606 7.56463C275.941 7.9027 276.108 8.33854 276.108 8.87216C276.108 9.30966 275.983 9.70076 275.731 10.0455C275.482 10.3902 275.134 10.6619 274.687 10.8608C274.239 11.0597 273.719 11.1591 273.126 11.1591C272.347 11.1591 271.702 10.9901 271.192 10.652C270.681 10.3139 270.358 9.82008 270.222 9.17045L271.336 8.89205C271.442 9.30303 271.642 9.61127 271.937 9.81676C272.236 10.0223 272.625 10.125 273.106 10.125C273.653 10.125 274.087 10.009 274.408 9.77699C274.733 9.54167 274.895 9.25994 274.895 8.93182C274.895 8.66667 274.803 8.4446 274.617 8.26562C274.431 8.08333 274.146 7.94744 273.762 7.85795L272.489 7.55966C271.79 7.39394 271.276 7.13707 270.948 6.78906C270.623 6.43774 270.461 5.99858 270.461 5.47159C270.461 5.04072 270.582 4.65956 270.824 4.32812C271.069 3.99669 271.402 3.73651 271.823 3.54758C272.247 3.35866 272.728 3.2642 273.265 3.2642C274.02 3.2642 274.614 3.42992 275.045 3.76136C275.479 4.0928 275.787 4.5303 275.969 5.07386ZM282.985 6.40625V11H281.812V3.36364H282.946V4.55682H283.045C283.224 4.16903 283.496 3.85748 283.86 3.62216C284.225 3.38352 284.696 3.2642 285.272 3.2642C285.789 3.2642 286.242 3.37027 286.63 3.58239C287.017 3.79119 287.319 4.10938 287.534 4.53693C287.75 4.96117 287.858 5.49811 287.858 6.14773V11H286.684V6.22727C286.684 5.62737 286.529 5.16004 286.217 4.82528C285.905 4.48722 285.478 4.31818 284.934 4.31818C284.56 4.31818 284.225 4.39938 283.93 4.56179C283.638 4.72419 283.408 4.96117 283.239 5.27273C283.07 5.58428 282.985 5.96212 282.985 6.40625ZM293.104 11.1591C292.414 11.1591 291.81 10.995 291.289 10.6669C290.772 10.3388 290.368 9.87973 290.076 9.28977C289.788 8.69981 289.644 8.01042 289.644 7.22159C289.644 6.42614 289.788 5.73177 290.076 5.13849C290.368 4.54522 290.772 4.08452 291.289 3.75639C291.81 3.42827 292.414 3.2642 293.104 3.2642C293.793 3.2642 294.396 3.42827 294.914 3.75639C295.434 4.08452 295.838 4.54522 296.127 5.13849C296.418 5.73177 296.564 6.42614 296.564 7.22159C296.564 8.01042 296.418 8.69981 296.127 9.28977C295.838 9.87973 295.434 10.3388 294.914 10.6669C294.396 10.995 293.793 11.1591 293.104 11.1591ZM293.104 10.1051C293.628 10.1051 294.058 9.97088 294.396 9.70241C294.735 9.43395 294.985 9.08097 295.147 8.64347C295.31 8.20597 295.391 7.73201 295.391 7.22159C295.391 6.71117 295.31 6.23556 295.147 5.79474C294.985 5.35393 294.735 4.99763 294.396 4.72585C294.058 4.45407 293.628 4.31818 293.104 4.31818C292.58 4.31818 292.149 4.45407 291.811 4.72585C291.473 4.99763 291.223 5.35393 291.061 5.79474C290.898 6.23556 290.817 6.71117 290.817 7.22159C290.817 7.73201 290.898 8.20597 291.061 8.64347C291.223 9.08097 291.473 9.43395 291.811 9.70241C292.149 9.97088 292.58 10.1051 293.104 10.1051ZM305.693 3.36364V4.35795H301.577V3.36364H305.693ZM302.81 11V2.30966C302.81 1.87216 302.912 1.50758 303.118 1.21591C303.323 0.924242 303.59 0.705492 303.918 0.559658C304.246 0.413825 304.593 0.340908 304.957 0.340908C305.246 0.340908 305.481 0.364109 305.663 0.410511C305.846 0.456912 305.982 0.499999 306.071 0.539772L305.733 1.55398C305.673 1.53409 305.59 1.50923 305.484 1.4794C305.382 1.44957 305.246 1.43466 305.077 1.43466C304.689 1.43466 304.409 1.53243 304.237 1.72798C304.067 1.92353 303.983 2.21023 303.983 2.58807V11H302.81ZM312.15 7.87784V3.36364H313.323V11H312.15V9.70739H312.07C311.892 10.0952 311.613 10.425 311.235 10.6967C310.857 10.9652 310.38 11.0994 309.803 11.0994C309.326 11.0994 308.902 10.995 308.531 10.7862C308.16 10.5741 307.868 10.2559 307.656 9.83168C307.444 9.40412 307.338 8.86553 307.338 8.21591V3.36364H308.511V8.13636C308.511 8.69318 308.667 9.13731 308.978 9.46875C309.293 9.80019 309.694 9.96591 310.181 9.96591C310.473 9.96591 310.77 9.89134 311.071 9.74219C311.376 9.59304 311.631 9.36435 311.837 9.05611C312.046 8.74787 312.15 8.35511 312.15 7.87784ZM318.793 3.36364V4.35795H314.836V3.36364H318.793ZM315.989 1.53409H317.163V8.8125C317.163 9.14394 317.211 9.39252 317.307 9.55824C317.406 9.72064 317.532 9.83002 317.685 9.88636C317.84 9.93939 318.004 9.96591 318.177 9.96591C318.306 9.96591 318.412 9.95928 318.495 9.94602C318.578 9.92945 318.644 9.91619 318.694 9.90625L318.933 10.9602C318.853 10.9901 318.742 11.0199 318.599 11.0497C318.457 11.0829 318.276 11.0994 318.058 11.0994C317.726 11.0994 317.401 11.0282 317.083 10.8857C316.768 10.7431 316.506 10.526 316.298 10.2344C316.092 9.94271 315.989 9.57481 315.989 9.13068V1.53409ZM323.678 11.1591C322.942 11.1591 322.307 10.9967 321.774 10.6719C321.243 10.3438 320.834 9.88636 320.546 9.29972C320.261 8.70975 320.118 8.02367 320.118 7.24148C320.118 6.45928 320.261 5.76989 320.546 5.1733C320.834 4.57339 321.235 4.10606 321.749 3.77131C322.266 3.43324 322.869 3.2642 323.559 3.2642C323.956 3.2642 324.349 3.33049 324.737 3.46307C325.125 3.59564 325.478 3.81108 325.796 4.10938C326.114 4.40436 326.368 4.79545 326.556 5.28267C326.745 5.76989 326.84 6.36979 326.84 7.08239V7.57955H320.953V6.56534H325.647C325.647 6.13447 325.56 5.75 325.388 5.41193C325.219 5.07386 324.977 4.80705 324.662 4.61151C324.351 4.41596 323.983 4.31818 323.559 4.31818C323.091 4.31818 322.687 4.43419 322.346 4.66619C322.007 4.89489 321.747 5.19318 321.565 5.56108C321.383 5.92898 321.292 6.32339 321.292 6.74432V7.42045C321.292 7.99716 321.391 8.48603 321.59 8.88707C321.792 9.2848 322.072 9.58807 322.43 9.79688C322.788 10.0024 323.204 10.1051 323.678 10.1051C323.986 10.1051 324.265 10.062 324.513 9.97585C324.765 9.88636 324.982 9.75379 325.164 9.57812C325.347 9.39915 325.488 9.17708 325.587 8.91193L326.721 9.23011C326.601 9.61458 326.401 9.95265 326.119 10.2443C325.837 10.5327 325.489 10.758 325.075 10.9205C324.661 11.0795 324.195 11.1591 323.678 11.1591ZM328.784 11V0.818182H329.957V4.5767H330.056C330.143 4.44413 330.262 4.27509 330.414 4.0696C330.57 3.8608 330.792 3.67519 331.081 3.51278C331.372 3.34706 331.767 3.2642 332.264 3.2642C332.907 3.2642 333.474 3.42495 333.964 3.74645C334.455 4.06794 334.837 4.52367 335.113 5.11364C335.388 5.7036 335.525 6.39962 335.525 7.2017C335.525 8.01042 335.388 8.71141 335.113 9.30469C334.837 9.89465 334.456 10.352 333.969 10.6768C333.482 10.9983 332.92 11.1591 332.284 11.1591C331.793 11.1591 331.4 11.0779 331.105 10.9155C330.81 10.7498 330.583 10.5625 330.424 10.3537C330.265 10.1416 330.143 9.96591 330.056 9.8267H329.917V11H328.784ZM329.937 7.18182C329.937 7.75852 330.022 8.26728 330.191 8.7081C330.36 9.1456 330.607 9.48864 330.931 9.73722C331.256 9.98248 331.654 10.1051 332.125 10.1051C332.615 10.1051 333.025 9.97585 333.353 9.71733C333.684 9.45549 333.933 9.10417 334.098 8.66335C334.267 8.21922 334.352 7.72538 334.352 7.18182C334.352 6.64489 334.269 6.16098 334.103 5.73011C333.941 5.29593 333.694 4.95289 333.363 4.70099C333.034 4.44579 332.622 4.31818 332.125 4.31818C331.647 4.31818 331.246 4.43916 330.922 4.68111C330.597 4.91974 330.351 5.2545 330.186 5.68537C330.02 6.11293 329.937 6.61174 329.937 7.18182ZM340.422 11.1591C339.733 11.1591 339.128 10.995 338.608 10.6669C338.091 10.3388 337.686 9.87973 337.395 9.28977C337.106 8.69981 336.962 8.01042 336.962 7.22159C336.962 6.42614 337.106 5.73177 337.395 5.13849C337.686 4.54522 338.091 4.08452 338.608 3.75639C339.128 3.42827 339.733 3.2642 340.422 3.2642C341.112 3.2642 341.715 3.42827 342.232 3.75639C342.752 4.08452 343.157 4.54522 343.445 5.13849C343.737 5.73177 343.882 6.42614 343.882 7.22159C343.882 8.01042 343.737 8.69981 343.445 9.28977C343.157 9.87973 342.752 10.3388 342.232 10.6669C341.715 10.995 341.112 11.1591 340.422 11.1591ZM340.422 10.1051C340.946 10.1051 341.377 9.97088 341.715 9.70241C342.053 9.43395 342.303 9.08097 342.466 8.64347C342.628 8.20597 342.709 7.73201 342.709 7.22159C342.709 6.71117 342.628 6.23556 342.466 5.79474C342.303 5.35393 342.053 4.99763 341.715 4.72585C341.377 4.45407 340.946 4.31818 340.422 4.31818C339.899 4.31818 339.468 4.45407 339.13 4.72585C338.792 4.99763 338.541 5.35393 338.379 5.79474C338.217 6.23556 338.135 6.71117 338.135 7.22159C338.135 7.73201 338.217 8.20597 338.379 8.64347C338.541 9.08097 338.792 9.43395 339.13 9.70241C339.468 9.97088 339.899 10.1051 340.422 10.1051ZM346.847 0.818182V11H345.673V0.818182H346.847ZM349.851 11.0795C349.606 11.0795 349.395 10.9917 349.219 10.8161C349.044 10.6404 348.956 10.4299 348.956 10.1847C348.956 9.93939 349.044 9.72893 349.219 9.55327C349.395 9.3776 349.606 9.28977 349.851 9.28977C350.096 9.28977 350.307 9.3776 350.482 9.55327C350.658 9.72893 350.746 9.93939 350.746 10.1847C350.746 10.3471 350.704 10.4962 350.621 10.6321C350.542 10.768 350.434 10.8774 350.298 10.9602C350.166 11.0398 350.017 11.0795 349.851 11.0795Z" fill="#374151"/>
</svg>
