<svg width="297" height="15" viewBox="0 0 297 15" fill="none" xmlns="http://www.w3.org/2000/svg">
<path d="M1.46591 0.818182V11H0.232955V0.818182H1.46591ZM4.95224 6.40625V11H3.77894V3.36364H4.91246V4.55682H5.0119C5.19087 4.16903 5.46265 3.85748 5.82724 3.62216C6.19182 3.38352 6.66246 3.2642 7.23917 3.2642C7.75621 3.2642 8.20863 3.37027 8.59641 3.58239C8.9842 3.79119 9.28581 4.10938 9.50124 4.53693C9.71668 4.96117 9.8244 5.49811 9.8244 6.14773V11H8.6511V6.22727C8.6511 5.62737 8.49532 5.16004 8.18377 4.82528C7.87222 4.48722 7.44466 4.31818 6.9011 4.31818C6.52657 4.31818 6.19182 4.39938 5.89684 4.56179C5.60517 4.72419 5.37482 4.96117 5.20579 5.27273C5.03675 5.58428 4.95224 5.96212 4.95224 6.40625ZM15.0707 11.1591C14.3548 11.1591 13.7383 10.9901 13.2212 10.652C12.7042 10.3139 12.3065 9.84825 12.0281 9.25497C11.7496 8.66169 11.6104 7.9839 11.6104 7.22159C11.6104 6.44602 11.753 5.7616 12.038 5.16832C12.3263 4.57173 12.7274 4.10606 13.2411 3.77131C13.7582 3.43324 14.3614 3.2642 15.0508 3.2642C15.5877 3.2642 16.0716 3.36364 16.5025 3.5625C16.9334 3.76136 17.2863 4.03977 17.5614 4.39773C17.8365 4.75568 18.0072 5.1733 18.0735 5.65057H16.9002C16.8107 5.30256 16.6119 4.99432 16.3036 4.72585C15.9987 4.45407 15.5877 4.31818 15.0707 4.31818C14.6133 4.31818 14.2122 4.4375 13.8675 4.67614C13.5262 4.91146 13.2594 5.24455 13.0671 5.67543C12.8782 6.10298 12.7837 6.60511 12.7837 7.18182C12.7837 7.77178 12.8765 8.28551 13.0621 8.72301C13.2511 9.16051 13.5162 9.50024 13.8576 9.74219C14.2023 9.98414 14.6067 10.1051 15.0707 10.1051C15.3756 10.1051 15.6523 10.0521 15.9009 9.94602C16.1495 9.83996 16.36 9.6875 16.5323 9.48864C16.7047 9.28977 16.8273 9.05114 16.9002 8.77273H18.0735C18.0072 9.22348 17.8432 9.6295 17.5813 9.99077C17.3228 10.3487 16.9798 10.6338 16.5522 10.8459C16.128 11.0547 15.6341 11.1591 15.0707 11.1591ZM20.962 0.818182V11H19.7887V0.818182H20.962ZM27.9235 7.87784V3.36364H29.0968V11H27.9235V9.70739H27.8439C27.665 10.0952 27.3865 10.425 27.0087 10.6967C26.6309 10.9652 26.1536 11.0994 25.5769 11.0994C25.0996 11.0994 24.6754 10.995 24.3042 10.7862C23.9329 10.5741 23.6413 10.2559 23.4292 9.83168C23.217 9.40412 23.111 8.86553 23.111 8.21591V3.36364H24.2843V8.13636C24.2843 8.69318 24.44 9.13731 24.7516 9.46875C25.0665 9.80019 25.4675 9.96591 25.9547 9.96591C26.2464 9.96591 26.543 9.89134 26.8446 9.74219C27.1496 9.59304 27.4048 9.36435 27.6103 9.05611C27.8191 8.74787 27.9235 8.35511 27.9235 7.87784ZM36.6548 5.07386L35.6009 5.37216C35.5346 5.1965 35.4368 5.0258 35.3075 4.86009C35.1816 4.69105 35.0092 4.55185 34.7905 4.44247C34.5717 4.3331 34.2917 4.27841 33.9503 4.27841C33.483 4.27841 33.0935 4.38613 32.782 4.60156C32.4737 4.81368 32.3196 5.08381 32.3196 5.41193C32.3196 5.7036 32.4257 5.93395 32.6378 6.10298C32.8499 6.27202 33.1813 6.41288 33.6321 6.52557L34.7656 6.80398C35.4484 6.9697 35.9571 7.22325 36.2919 7.56463C36.6267 7.9027 36.794 8.33854 36.794 8.87216C36.794 9.30966 36.6681 9.70076 36.4162 10.0455C36.1676 10.3902 35.8196 10.6619 35.3722 10.8608C34.9247 11.0597 34.4044 11.1591 33.8111 11.1591C33.0322 11.1591 32.3875 10.9901 31.8771 10.652C31.3667 10.3139 31.0436 9.82008 30.9077 9.17045L32.0213 8.89205C32.1274 9.30303 32.3279 9.61127 32.6229 9.81676C32.9212 10.0223 33.3106 10.125 33.7912 10.125C34.3381 10.125 34.7723 10.009 35.0938 9.77699C35.4186 9.54167 35.581 9.25994 35.581 8.93182C35.581 8.66667 35.4882 8.4446 35.3026 8.26562C35.117 8.08333 34.8319 7.94744 34.4474 7.85795L33.1747 7.55966C32.4754 7.39394 31.9616 7.13707 31.6335 6.78906C31.3087 6.43774 31.1463 5.99858 31.1463 5.47159C31.1463 5.04072 31.2673 4.65956 31.5092 4.32812C31.7545 3.99669 32.0876 3.73651 32.5085 3.54758C32.9328 3.35866 33.4134 3.2642 33.9503 3.2642C34.706 3.2642 35.2992 3.42992 35.7301 3.76136C36.1643 4.0928 36.4725 4.5303 36.6548 5.07386ZM40.8074 11.179C40.3234 11.179 39.8843 11.0878 39.4899 10.9055C39.0955 10.7199 38.7823 10.4531 38.5502 10.1051C38.3182 9.75379 38.2022 9.32955 38.2022 8.83239C38.2022 8.39489 38.2884 8.04025 38.4608 7.76847C38.6331 7.49337 38.8635 7.27794 39.1518 7.12216C39.4402 6.96638 39.7583 6.85038 40.1064 6.77415C40.4577 6.6946 40.8107 6.63163 41.1653 6.58523C41.6293 6.52557 42.0055 6.48082 42.2939 6.45099C42.5855 6.41785 42.7976 6.36316 42.9302 6.28693C43.0661 6.2107 43.1341 6.07812 43.1341 5.8892V5.84943C43.1341 5.3589 42.9998 4.97775 42.7314 4.70597C42.4662 4.43419 42.0635 4.2983 41.5233 4.2983C40.9631 4.2983 40.524 4.42093 40.2058 4.66619C39.8876 4.91146 39.6639 5.1733 39.5346 5.4517L38.421 5.05398C38.6199 4.58996 38.885 4.22869 39.2164 3.97017C39.5512 3.70833 39.9158 3.52604 40.3102 3.4233C40.7079 3.31723 41.099 3.2642 41.4835 3.2642C41.7288 3.2642 42.0105 3.29403 42.3287 3.35369C42.6502 3.41004 42.96 3.5277 43.2583 3.70668C43.56 3.88565 43.8102 4.15578 44.0091 4.51705C44.2079 4.87831 44.3074 5.36222 44.3074 5.96875V11H43.1341V9.96591H43.0744C42.9949 10.1316 42.8623 10.3089 42.6767 10.4979C42.4911 10.6868 42.2441 10.8475 41.9359 10.9801C41.6277 11.1127 41.2515 11.179 40.8074 11.179ZM40.9863 10.125C41.4503 10.125 41.8414 10.0339 42.1596 9.85156C42.4811 9.66927 42.7231 9.43395 42.8855 9.1456C43.0512 8.85724 43.1341 8.55398 43.1341 8.2358V7.16193C43.0843 7.22159 42.975 7.27628 42.8059 7.32599C42.6402 7.3724 42.448 7.41383 42.2292 7.45028C42.0138 7.48343 41.8033 7.51326 41.5978 7.53977C41.3957 7.56297 41.2316 7.58286 41.1056 7.59943C40.8007 7.6392 40.5157 7.70384 40.2505 7.79332C39.9887 7.8795 39.7766 8.01042 39.6142 8.18608C39.4551 8.35843 39.3755 8.59375 39.3755 8.89205C39.3755 9.29972 39.5263 9.60795 39.8279 9.81676C40.1329 10.0223 40.519 10.125 40.9863 10.125ZM40.0318 2.44886L39.117 2.40909C39.117 1.90199 39.2612 1.48769 39.5495 1.16619C39.8412 0.841382 40.2008 0.678977 40.6284 0.678977C40.8173 0.678977 40.9847 0.712121 41.1305 0.778408C41.2763 0.841382 41.4155 0.914299 41.5481 0.997158C41.6807 1.08002 41.8166 1.15459 41.9558 1.22088C42.0983 1.28385 42.2591 1.31534 42.438 1.31534C42.627 1.31534 42.786 1.24242 42.9153 1.09659C43.0479 0.947443 43.1142 0.768465 43.1142 0.559658L44.0091 0.639205C44.0091 1.15625 43.8632 1.56723 43.5716 1.87216C43.2832 2.17708 42.9252 2.32955 42.4977 2.32955C42.269 2.32955 42.0801 2.29806 41.9309 2.23508C41.7818 2.1688 41.6492 2.09422 41.5332 2.01136C41.4172 1.9285 41.2946 1.85559 41.1653 1.79261C41.036 1.72633 40.877 1.69318 40.688 1.69318C40.4991 1.69318 40.3417 1.76776 40.2157 1.9169C40.0931 2.06274 40.0318 2.24006 40.0318 2.44886ZM49.5511 11.1591C48.8617 11.1591 48.2569 10.995 47.7365 10.6669C47.2195 10.3388 46.8151 9.87973 46.5234 9.28977C46.2351 8.69981 46.0909 8.01042 46.0909 7.22159C46.0909 6.42614 46.2351 5.73177 46.5234 5.13849C46.8151 4.54522 47.2195 4.08452 47.7365 3.75639C48.2569 3.42827 48.8617 3.2642 49.5511 3.2642C50.2405 3.2642 50.8438 3.42827 51.3608 3.75639C51.8812 4.08452 52.2855 4.54522 52.5739 5.13849C52.8655 5.73177 53.0114 6.42614 53.0114 7.22159C53.0114 8.01042 52.8655 8.69981 52.5739 9.28977C52.2855 9.87973 51.8812 10.3388 51.3608 10.6669C50.8438 10.995 50.2405 11.1591 49.5511 11.1591ZM49.5511 10.1051C50.0748 10.1051 50.5057 9.97088 50.8438 9.70241C51.1818 9.43395 51.4321 9.08097 51.5945 8.64347C51.7569 8.20597 51.8381 7.73201 51.8381 7.22159C51.8381 6.71117 51.7569 6.23556 51.5945 5.79474C51.4321 5.35393 51.1818 4.99763 50.8438 4.72585C50.5057 4.45407 50.0748 4.31818 49.5511 4.31818C49.0275 4.31818 48.5966 4.45407 48.2585 4.72585C47.9205 4.99763 47.6702 5.35393 47.5078 5.79474C47.3454 6.23556 47.2642 6.71117 47.2642 7.22159C47.2642 7.73201 47.3454 8.20597 47.5078 8.64347C47.6702 9.08097 47.9205 9.43395 48.2585 9.70241C48.5966 9.97088 49.0275 10.1051 49.5511 10.1051ZM56.5524 9.60795L56.4728 10.1449C56.4165 10.5227 56.3303 10.9271 56.2143 11.358C56.1016 11.7888 55.984 12.1948 55.8613 12.576C55.7387 12.9571 55.6376 13.2604 55.5581 13.4858H54.6632C54.7063 13.2737 54.7626 12.9936 54.8322 12.6456C54.9018 12.2976 54.9714 11.9081 55.041 11.4773C55.1139 11.0497 55.1736 10.6122 55.22 10.1648L55.2797 9.60795H56.5524ZM65.8654 11.1591C65.1296 11.1591 64.4949 10.9967 63.9613 10.6719C63.431 10.3438 63.0217 9.88636 62.7333 9.29972C62.4483 8.70975 62.3058 8.02367 62.3058 7.24148C62.3058 6.45928 62.4483 5.76989 62.7333 5.1733C63.0217 4.57339 63.4227 4.10606 63.9364 3.77131C64.4535 3.43324 65.0567 3.2642 65.7461 3.2642C66.1438 3.2642 66.5366 3.33049 66.9244 3.46307C67.3121 3.59564 67.6651 3.81108 67.9833 4.10938C68.3015 4.40436 68.555 4.79545 68.744 5.28267C68.9329 5.76989 69.0273 6.36979 69.0273 7.08239V7.57955H63.141V6.56534H67.8342C67.8342 6.13447 67.748 5.75 67.5756 5.41193C67.4066 5.07386 67.1647 4.80705 66.8498 4.61151C66.5382 4.41596 66.1703 4.31818 65.7461 4.31818C65.2788 4.31818 64.8744 4.43419 64.533 4.66619C64.195 4.89489 63.9348 5.19318 63.7525 5.56108C63.5702 5.92898 63.479 6.32339 63.479 6.74432V7.42045C63.479 7.99716 63.5785 8.48603 63.7773 8.88707C63.9795 9.2848 64.2596 9.58807 64.6175 9.79688C64.9755 10.0024 65.3915 10.1051 65.8654 10.1051C66.1737 10.1051 66.4521 10.062 66.7006 9.97585C66.9525 9.88636 67.1696 9.75379 67.3519 9.57812C67.5342 9.39915 67.6751 9.17708 67.7745 8.91193L68.908 9.23011C68.7887 9.61458 68.5882 9.95265 68.3065 10.2443C68.0247 10.5327 67.6767 10.758 67.2624 10.9205C66.8481 11.0795 66.3825 11.1591 65.8654 11.1591ZM65.1495 2.32955L66.3626 0.0227269H67.7347L66.1836 2.32955H65.1495ZM74.1332 3.36364V4.35795H70.1758V3.36364H74.1332ZM71.3292 1.53409H72.5025V8.8125C72.5025 9.14394 72.5505 9.39252 72.6467 9.55824C72.7461 9.72064 72.872 9.83002 73.0245 9.88636C73.1803 9.93939 73.3443 9.96591 73.5167 9.96591C73.646 9.96591 73.752 9.95928 73.8349 9.94602C73.9177 9.92945 73.984 9.91619 74.0337 9.90625L74.2724 10.9602C74.1928 10.9901 74.0818 11.0199 73.9393 11.0497C73.7968 11.0829 73.6161 11.0994 73.3974 11.0994C73.0659 11.0994 72.7411 11.0282 72.4229 10.8857C72.1081 10.7431 71.8462 10.526 71.6374 10.2344C71.4319 9.94271 71.3292 9.57481 71.3292 9.13068V1.53409ZM75.8981 11V3.36364H77.0714V11H75.8981ZM76.4947 2.09091C76.266 2.09091 76.0688 2.01302 75.9031 1.85724C75.7406 1.70147 75.6594 1.5142 75.6594 1.29545C75.6594 1.0767 75.7406 0.889441 75.9031 0.733664C76.0688 0.577888 76.266 0.5 76.4947 0.5C76.7234 0.5 76.9189 0.577888 77.0813 0.733664C77.247 0.889441 77.3299 1.0767 77.3299 1.29545C77.3299 1.5142 77.247 1.70147 77.0813 1.85724C76.9189 2.01302 76.7234 2.09091 76.4947 2.09091ZM82.3226 11.1591C81.6067 11.1591 80.9902 10.9901 80.4732 10.652C79.9561 10.3139 79.5584 9.84825 79.28 9.25497C79.0016 8.66169 78.8624 7.9839 78.8624 7.22159C78.8624 6.44602 79.0049 5.7616 79.29 5.16832C79.5783 4.57173 79.9793 4.10606 80.4931 3.77131C81.0101 3.43324 81.6133 3.2642 82.3027 3.2642C82.8397 3.2642 83.3236 3.36364 83.7544 3.5625C84.1853 3.76136 84.5383 4.03977 84.8134 4.39773C85.0885 4.75568 85.2592 5.1733 85.3255 5.65057H84.1522C84.0627 5.30256 83.8638 4.99432 83.5556 4.72585C83.2507 4.45407 82.8397 4.31818 82.3226 4.31818C81.8652 4.31818 81.4642 4.4375 81.1195 4.67614C80.7781 4.91146 80.5113 5.24455 80.3191 5.67543C80.1301 6.10298 80.0357 6.60511 80.0357 7.18182C80.0357 7.77178 80.1285 8.28551 80.3141 8.72301C80.503 9.16051 80.7682 9.50024 81.1096 9.74219C81.4542 9.98414 81.8586 10.1051 82.3226 10.1051C82.6275 10.1051 82.9043 10.0521 83.1529 9.94602C83.4015 9.83996 83.6119 9.6875 83.7843 9.48864C83.9566 9.28977 84.0792 9.05114 84.1522 8.77273H85.3255C85.2592 9.22348 85.0951 9.6295 84.8333 9.99077C84.5748 10.3487 84.2317 10.6338 83.8042 10.8459C83.3799 11.0547 82.8861 11.1591 82.3226 11.1591ZM89.2878 11.179C88.8039 11.179 88.3648 11.0878 87.9703 10.9055C87.5759 10.7199 87.2627 10.4531 87.0307 10.1051C86.7987 9.75379 86.6827 9.32955 86.6827 8.83239C86.6827 8.39489 86.7689 8.04025 86.9412 7.76847C87.1136 7.49337 87.3439 7.27794 87.6323 7.12216C87.9206 6.96638 88.2388 6.85038 88.5868 6.77415C88.9382 6.6946 89.2911 6.63163 89.6458 6.58523C90.1098 6.52557 90.486 6.48082 90.7743 6.45099C91.066 6.41785 91.2781 6.36316 91.4107 6.28693C91.5466 6.2107 91.6145 6.07812 91.6145 5.8892V5.84943C91.6145 5.3589 91.4803 4.97775 91.2118 4.70597C90.9467 4.43419 90.544 4.2983 90.0037 4.2983C89.4436 4.2983 89.0044 4.42093 88.6863 4.66619C88.3681 4.91146 88.1444 5.1733 88.0151 5.4517L86.9015 5.05398C87.1003 4.58996 87.3655 4.22869 87.6969 3.97017C88.0317 3.70833 88.3962 3.52604 88.7907 3.4233C89.1884 3.31723 89.5795 3.2642 89.964 3.2642C90.2092 3.2642 90.4909 3.29403 90.8091 3.35369C91.1306 3.41004 91.4405 3.5277 91.7388 3.70668C92.0404 3.88565 92.2907 4.15578 92.4895 4.51705C92.6884 4.87831 92.7878 5.36222 92.7878 5.96875V11H91.6145V9.96591H91.5549C91.4753 10.1316 91.3427 10.3089 91.1571 10.4979C90.9715 10.6868 90.7246 10.8475 90.4164 10.9801C90.1081 11.1127 89.7319 11.179 89.2878 11.179ZM89.4668 10.125C89.9308 10.125 90.3219 10.0339 90.6401 9.85156C90.9616 9.66927 91.2035 9.43395 91.3659 9.1456C91.5317 8.85724 91.6145 8.55398 91.6145 8.2358V7.16193C91.5648 7.22159 91.4554 7.27628 91.2864 7.32599C91.1207 7.3724 90.9284 7.41383 90.7097 7.45028C90.4943 7.48343 90.2838 7.51326 90.0783 7.53977C89.8761 7.56297 89.7121 7.58286 89.5861 7.59943C89.2812 7.6392 88.9962 7.70384 88.731 7.79332C88.4692 7.8795 88.257 8.01042 88.0946 8.18608C87.9355 8.35843 87.856 8.59375 87.856 8.89205C87.856 9.29972 88.0068 9.60795 88.3084 9.81676C88.6133 10.0223 88.9995 10.125 89.4668 10.125ZM96.6793 9.60795L96.5998 10.1449C96.5434 10.5227 96.4573 10.9271 96.3413 11.358C96.2286 11.7888 96.1109 12.1948 95.9883 12.576C95.8656 12.9571 95.7646 13.2604 95.685 13.4858H94.7901C94.8332 13.2737 94.8896 12.9936 94.9592 12.6456C95.0288 12.2976 95.0984 11.9081 95.168 11.4773C95.2409 11.0497 95.3005 10.6122 95.3469 10.1648L95.4066 9.60795H96.6793ZM102.791 11V3.36364H103.924V4.55682H104.024C104.183 4.14915 104.44 3.83262 104.794 3.60724C105.149 3.37855 105.575 3.2642 106.072 3.2642C106.576 3.2642 106.995 3.37855 107.33 3.60724C107.668 3.83262 107.931 4.14915 108.12 4.55682H108.2C108.395 4.16241 108.689 3.84919 109.08 3.61719C109.471 3.38187 109.94 3.2642 110.487 3.2642C111.169 3.2642 111.728 3.47798 112.162 3.90554C112.596 4.32978 112.813 4.991 112.813 5.8892V11H111.64V5.8892C111.64 5.32576 111.486 4.92306 111.178 4.68111C110.869 4.43916 110.507 4.31818 110.089 4.31818C109.552 4.31818 109.136 4.48059 108.841 4.8054C108.546 5.12689 108.399 5.53456 108.399 6.02841V11H107.205V5.76989C107.205 5.3357 107.065 4.98603 106.783 4.72088C106.501 4.45241 106.138 4.31818 105.694 4.31818C105.389 4.31818 105.104 4.39938 104.839 4.56179C104.577 4.72419 104.365 4.94957 104.203 5.23793C104.044 5.52296 103.964 5.85275 103.964 6.22727V11H102.791ZM118.16 11.1591C117.425 11.1591 116.79 10.9967 116.256 10.6719C115.726 10.3438 115.317 9.88636 115.028 9.29972C114.743 8.70975 114.601 8.02367 114.601 7.24148C114.601 6.45928 114.743 5.76989 115.028 5.1733C115.317 4.57339 115.718 4.10606 116.231 3.77131C116.748 3.43324 117.352 3.2642 118.041 3.2642C118.439 3.2642 118.831 3.33049 119.219 3.46307C119.607 3.59564 119.96 3.81108 120.278 4.10938C120.596 4.40436 120.85 4.79545 121.039 5.28267C121.228 5.76989 121.322 6.36979 121.322 7.08239V7.57955H115.436V6.56534H120.129C120.129 6.13447 120.043 5.75 119.871 5.41193C119.702 5.07386 119.46 4.80705 119.145 4.61151C118.833 4.41596 118.465 4.31818 118.041 4.31818C117.574 4.31818 117.169 4.43419 116.828 4.66619C116.49 4.89489 116.23 5.19318 116.047 5.56108C115.865 5.92898 115.774 6.32339 115.774 6.74432V7.42045C115.774 7.99716 115.873 8.48603 116.072 8.88707C116.274 9.2848 116.555 9.58807 116.912 9.79688C117.27 10.0024 117.686 10.1051 118.16 10.1051C118.469 10.1051 118.747 10.062 118.996 9.97585C119.247 9.88636 119.465 9.75379 119.647 9.57812C119.829 9.39915 119.97 9.17708 120.069 8.91193L121.203 9.23011C121.084 9.61458 120.883 9.95265 120.601 10.2443C120.32 10.5327 119.972 10.758 119.557 10.9205C119.143 11.0795 118.677 11.1591 118.16 11.1591ZM117.444 2.32955L118.657 0.0227269H120.03L118.479 2.32955H117.444ZM123.107 11V3.36364H124.241V4.51705H124.32C124.459 4.1392 124.711 3.83262 125.076 3.5973C125.44 3.36198 125.851 3.24432 126.309 3.24432C126.395 3.24432 126.503 3.24597 126.632 3.24929C126.761 3.2526 126.859 3.25758 126.925 3.2642V4.45739C126.885 4.44744 126.794 4.43253 126.652 4.41264C126.513 4.38944 126.365 4.37784 126.209 4.37784C125.838 4.37784 125.507 4.45573 125.215 4.61151C124.927 4.76397 124.698 4.97609 124.529 5.24787C124.363 5.51634 124.28 5.82292 124.28 6.16761V11H123.107ZM128.316 11V3.36364H129.489V11H128.316ZM128.913 2.09091C128.684 2.09091 128.487 2.01302 128.321 1.85724C128.159 1.70147 128.077 1.5142 128.077 1.29545C128.077 1.0767 128.159 0.889441 128.321 0.733664C128.487 0.577888 128.684 0.5 128.913 0.5C129.141 0.5 129.337 0.577888 129.499 0.733664C129.665 0.889441 129.748 1.0767 129.748 1.29545C129.748 1.5142 129.665 1.70147 129.499 1.85724C129.337 2.01302 129.141 2.09091 128.913 2.09091ZM134.959 3.36364V4.35795H131.002V3.36364H134.959ZM132.155 1.53409H133.329V8.8125C133.329 9.14394 133.377 9.39252 133.473 9.55824C133.572 9.72064 133.698 9.83002 133.851 9.88636C134.006 9.93939 134.171 9.96591 134.343 9.96591C134.472 9.96591 134.578 9.95928 134.661 9.94602C134.744 9.92945 134.81 9.91619 134.86 9.90625L135.099 10.9602C135.019 10.9901 134.908 11.0199 134.765 11.0497C134.623 11.0829 134.442 11.0994 134.224 11.0994C133.892 11.0994 133.567 11.0282 133.249 10.8857C132.934 10.7431 132.672 10.526 132.464 10.2344C132.258 9.94271 132.155 9.57481 132.155 9.13068V1.53409ZM139.744 11.1591C139.055 11.1591 138.45 10.995 137.93 10.6669C137.413 10.3388 137.008 9.87973 136.717 9.28977C136.428 8.69981 136.284 8.01042 136.284 7.22159C136.284 6.42614 136.428 5.73177 136.717 5.13849C137.008 4.54522 137.413 4.08452 137.93 3.75639C138.45 3.42827 139.055 3.2642 139.744 3.2642C140.434 3.2642 141.037 3.42827 141.554 3.75639C142.075 4.08452 142.479 4.54522 142.767 5.13849C143.059 5.73177 143.205 6.42614 143.205 7.22159C143.205 8.01042 143.059 8.69981 142.767 9.28977C142.479 9.87973 142.075 10.3388 141.554 10.6669C141.037 10.995 140.434 11.1591 139.744 11.1591ZM139.744 10.1051C140.268 10.1051 140.699 9.97088 141.037 9.70241C141.375 9.43395 141.625 9.08097 141.788 8.64347C141.95 8.20597 142.031 7.73201 142.031 7.22159C142.031 6.71117 141.95 6.23556 141.788 5.79474C141.625 5.35393 141.375 4.99763 141.037 4.72585C140.699 4.45407 140.268 4.31818 139.744 4.31818C139.221 4.31818 138.79 4.45407 138.452 4.72585C138.114 4.99763 137.864 5.35393 137.701 5.79474C137.539 6.23556 137.458 6.71117 137.458 7.22159C137.458 7.73201 137.539 8.20597 137.701 8.64347C137.864 9.08097 138.114 9.43395 138.452 9.70241C138.79 9.97088 139.221 10.1051 139.744 10.1051ZM146.746 9.60795L146.666 10.1449C146.61 10.5227 146.524 10.9271 146.408 11.358C146.295 11.7888 146.177 12.1948 146.055 12.576C145.932 12.9571 145.831 13.2604 145.751 13.4858H144.857C144.9 13.2737 144.956 12.9936 145.026 12.6456C145.095 12.2976 145.165 11.9081 145.234 11.4773C145.307 11.0497 145.367 10.6122 145.413 10.1648L145.473 9.60795H146.746ZM155.741 11.1591C155.104 11.1591 154.542 10.9983 154.055 10.6768C153.568 10.352 153.187 9.89465 152.912 9.30469C152.637 8.71141 152.499 8.01042 152.499 7.2017C152.499 6.39962 152.637 5.7036 152.912 5.11364C153.187 4.52367 153.57 4.06794 154.06 3.74645C154.551 3.42495 155.117 3.2642 155.76 3.2642C156.258 3.2642 156.65 3.34706 156.939 3.51278C157.23 3.67519 157.452 3.8608 157.605 4.0696C157.761 4.27509 157.882 4.44413 157.968 4.5767H158.067V0.818182H159.241V11H158.107V9.8267H157.968C157.882 9.96591 157.759 10.1416 157.6 10.3537C157.441 10.5625 157.214 10.7498 156.919 10.9155C156.624 11.0779 156.231 11.1591 155.741 11.1591ZM155.9 10.1051C156.37 10.1051 156.768 9.98248 157.093 9.73722C157.418 9.48864 157.665 9.1456 157.834 8.7081C158.003 8.26728 158.087 7.75852 158.087 7.18182C158.087 6.61174 158.004 6.11293 157.839 5.68537C157.673 5.2545 157.428 4.91974 157.103 4.68111C156.778 4.43916 156.377 4.31818 155.9 4.31818C155.403 4.31818 154.988 4.44579 154.657 4.70099C154.329 4.95289 154.082 5.29593 153.916 5.73011C153.754 6.16098 153.672 6.64489 153.672 7.18182C153.672 7.72538 153.755 8.21922 153.921 8.66335C154.09 9.10417 154.339 9.45549 154.667 9.71733C154.998 9.97585 155.409 10.1051 155.9 10.1051ZM161.552 11V3.36364H162.726V11H161.552ZM162.149 2.09091C161.92 2.09091 161.723 2.01302 161.557 1.85724C161.395 1.70147 161.314 1.5142 161.314 1.29545C161.314 1.0767 161.395 0.889441 161.557 0.733664C161.723 0.577888 161.92 0.5 162.149 0.5C162.378 0.5 162.573 0.577888 162.736 0.733664C162.901 0.889441 162.984 1.0767 162.984 1.29545C162.984 1.5142 162.901 1.70147 162.736 1.85724C162.573 2.01302 162.378 2.09091 162.149 2.09091ZM171.119 3.36364L168.295 11H167.102L164.278 3.36364H165.551L167.659 9.44886H167.738L169.846 3.36364H171.119ZM175.596 11.1591C174.86 11.1591 174.225 10.9967 173.692 10.6719C173.161 10.3438 172.752 9.88636 172.464 9.29972C172.179 8.70975 172.036 8.02367 172.036 7.24148C172.036 6.45928 172.179 5.76989 172.464 5.1733C172.752 4.57339 173.153 4.10606 173.667 3.77131C174.184 3.43324 174.787 3.2642 175.477 3.2642C175.874 3.2642 176.267 3.33049 176.655 3.46307C177.043 3.59564 177.396 3.81108 177.714 4.10938C178.032 4.40436 178.286 4.79545 178.474 5.28267C178.663 5.76989 178.758 6.36979 178.758 7.08239V7.57955H172.871V6.56534H177.565C177.565 6.13447 177.478 5.75 177.306 5.41193C177.137 5.07386 176.895 4.80705 176.58 4.61151C176.269 4.41596 175.901 4.31818 175.477 4.31818C175.009 4.31818 174.605 4.43419 174.263 4.66619C173.925 4.89489 173.665 5.19318 173.483 5.56108C173.301 5.92898 173.21 6.32339 173.21 6.74432V7.42045C173.21 7.99716 173.309 8.48603 173.508 8.88707C173.71 9.2848 173.99 9.58807 174.348 9.79688C174.706 10.0024 175.122 10.1051 175.596 10.1051C175.904 10.1051 176.183 10.062 176.431 9.97585C176.683 9.88636 176.9 9.75379 177.082 9.57812C177.265 9.39915 177.406 9.17708 177.505 8.91193L178.638 9.23011C178.519 9.61458 178.319 9.95265 178.037 10.2443C177.755 10.5327 177.407 10.758 176.993 10.9205C176.579 11.0795 176.113 11.1591 175.596 11.1591ZM180.543 11V3.36364H181.676V4.51705H181.756C181.895 4.1392 182.147 3.83262 182.511 3.5973C182.876 3.36198 183.287 3.24432 183.744 3.24432C183.83 3.24432 183.938 3.24597 184.067 3.24929C184.197 3.2526 184.295 3.25758 184.361 3.2642V4.45739C184.321 4.44744 184.23 4.43253 184.087 4.41264C183.948 4.38944 183.801 4.37784 183.645 4.37784C183.274 4.37784 182.942 4.45573 182.651 4.61151C182.362 4.76397 182.134 4.97609 181.964 5.24787C181.799 5.51634 181.716 5.82292 181.716 6.16761V11H180.543ZM191.161 5.07386L190.107 5.37216C190.04 5.1965 189.943 5.0258 189.813 4.86009C189.687 4.69105 189.515 4.55185 189.296 4.44247C189.078 4.3331 188.798 4.27841 188.456 4.27841C187.989 4.27841 187.599 4.38613 187.288 4.60156C186.98 4.81368 186.825 5.08381 186.825 5.41193C186.825 5.7036 186.932 5.93395 187.144 6.10298C187.356 6.27202 187.687 6.41288 188.138 6.52557L189.271 6.80398C189.954 6.9697 190.463 7.22325 190.798 7.56463C191.133 7.9027 191.3 8.33854 191.3 8.87216C191.3 9.30966 191.174 9.70076 190.922 10.0455C190.673 10.3902 190.325 10.6619 189.878 10.8608C189.431 11.0597 188.91 11.1591 188.317 11.1591C187.538 11.1591 186.893 10.9901 186.383 10.652C185.873 10.3139 185.549 9.82008 185.414 9.17045L186.527 8.89205C186.633 9.30303 186.834 9.61127 187.129 9.81676C187.427 10.0223 187.816 10.125 188.297 10.125C188.844 10.125 189.278 10.009 189.6 9.77699C189.924 9.54167 190.087 9.25994 190.087 8.93182C190.087 8.66667 189.994 8.4446 189.808 8.26562C189.623 8.08333 189.338 7.94744 188.953 7.85795L187.681 7.55966C186.981 7.39394 186.468 7.13707 186.139 6.78906C185.815 6.43774 185.652 5.99858 185.652 5.47159C185.652 5.04072 185.773 4.65956 186.015 4.32812C186.26 3.99669 186.593 3.73651 187.014 3.54758C187.439 3.35866 187.919 3.2642 188.456 3.2642C189.212 3.2642 189.805 3.42992 190.236 3.76136C190.67 4.0928 190.978 4.5303 191.161 5.07386ZM195.313 11.179C194.829 11.179 194.39 11.0878 193.996 10.9055C193.601 10.7199 193.288 10.4531 193.056 10.1051C192.824 9.75379 192.708 9.32955 192.708 8.83239C192.708 8.39489 192.794 8.04025 192.967 7.76847C193.139 7.49337 193.369 7.27794 193.658 7.12216C193.946 6.96638 194.264 6.85038 194.612 6.77415C194.964 6.6946 195.317 6.63163 195.671 6.58523C196.135 6.52557 196.511 6.48082 196.8 6.45099C197.091 6.41785 197.304 6.36316 197.436 6.28693C197.572 6.2107 197.64 6.07812 197.64 5.8892V5.84943C197.64 5.3589 197.506 4.97775 197.237 4.70597C196.972 4.43419 196.569 4.2983 196.029 4.2983C195.469 4.2983 195.03 4.42093 194.712 4.66619C194.393 4.91146 194.17 5.1733 194.04 5.4517L192.927 5.05398C193.126 4.58996 193.391 4.22869 193.722 3.97017C194.057 3.70833 194.422 3.52604 194.816 3.4233C195.214 3.31723 195.605 3.2642 195.989 3.2642C196.235 3.2642 196.516 3.29403 196.835 3.35369C197.156 3.41004 197.466 3.5277 197.764 3.70668C198.066 3.88565 198.316 4.15578 198.515 4.51705C198.714 4.87831 198.813 5.36222 198.813 5.96875V11H197.64V9.96591H197.58C197.501 10.1316 197.368 10.3089 197.183 10.4979C196.997 10.6868 196.75 10.8475 196.442 10.9801C196.134 11.1127 195.757 11.179 195.313 11.179ZM195.492 10.125C195.956 10.125 196.347 10.0339 196.665 9.85156C196.987 9.66927 197.229 9.43395 197.391 9.1456C197.557 8.85724 197.64 8.55398 197.64 8.2358V7.16193C197.59 7.22159 197.481 7.27628 197.312 7.32599C197.146 7.3724 196.954 7.41383 196.735 7.45028C196.52 7.48343 196.309 7.51326 196.104 7.53977C195.902 7.56297 195.737 7.58286 195.612 7.59943C195.307 7.6392 195.022 7.70384 194.756 7.79332C194.495 7.8795 194.282 8.01042 194.12 8.18608C193.961 8.35843 193.881 8.59375 193.881 8.89205C193.881 9.29972 194.032 9.60795 194.334 9.81676C194.639 10.0223 195.025 10.125 195.492 10.125ZM194.538 2.44886L193.623 2.40909C193.623 1.90199 193.767 1.48769 194.055 1.16619C194.347 0.841382 194.707 0.678977 195.134 0.678977C195.323 0.678977 195.491 0.712121 195.636 0.778408C195.782 0.841382 195.921 0.914299 196.054 0.997158C196.187 1.08002 196.322 1.15459 196.462 1.22088C196.604 1.28385 196.765 1.31534 196.944 1.31534C197.133 1.31534 197.292 1.24242 197.421 1.09659C197.554 0.947443 197.62 0.768465 197.62 0.559658L198.515 0.639205C198.515 1.15625 198.369 1.56723 198.077 1.87216C197.789 2.17708 197.431 2.32955 197.004 2.32955C196.775 2.32955 196.586 2.29806 196.437 2.23508C196.288 2.1688 196.155 2.09422 196.039 2.01136C195.923 1.9285 195.8 1.85559 195.671 1.79261C195.542 1.72633 195.383 1.69318 195.194 1.69318C195.005 1.69318 194.848 1.76776 194.722 1.9169C194.599 2.06274 194.538 2.24006 194.538 2.44886ZM204.057 11.1591C203.368 11.1591 202.763 10.995 202.242 10.6669C201.725 10.3388 201.321 9.87973 201.029 9.28977C200.741 8.69981 200.597 8.01042 200.597 7.22159C200.597 6.42614 200.741 5.73177 201.029 5.13849C201.321 4.54522 201.725 4.08452 202.242 3.75639C202.763 3.42827 203.368 3.2642 204.057 3.2642C204.746 3.2642 205.35 3.42827 205.867 3.75639C206.387 4.08452 206.791 4.54522 207.08 5.13849C207.371 5.73177 207.517 6.42614 207.517 7.22159C207.517 8.01042 207.371 8.69981 207.08 9.28977C206.791 9.87973 206.387 10.3388 205.867 10.6669C205.35 10.995 204.746 11.1591 204.057 11.1591ZM204.057 10.1051C204.581 10.1051 205.012 9.97088 205.35 9.70241C205.688 9.43395 205.938 9.08097 206.1 8.64347C206.263 8.20597 206.344 7.73201 206.344 7.22159C206.344 6.71117 206.263 6.23556 206.1 5.79474C205.938 5.35393 205.688 4.99763 205.35 4.72585C205.012 4.45407 204.581 4.31818 204.057 4.31818C203.533 4.31818 203.102 4.45407 202.764 4.72585C202.426 4.99763 202.176 5.35393 202.014 5.79474C201.851 6.23556 201.77 6.71117 201.77 7.22159C201.77 7.73201 201.851 8.20597 202.014 8.64347C202.176 9.08097 202.426 9.43395 202.764 9.70241C203.102 9.97088 203.533 10.1051 204.057 10.1051ZM216.447 11.1591C215.712 11.1591 215.077 10.9967 214.543 10.6719C214.013 10.3438 213.604 9.88636 213.315 9.29972C213.03 8.70975 212.888 8.02367 212.888 7.24148C212.888 6.45928 213.03 5.76989 213.315 5.1733C213.604 4.57339 214.005 4.10606 214.518 3.77131C215.036 3.43324 215.639 3.2642 216.328 3.2642C216.726 3.2642 217.119 3.33049 217.506 3.46307C217.894 3.59564 218.247 3.81108 218.565 4.10938C218.884 4.40436 219.137 4.79545 219.326 5.28267C219.515 5.76989 219.609 6.36979 219.609 7.08239V7.57955H213.723V6.56534H218.416C218.416 6.13447 218.33 5.75 218.158 5.41193C217.989 5.07386 217.747 4.80705 217.432 4.61151C217.12 4.41596 216.752 4.31818 216.328 4.31818C215.861 4.31818 215.456 4.43419 215.115 4.66619C214.777 4.89489 214.517 5.19318 214.335 5.56108C214.152 5.92898 214.061 6.32339 214.061 6.74432V7.42045C214.061 7.99716 214.161 8.48603 214.359 8.88707C214.562 9.2848 214.842 9.58807 215.2 9.79688C215.558 10.0024 215.973 10.1051 216.447 10.1051C216.756 10.1051 217.034 10.062 217.283 9.97585C217.535 9.88636 217.752 9.75379 217.934 9.57812C218.116 9.39915 218.257 9.17708 218.357 8.91193L219.49 9.23011C219.371 9.61458 219.17 9.95265 218.888 10.2443C218.607 10.5327 218.259 10.758 217.844 10.9205C217.43 11.0795 216.964 11.1591 216.447 11.1591ZM230.741 5.07386L229.687 5.37216C229.621 5.1965 229.523 5.0258 229.393 4.86009C229.268 4.69105 229.095 4.55185 228.876 4.44247C228.658 4.3331 228.378 4.27841 228.036 4.27841C227.569 4.27841 227.179 4.38613 226.868 4.60156C226.56 4.81368 226.406 5.08381 226.406 5.41193C226.406 5.7036 226.512 5.93395 226.724 6.10298C226.936 6.27202 227.267 6.41288 227.718 6.52557L228.852 6.80398C229.534 6.9697 230.043 7.22325 230.378 7.56463C230.713 7.9027 230.88 8.33854 230.88 8.87216C230.88 9.30966 230.754 9.70076 230.502 10.0455C230.254 10.3902 229.906 10.6619 229.458 10.8608C229.011 11.0597 228.49 11.1591 227.897 11.1591C227.118 11.1591 226.473 10.9901 225.963 10.652C225.453 10.3139 225.129 9.82008 224.994 9.17045L226.107 8.89205C226.213 9.30303 226.414 9.61127 226.709 9.81676C227.007 10.0223 227.397 10.125 227.877 10.125C228.424 10.125 228.858 10.009 229.18 9.77699C229.504 9.54167 229.667 9.25994 229.667 8.93182C229.667 8.66667 229.574 8.4446 229.388 8.26562C229.203 8.08333 228.918 7.94744 228.533 7.85795L227.261 7.55966C226.561 7.39394 226.048 7.13707 225.719 6.78906C225.395 6.43774 225.232 5.99858 225.232 5.47159C225.232 5.04072 225.353 4.65956 225.595 4.32812C225.84 3.99669 226.174 3.73651 226.594 3.54758C227.019 3.35866 227.499 3.2642 228.036 3.2642C228.792 3.2642 229.385 3.42992 229.816 3.76136C230.25 4.0928 230.558 4.5303 230.741 5.07386ZM235.848 11.1591C235.112 11.1591 234.477 10.9967 233.944 10.6719C233.413 10.3438 233.004 9.88636 232.716 9.29972C232.431 8.70975 232.288 8.02367 232.288 7.24148C232.288 6.45928 232.431 5.76989 232.716 5.1733C233.004 4.57339 233.405 4.10606 233.919 3.77131C234.436 3.43324 235.039 3.2642 235.729 3.2642C236.126 3.2642 236.519 3.33049 236.907 3.46307C237.295 3.59564 237.648 3.81108 237.966 4.10938C238.284 4.40436 238.537 4.79545 238.726 5.28267C238.915 5.76989 239.01 6.36979 239.01 7.08239V7.57955H233.123V6.56534H237.817C237.817 6.13447 237.73 5.75 237.558 5.41193C237.389 5.07386 237.147 4.80705 236.832 4.61151C236.521 4.41596 236.153 4.31818 235.729 4.31818C235.261 4.31818 234.857 4.43419 234.515 4.66619C234.177 4.89489 233.917 5.19318 233.735 5.56108C233.553 5.92898 233.461 6.32339 233.461 6.74432V7.42045C233.461 7.99716 233.561 8.48603 233.76 8.88707C233.962 9.2848 234.242 9.58807 234.6 9.79688C234.958 10.0024 235.374 10.1051 235.848 10.1051C236.156 10.1051 236.434 10.062 236.683 9.97585C236.935 9.88636 237.152 9.75379 237.334 9.57812C237.517 9.39915 237.657 9.17708 237.757 8.91193L238.89 9.23011C238.771 9.61458 238.571 9.95265 238.289 10.2443C238.007 10.5327 237.659 10.758 237.245 10.9205C236.831 11.0795 236.365 11.1591 235.848 11.1591ZM243.877 14.0227C243.31 14.0227 242.823 13.9498 242.415 13.804C242.008 13.6615 241.668 13.4725 241.396 13.2372C241.128 13.0052 240.914 12.7566 240.755 12.4915L241.689 11.8352C241.796 11.9744 241.93 12.1335 242.092 12.3125C242.255 12.4948 242.477 12.6522 242.758 12.7848C243.043 12.9207 243.416 12.9886 243.877 12.9886C244.493 12.9886 245.002 12.8395 245.403 12.5412C245.804 12.2429 246.005 11.7756 246.005 11.1392V9.58807H245.905C245.819 9.72727 245.697 9.89962 245.537 10.1051C245.382 10.3073 245.156 10.4879 244.861 10.647C244.57 10.8028 244.175 10.8807 243.678 10.8807C243.062 10.8807 242.508 10.7348 242.018 10.4432C241.53 10.1515 241.144 9.72727 240.859 9.17045C240.577 8.61364 240.437 7.9375 240.437 7.14205C240.437 6.35985 240.574 5.67874 240.849 5.09872C241.124 4.51539 241.507 4.06463 241.998 3.74645C242.488 3.42495 243.055 3.2642 243.698 3.2642C244.195 3.2642 244.59 3.34706 244.881 3.51278C245.176 3.67519 245.402 3.8608 245.557 4.0696C245.716 4.27509 245.839 4.44413 245.925 4.5767H246.045V3.36364H247.178V11.2188C247.178 11.875 247.029 12.4086 246.731 12.8196C246.436 13.2339 246.038 13.5372 245.537 13.7294C245.04 13.925 244.487 14.0227 243.877 14.0227ZM243.837 9.8267C244.308 9.8267 244.706 9.71899 245.03 9.50355C245.355 9.28812 245.602 8.97822 245.771 8.57386C245.94 8.16951 246.025 7.68561 246.025 7.12216C246.025 6.57197 245.942 6.08641 245.776 5.66548C245.61 5.24455 245.365 4.91477 245.04 4.67614C244.715 4.4375 244.314 4.31818 243.837 4.31818C243.34 4.31818 242.926 4.44413 242.594 4.69602C242.266 4.94792 242.019 5.28598 241.854 5.71023C241.691 6.13447 241.61 6.60511 241.61 7.12216C241.61 7.65246 241.693 8.12145 241.858 8.52912C242.028 8.93348 242.276 9.25166 242.604 9.48366C242.936 9.71236 243.347 9.8267 243.837 9.8267ZM254.138 7.87784V3.36364H255.312V11H254.138V9.70739H254.059C253.88 10.0952 253.601 10.425 253.224 10.6967C252.846 10.9652 252.368 11.0994 251.792 11.0994C251.314 11.0994 250.89 10.995 250.519 10.7862C250.148 10.5741 249.856 10.2559 249.644 9.83168C249.432 9.40412 249.326 8.86553 249.326 8.21591V3.36364H250.499V8.13636C250.499 8.69318 250.655 9.13731 250.966 9.46875C251.281 9.80019 251.682 9.96591 252.17 9.96591C252.461 9.96591 252.758 9.89134 253.059 9.74219C253.364 9.59304 253.62 9.36435 253.825 9.05611C254.034 8.74787 254.138 8.35511 254.138 7.87784ZM257.461 11V3.36364H258.594V4.51705H258.674C258.813 4.1392 259.065 3.83262 259.429 3.5973C259.794 3.36198 260.205 3.24432 260.662 3.24432C260.748 3.24432 260.856 3.24597 260.985 3.24929C261.115 3.2526 261.212 3.25758 261.279 3.2642V4.45739C261.239 4.44744 261.148 4.43253 261.005 4.41264C260.866 4.38944 260.719 4.37784 260.563 4.37784C260.192 4.37784 259.86 4.45573 259.569 4.61151C259.28 4.76397 259.051 4.97609 258.882 5.24787C258.717 5.51634 258.634 5.82292 258.634 6.16761V11H257.461ZM264.917 11.179C264.433 11.179 263.994 11.0878 263.599 10.9055C263.205 10.7199 262.892 10.4531 262.66 10.1051C262.428 9.75379 262.312 9.32955 262.312 8.83239C262.312 8.39489 262.398 8.04025 262.57 7.76847C262.742 7.49337 262.973 7.27794 263.261 7.12216C263.55 6.96638 263.868 6.85038 264.216 6.77415C264.567 6.6946 264.92 6.63163 265.275 6.58523C265.739 6.52557 266.115 6.48082 266.403 6.45099C266.695 6.41785 266.907 6.36316 267.04 6.28693C267.175 6.2107 267.243 6.07812 267.243 5.8892V5.84943C267.243 5.3589 267.109 4.97775 266.841 4.70597C266.576 4.43419 266.173 4.2983 265.633 4.2983C265.073 4.2983 264.633 4.42093 264.315 4.66619C263.997 4.91146 263.773 5.1733 263.644 5.4517L262.53 5.05398C262.729 4.58996 262.994 4.22869 263.326 3.97017C263.661 3.70833 264.025 3.52604 264.42 3.4233C264.817 3.31723 265.208 3.2642 265.593 3.2642C265.838 3.2642 266.12 3.29403 266.438 3.35369C266.76 3.41004 267.069 3.5277 267.368 3.70668C267.669 3.88565 267.92 4.15578 268.118 4.51705C268.317 4.87831 268.417 5.36222 268.417 5.96875V11H267.243V9.96591H267.184C267.104 10.1316 266.972 10.3089 266.786 10.4979C266.6 10.6868 266.354 10.8475 266.045 10.9801C265.737 11.1127 265.361 11.179 264.917 11.179ZM265.096 10.125C265.56 10.125 265.951 10.0339 266.269 9.85156C266.59 9.66927 266.832 9.43395 266.995 9.1456C267.161 8.85724 267.243 8.55398 267.243 8.2358V7.16193C267.194 7.22159 267.084 7.27628 266.915 7.32599C266.75 7.3724 266.557 7.41383 266.339 7.45028C266.123 7.48343 265.913 7.51326 265.707 7.53977C265.505 7.56297 265.341 7.58286 265.215 7.59943C264.91 7.6392 264.625 7.70384 264.36 7.79332C264.098 7.8795 263.886 8.01042 263.724 8.18608C263.564 8.35843 263.485 8.59375 263.485 8.89205C263.485 9.29972 263.636 9.60795 263.937 9.81676C264.242 10.0223 264.628 10.125 265.096 10.125ZM271.732 6.40625V11H270.558V3.36364H271.692V4.55682H271.791C271.97 4.16903 272.242 3.85748 272.607 3.62216C272.971 3.38352 273.442 3.2642 274.018 3.2642C274.536 3.2642 274.988 3.37027 275.376 3.58239C275.763 3.79119 276.065 4.10938 276.281 4.53693C276.496 4.96117 276.604 5.49811 276.604 6.14773V11H275.43V6.22727C275.43 5.62737 275.275 5.16004 274.963 4.82528C274.652 4.48722 274.224 4.31818 273.68 4.31818C273.306 4.31818 272.971 4.39938 272.676 4.56179C272.384 4.72419 272.154 4.96117 271.985 5.27273C271.816 5.58428 271.732 5.96212 271.732 6.40625ZM281.85 11.1591C281.134 11.1591 280.518 10.9901 280.001 10.652C279.483 10.3139 279.086 9.84825 278.807 9.25497C278.529 8.66169 278.39 7.9839 278.39 7.22159C278.39 6.44602 278.532 5.7616 278.817 5.16832C279.106 4.57173 279.507 4.10606 280.02 3.77131C280.537 3.43324 281.141 3.2642 281.83 3.2642C282.367 3.2642 282.851 3.36364 283.282 3.5625C283.713 3.76136 284.066 4.03977 284.341 4.39773C284.616 4.75568 284.787 5.1733 284.853 5.65057H283.68C283.59 5.30256 283.391 4.99432 283.083 4.72585C282.778 4.45407 282.367 4.31818 281.85 4.31818C281.393 4.31818 280.992 4.4375 280.647 4.67614C280.305 4.91146 280.039 5.24455 279.846 5.67543C279.657 6.10298 279.563 6.60511 279.563 7.18182C279.563 7.77178 279.656 8.28551 279.841 8.72301C280.03 9.16051 280.296 9.50024 280.637 9.74219C280.982 9.98414 281.386 10.1051 281.85 10.1051C282.155 10.1051 282.432 10.0521 282.68 9.94602C282.929 9.83996 283.139 9.6875 283.312 9.48864C283.484 9.28977 283.607 9.05114 283.68 8.77273H284.853C284.787 9.22348 284.622 9.6295 284.361 9.99077C284.102 10.3487 283.759 10.6338 283.331 10.8459C282.907 11.0547 282.413 11.1591 281.85 11.1591ZM281.293 10.9602H282.268L282.188 11.358C282.447 11.3977 282.684 11.5054 282.899 11.6811C283.114 11.8601 283.222 12.1435 283.222 12.5312C283.222 12.9588 283.045 13.3068 282.69 13.5753C282.339 13.8471 281.82 13.983 281.134 13.983L281.094 13.2074C281.403 13.2074 281.658 13.1577 281.86 13.0582C282.065 12.9621 282.168 12.7997 282.168 12.571C282.168 12.3423 282.084 12.1866 281.915 12.1037C281.746 12.0208 281.472 11.9645 281.094 11.9347L281.293 10.9602ZM288.815 11.179C288.331 11.179 287.892 11.0878 287.498 10.9055C287.103 10.7199 286.79 10.4531 286.558 10.1051C286.326 9.75379 286.21 9.32955 286.21 8.83239C286.21 8.39489 286.296 8.04025 286.469 7.76847C286.641 7.49337 286.871 7.27794 287.16 7.12216C287.448 6.96638 287.766 6.85038 288.114 6.77415C288.465 6.6946 288.818 6.63163 289.173 6.58523C289.637 6.52557 290.013 6.48082 290.302 6.45099C290.593 6.41785 290.805 6.36316 290.938 6.28693C291.074 6.2107 291.142 6.07812 291.142 5.8892V5.84943C291.142 5.3589 291.008 4.97775 290.739 4.70597C290.474 4.43419 290.071 4.2983 289.531 4.2983C288.971 4.2983 288.532 4.42093 288.214 4.66619C287.895 4.91146 287.672 5.1733 287.542 5.4517L286.429 5.05398C286.628 4.58996 286.893 4.22869 287.224 3.97017C287.559 3.70833 287.924 3.52604 288.318 3.4233C288.716 3.31723 289.107 3.2642 289.491 3.2642C289.737 3.2642 290.018 3.29403 290.336 3.35369C290.658 3.41004 290.968 3.5277 291.266 3.70668C291.568 3.88565 291.818 4.15578 292.017 4.51705C292.216 4.87831 292.315 5.36222 292.315 5.96875V11H291.142V9.96591H291.082C291.003 10.1316 290.87 10.3089 290.684 10.4979C290.499 10.6868 290.252 10.8475 289.944 10.9801C289.635 11.1127 289.259 11.179 288.815 11.179ZM288.994 10.125C289.458 10.125 289.849 10.0339 290.167 9.85156C290.489 9.66927 290.731 9.43395 290.893 9.1456C291.059 8.85724 291.142 8.55398 291.142 8.2358V7.16193C291.092 7.22159 290.983 7.27628 290.814 7.32599C290.648 7.3724 290.456 7.41383 290.237 7.45028C290.022 7.48343 289.811 7.51326 289.606 7.53977C289.403 7.56297 289.239 7.58286 289.113 7.59943C288.809 7.6392 288.523 7.70384 288.258 7.79332C287.997 7.8795 287.784 8.01042 287.622 8.18608C287.463 8.35843 287.383 8.59375 287.383 8.89205C287.383 9.29972 287.534 9.60795 287.836 9.81676C288.141 10.0223 288.527 10.125 288.994 10.125ZM295.312 11.0795C295.067 11.0795 294.856 10.9917 294.68 10.8161C294.505 10.6404 294.417 10.4299 294.417 10.1847C294.417 9.93939 294.505 9.72893 294.68 9.55327C294.856 9.3776 295.067 9.28977 295.312 9.28977C295.557 9.28977 295.768 9.3776 295.943 9.55327C296.119 9.72893 296.207 9.93939 296.207 10.1847C296.207 10.3471 296.165 10.4962 296.082 10.6321C296.003 10.768 295.895 10.8774 295.759 10.9602C295.627 11.0398 295.478 11.0795 295.312 11.0795Z" fill="#374151"/>
</svg>
