<svg width="84" height="20" viewBox="0 0 84 20" fill="none" xmlns="http://www.w3.org/2000/svg">
<path d="M3.32386 1.54545H7.875L10.7472 13.2727H10.9517L17.6932 1.54545H22.2443L19.3466 19H15.767L17.6591 7.6392H17.5057L11.1307 18.9148H8.68466L6.05966 7.59659H5.91477L4.00568 19H0.426136L3.32386 1.54545ZM22.3189 19L24.5007 5.90909H28.1314L25.9496 19H22.3189ZM26.6911 4.20454C26.1513 4.20454 25.7053 4.02557 25.353 3.66761C25.0064 3.30398 24.8643 2.87216 24.9268 2.37216C24.9893 1.8608 25.2337 1.42898 25.6598 1.0767C26.0859 0.718749 26.5689 0.539772 27.1087 0.539772C27.6484 0.539772 28.0888 0.718749 28.4297 1.0767C28.7706 1.42898 28.9126 1.8608 28.8558 2.37216C28.799 2.87216 28.5575 3.30398 28.1314 3.66761C27.7109 4.02557 27.2308 4.20454 26.6911 4.20454ZM41.2926 9.64205L37.9943 9.84659C37.9773 9.55682 37.8977 9.2983 37.7557 9.07102C37.6193 8.83807 37.4176 8.65341 37.1506 8.51705C36.8892 8.38068 36.5597 8.3125 36.1619 8.3125C35.5653 8.3125 35.0341 8.44886 34.5682 8.72159C34.1023 8.99432 33.8381 9.34375 33.7756 9.76989C33.7244 10.0426 33.7955 10.2727 33.9886 10.4602C34.1818 10.6477 34.571 10.8068 35.1562 10.9375L37.4574 11.4148C38.6847 11.6761 39.571 12.1108 40.1165 12.7188C40.6676 13.3267 40.8636 14.1222 40.7045 15.1051C40.5625 15.9403 40.196 16.6705 39.6051 17.2955C39.0142 17.9148 38.2642 18.3977 37.3551 18.7443C36.446 19.0852 35.4375 19.2557 34.3295 19.2557C32.5511 19.2557 31.1989 18.892 30.2727 18.1648C29.3466 17.4375 28.9006 16.4517 28.9347 15.2074L32.4801 15.0199C32.5085 15.554 32.696 15.9574 33.0426 16.2301C33.3892 16.4972 33.8636 16.6335 34.4659 16.6392C35.142 16.6506 35.7159 16.5114 36.1875 16.2216C36.6648 15.9261 36.9347 15.5682 36.9972 15.1477C37.0426 14.8523 36.9574 14.6136 36.7415 14.4318C36.5313 14.25 36.1449 14.0994 35.5824 13.9801L33.4006 13.5284C32.1619 13.2727 31.2727 12.8153 30.733 12.1562C30.1932 11.4972 30.0085 10.6591 30.179 9.64205C30.3153 8.82955 30.6534 8.13352 31.1932 7.55398C31.7386 6.96875 32.4403 6.51989 33.2983 6.20739C34.1619 5.89489 35.1364 5.73864 36.2216 5.73864C37.9205 5.73864 39.1989 6.08807 40.0568 6.78693C40.9205 7.4858 41.3324 8.4375 41.2926 9.64205ZM54.7692 9.64205L51.4709 9.84659C51.4538 9.55682 51.3743 9.2983 51.2322 9.07102C51.0959 8.83807 50.8942 8.65341 50.6271 8.51705C50.3658 8.38068 50.0362 8.3125 49.6385 8.3125C49.0419 8.3125 48.5107 8.44886 48.0447 8.72159C47.5788 8.99432 47.3146 9.34375 47.2521 9.76989C47.201 10.0426 47.272 10.2727 47.4652 10.4602C47.6584 10.6477 48.0476 10.8068 48.6328 10.9375L50.9339 11.4148C52.1612 11.6761 53.0476 12.1108 53.593 12.7188C54.1442 13.3267 54.3402 14.1222 54.1811 15.1051C54.0391 15.9403 53.6726 16.6705 53.0817 17.2955C52.4908 17.9148 51.7408 18.3977 50.8317 18.7443C49.9226 19.0852 48.9141 19.2557 47.8061 19.2557C46.0277 19.2557 44.6754 18.892 43.7493 18.1648C42.8232 17.4375 42.3771 16.4517 42.4112 15.2074L45.9567 15.0199C45.9851 15.554 46.1726 15.9574 46.5192 16.2301C46.8658 16.4972 47.3402 16.6335 47.9425 16.6392C48.6186 16.6506 49.1925 16.5114 49.6641 16.2216C50.1413 15.9261 50.4112 15.5682 50.4737 15.1477C50.5192 14.8523 50.4339 14.6136 50.218 14.4318C50.0078 14.25 49.6214 14.0994 49.0589 13.9801L46.8771 13.5284C45.6385 13.2727 44.7493 12.8153 44.2095 12.1562C43.6697 11.4972 43.4851 10.6591 43.6555 9.64205C43.7919 8.82955 44.13 8.13352 44.6697 7.55398C45.2152 6.96875 45.9169 6.51989 46.7749 6.20739C47.6385 5.89489 48.6129 5.73864 49.6982 5.73864C51.397 5.73864 52.6754 6.08807 53.5334 6.78693C54.397 7.4858 54.8089 8.4375 54.7692 9.64205ZM59.5099 19.2472C58.6804 19.2472 57.9616 19.1023 57.3537 18.8125C56.7514 18.517 56.3082 18.0795 56.0241 17.5C55.7401 16.9205 55.669 16.2017 55.8111 15.3438C55.9361 14.6165 56.1719 14.0085 56.5185 13.5199C56.8707 13.0256 57.2997 12.6278 57.8054 12.3267C58.3111 12.0256 58.8707 11.7955 59.4844 11.6364C60.1037 11.4773 60.7429 11.3693 61.402 11.3125C62.1634 11.233 62.7827 11.1562 63.2599 11.0824C63.7429 11.0085 64.1037 10.9034 64.3423 10.767C64.581 10.625 64.7259 10.4148 64.777 10.1364V10.0852C64.8622 9.55114 64.7628 9.13636 64.4787 8.84091C64.2003 8.53977 63.7543 8.3892 63.1406 8.3892C62.4929 8.3892 61.9418 8.53125 61.4872 8.81534C61.0384 9.09943 60.7173 9.46023 60.5241 9.89773L57.2173 9.625C57.5128 8.82955 57.9588 8.14205 58.5554 7.5625C59.1577 6.97727 59.8821 6.52841 60.7287 6.21591C61.5753 5.89773 62.5241 5.73864 63.5753 5.73864C64.3026 5.73864 64.9815 5.82386 65.6122 5.99432C66.2486 6.16477 66.7969 6.42898 67.2571 6.78693C67.723 7.14489 68.0582 7.60511 68.2628 8.16761C68.473 8.72443 68.5156 9.39205 68.3906 10.1705L66.9162 19H63.473L63.7798 17.1847H63.6776C63.3991 17.5938 63.0582 17.9545 62.6548 18.267C62.2514 18.5739 61.7884 18.8153 61.2656 18.9915C60.7429 19.1619 60.1577 19.2472 59.5099 19.2472ZM60.9673 16.7415C61.4957 16.7415 61.9815 16.6364 62.4247 16.4261C62.8736 16.2102 63.2429 15.9205 63.5327 15.5568C63.8281 15.1932 64.0156 14.7812 64.0952 14.321L64.3168 12.9318C64.2031 13.0057 64.0384 13.071 63.8224 13.1278C63.6122 13.1847 63.3821 13.2386 63.1321 13.2898C62.8878 13.3352 62.6406 13.3778 62.3906 13.4176C62.1406 13.4517 61.9162 13.4858 61.7173 13.5199C61.2798 13.5824 60.8878 13.6818 60.5412 13.8182C60.1946 13.9545 59.9134 14.1392 59.6974 14.3722C59.4815 14.5994 59.348 14.8835 59.2969 15.2244C59.2173 15.7188 59.3338 16.0966 59.6463 16.358C59.9645 16.6136 60.4048 16.7415 60.9673 16.7415ZM61.4957 4.29829L59.4929 4.27273C59.669 3.1875 60.0696 2.35511 60.6946 1.77557C61.3253 1.19034 62.0298 0.897727 62.8082 0.897727C63.2003 0.897727 63.5298 0.963068 63.7969 1.09375C64.0639 1.22443 64.2997 1.37216 64.5043 1.53693C64.7088 1.7017 64.9077 1.84943 65.1009 1.98011C65.294 2.1108 65.5128 2.17614 65.7571 2.17614C66.081 2.17614 66.348 2.05398 66.5582 1.80966C66.7741 1.56534 66.9134 1.24716 66.9759 0.855114L68.9446 0.914772C68.7571 1.99432 68.348 2.82386 67.7173 3.40341C67.0866 3.97727 66.3849 4.26989 65.6122 4.28125C65.1918 4.28125 64.8509 4.21591 64.5895 4.08523C64.3281 3.95455 64.1037 3.80682 63.9162 3.64204C63.7287 3.47727 63.544 3.32955 63.3622 3.19886C63.1804 3.06818 62.9588 3.00284 62.6974 3.00284C62.402 3.00284 62.1435 3.11932 61.9219 3.35227C61.706 3.58523 61.5639 3.90057 61.4957 4.29829ZM75.6648 19.2557C74.3295 19.2557 73.2244 18.9716 72.3494 18.4034C71.4744 17.8295 70.858 17.0341 70.5 16.017C70.1477 14.9943 70.0824 13.804 70.304 12.446C70.5199 11.1051 70.9688 9.93182 71.6506 8.92614C72.3324 7.92045 73.1989 7.1392 74.25 6.58239C75.3011 6.01989 76.4858 5.73864 77.804 5.73864C79.1335 5.73864 80.2358 6.02557 81.1108 6.59943C81.9858 7.16761 82.6023 7.96307 82.9602 8.9858C83.3182 10.0085 83.3864 11.1989 83.1648 12.5568C82.9432 13.892 82.4886 15.0625 81.8011 16.0682C81.1136 17.0739 80.2472 17.858 79.2017 18.4205C78.1563 18.9773 76.9773 19.2557 75.6648 19.2557ZM76.0227 16.4432C76.6364 16.4432 77.179 16.2699 77.6506 15.9233C78.1278 15.571 78.5227 15.0937 78.8352 14.4915C79.1534 13.8835 79.375 13.196 79.5 12.429C79.625 11.6733 79.6335 11.0028 79.5256 10.4176C79.4176 9.8267 79.1903 9.3608 78.8438 9.01989C78.5028 8.67898 78.0341 8.50852 77.4375 8.50852C76.8239 8.50852 76.2784 8.68466 75.8011 9.03693C75.3239 9.38352 74.929 9.8608 74.6165 10.4688C74.304 11.0767 74.0852 11.767 73.9602 12.5398C73.8409 13.2898 73.8324 13.9602 73.9347 14.5511C74.0369 15.1364 74.2614 15.5994 74.608 15.9403C74.9545 16.2756 75.4261 16.4432 76.0227 16.4432Z" fill="#0B0F10"/>
</svg>
