<svg width="278" height="15" viewBox="0 0 278 15" fill="none" xmlns="http://www.w3.org/2000/svg">
<path d="M6.80114 3.36364C6.74148 2.85985 6.49953 2.46875 6.07528 2.19034C5.65104 1.91193 5.13068 1.77273 4.5142 1.77273C4.06345 1.77273 3.66903 1.84564 3.33097 1.99148C2.99621 2.13731 2.73438 2.33783 2.54545 2.59304C2.35985 2.84825 2.26705 3.13826 2.26705 3.46307C2.26705 3.73485 2.33168 3.96851 2.46094 4.16406C2.59351 4.3563 2.76255 4.51705 2.96804 4.64631C3.17353 4.77225 3.38897 4.87666 3.61435 4.95952C3.83973 5.03906 4.04688 5.10369 4.2358 5.15341L5.26989 5.43182C5.53504 5.50142 5.83002 5.59754 6.15483 5.72017C6.48295 5.8428 6.79616 6.01018 7.09446 6.2223C7.39607 6.43111 7.64465 6.69957 7.8402 7.0277C8.03575 7.35582 8.13352 7.75852 8.13352 8.2358C8.13352 8.78598 7.98935 9.28314 7.70099 9.72727C7.41596 10.1714 6.99834 10.5244 6.44815 10.7862C5.90128 11.0481 5.23674 11.179 4.45455 11.179C3.72538 11.179 3.09399 11.0613 2.56037 10.826C2.03007 10.5907 1.61245 10.2625 1.30753 9.84162C1.00592 9.42069 0.835227 8.93182 0.795455 8.375H2.06818C2.10133 8.75947 2.23059 9.07765 2.45597 9.32955C2.68466 9.57812 2.97301 9.76373 3.32102 9.88636C3.67235 10.0057 4.05019 10.0653 4.45455 10.0653C4.92519 10.0653 5.34777 9.98911 5.7223 9.83665C6.09683 9.68087 6.39347 9.46544 6.61222 9.19034C6.83097 8.91193 6.94034 8.58712 6.94034 8.21591C6.94034 7.87784 6.84588 7.60275 6.65696 7.39062C6.46804 7.1785 6.21946 7.00616 5.91122 6.87358C5.60298 6.741 5.26989 6.625 4.91193 6.52557L3.65909 6.16761C2.86364 5.93892 2.2339 5.61245 1.76989 5.18821C1.30587 4.76397 1.07386 4.20881 1.07386 3.52273C1.07386 2.95265 1.22798 2.45549 1.53622 2.03125C1.84777 1.60369 2.26539 1.27225 2.78906 1.03693C3.31605 0.798295 3.90436 0.678977 4.55398 0.678977C5.21023 0.678977 5.79356 0.796638 6.30398 1.03196C6.81439 1.26397 7.21875 1.58215 7.51705 1.98651C7.81866 2.39086 7.97775 2.8499 7.99432 3.36364H6.80114ZM13.2033 11.1591C12.4675 11.1591 11.8328 10.9967 11.2992 10.6719C10.7689 10.3438 10.3596 9.88636 10.0712 9.29972C9.78616 8.70975 9.64364 8.02367 9.64364 7.24148C9.64364 6.45928 9.78616 5.76989 10.0712 5.1733C10.3596 4.57339 10.7606 4.10606 11.2743 3.77131C11.7914 3.43324 12.3946 3.2642 13.084 3.2642C13.4817 3.2642 13.8745 3.33049 14.2623 3.46307C14.65 3.59564 15.003 3.81108 15.3212 4.10938C15.6394 4.40436 15.8929 4.79545 16.0819 5.28267C16.2708 5.76989 16.3652 6.36979 16.3652 7.08239V7.57955H10.4789V6.56534H15.1721C15.1721 6.13447 15.0859 5.75 14.9135 5.41193C14.7445 5.07386 14.5025 4.80705 14.1877 4.61151C13.8761 4.41596 13.5082 4.31818 13.084 4.31818C12.6167 4.31818 12.2123 4.43419 11.8709 4.66619C11.5328 4.89489 11.2727 5.19318 11.0904 5.56108C10.9081 5.92898 10.8169 6.32339 10.8169 6.74432V7.42045C10.8169 7.99716 10.9164 8.48603 11.1152 8.88707C11.3174 9.2848 11.5975 9.58807 11.9554 9.79688C12.3134 10.0024 12.7293 10.1051 13.2033 10.1051C13.5115 10.1051 13.79 10.062 14.0385 9.97585C14.2904 9.88636 14.5075 9.75379 14.6898 9.57812C14.8721 9.39915 15.013 9.17708 15.1124 8.91193L16.2459 9.23011C16.1266 9.61458 15.9261 9.95265 15.6444 10.2443C15.3626 10.5327 15.0146 10.758 14.6003 10.9205C14.186 11.0795 13.7203 11.1591 13.2033 11.1591ZM18.15 11V3.36364H19.2836V4.51705H19.3631C19.5023 4.1392 19.7542 3.83262 20.1188 3.5973C20.4834 3.36198 20.8944 3.24432 21.3517 3.24432C21.4379 3.24432 21.5456 3.24597 21.6749 3.24929C21.8042 3.2526 21.9019 3.25758 21.9682 3.2642V4.45739C21.9284 4.44744 21.8373 4.43253 21.6948 4.41264C21.5556 4.38944 21.4081 4.37784 21.2523 4.37784C20.8811 4.37784 20.5497 4.45573 20.258 4.61151C19.9696 4.76397 19.7409 4.97609 19.5719 5.24787C19.4062 5.51634 19.3233 5.82292 19.3233 6.16761V11H18.15ZM29.5437 11.179C29.0598 11.179 28.6206 11.0878 28.2262 10.9055C27.8318 10.7199 27.5186 10.4531 27.2866 10.1051C27.0546 9.75379 26.9386 9.32955 26.9386 8.83239C26.9386 8.39489 27.0247 8.04025 27.1971 7.76847C27.3694 7.49337 27.5998 7.27794 27.8881 7.12216C28.1765 6.96638 28.4947 6.85038 28.8427 6.77415C29.194 6.6946 29.547 6.63163 29.9016 6.58523C30.3656 6.52557 30.7418 6.48082 31.0302 6.45099C31.3219 6.41785 31.534 6.36316 31.6665 6.28693C31.8024 6.2107 31.8704 6.07812 31.8704 5.8892V5.84943C31.8704 5.3589 31.7362 4.97775 31.4677 4.70597C31.2025 4.43419 30.7998 4.2983 30.2596 4.2983C29.6995 4.2983 29.2603 4.42093 28.9421 4.66619C28.6239 4.91146 28.4002 5.1733 28.271 5.4517L27.1573 5.05398C27.3562 4.58996 27.6213 4.22869 27.9528 3.97017C28.2875 3.70833 28.6521 3.52604 29.0465 3.4233C29.4442 3.31723 29.8353 3.2642 30.2198 3.2642C30.4651 3.2642 30.7468 3.29403 31.065 3.35369C31.3865 3.41004 31.6964 3.5277 31.9947 3.70668C32.2963 3.88565 32.5465 4.15578 32.7454 4.51705C32.9442 4.87831 33.0437 5.36222 33.0437 5.96875V11H31.8704V9.96591H31.8107C31.7312 10.1316 31.5986 10.3089 31.413 10.4979C31.2274 10.6868 30.9805 10.8475 30.6722 10.9801C30.364 11.1127 29.9878 11.179 29.5437 11.179ZM29.7227 10.125C30.1867 10.125 30.5778 10.0339 30.896 9.85156C31.2174 9.66927 31.4594 9.43395 31.6218 9.1456C31.7875 8.85724 31.8704 8.55398 31.8704 8.2358V7.16193C31.8207 7.22159 31.7113 7.27628 31.5423 7.32599C31.3765 7.3724 31.1843 7.41383 30.9656 7.45028C30.7501 7.48343 30.5397 7.51326 30.3342 7.53977C30.132 7.56297 29.9679 7.58286 29.842 7.59943C29.5371 7.6392 29.252 7.70384 28.9869 7.79332C28.725 7.8795 28.5129 8.01042 28.3505 8.18608C28.1914 8.35843 28.1119 8.59375 28.1119 8.89205C28.1119 9.29972 28.2627 9.60795 28.5643 9.81676C28.8692 10.0223 29.2553 10.125 29.7227 10.125ZM45.367 3.36364L42.5431 11H41.35L38.5261 3.36364H39.7988L41.9068 9.44886H41.9863L44.0943 3.36364H45.367ZM46.9157 11V3.36364H48.089V11H46.9157ZM47.5123 2.09091C47.2836 2.09091 47.0864 2.01302 46.9206 1.85724C46.7582 1.70147 46.677 1.5142 46.677 1.29545C46.677 1.0767 46.7582 0.889441 46.9206 0.733664C47.0864 0.577888 47.2836 0.5 47.5123 0.5C47.7409 0.5 47.9365 0.577888 48.0989 0.733664C48.2646 0.889441 48.3475 1.0767 48.3475 1.29545C48.3475 1.5142 48.2646 1.70147 48.0989 1.85724C47.9365 2.01302 47.7409 2.09091 47.5123 2.09091ZM53.5589 3.36364V4.35795H49.6016V3.36364H53.5589ZM50.755 1.53409H51.9283V8.8125C51.9283 9.14394 51.9763 9.39252 52.0724 9.55824C52.1719 9.72064 52.2978 9.83002 52.4503 9.88636C52.6061 9.93939 52.7701 9.96591 52.9425 9.96591C53.0717 9.96591 53.1778 9.95928 53.2607 9.94602C53.3435 9.92945 53.4098 9.91619 53.4595 9.90625L53.6982 10.9602C53.6186 10.9901 53.5076 11.0199 53.3651 11.0497C53.2225 11.0829 53.0419 11.0994 52.8232 11.0994C52.4917 11.0994 52.1669 11.0282 51.8487 10.8857C51.5339 10.7431 51.272 10.526 51.0632 10.2344C50.8577 9.94271 50.755 9.57481 50.755 9.13068V1.53409ZM55.3239 11V3.36364H56.4574V4.51705H56.5369C56.6761 4.1392 56.928 3.83262 57.2926 3.5973C57.6572 3.36198 58.0682 3.24432 58.5256 3.24432C58.6117 3.24432 58.7195 3.24597 58.8487 3.24929C58.978 3.2526 59.0758 3.25758 59.142 3.2642V4.45739C59.1023 4.44744 59.0111 4.43253 58.8686 4.41264C58.7294 4.38944 58.5819 4.37784 58.4261 4.37784C58.0549 4.37784 57.7235 4.45573 57.4318 4.61151C57.1435 4.76397 56.9148 4.97609 56.7457 5.24787C56.58 5.51634 56.4972 5.82292 56.4972 6.16761V11H55.3239ZM60.5328 11V3.36364H61.7061V11H60.5328ZM61.1294 2.09091C60.9007 2.09091 60.7035 2.01302 60.5378 1.85724C60.3754 1.70147 60.2942 1.5142 60.2942 1.29545C60.2942 1.0767 60.3754 0.889441 60.5378 0.733664C60.7035 0.577888 60.9007 0.5 61.1294 0.5C61.3581 0.5 61.5537 0.577888 61.7161 0.733664C61.8818 0.889441 61.9647 1.0767 61.9647 1.29545C61.9647 1.5142 61.8818 1.70147 61.7161 1.85724C61.5537 2.01302 61.3581 2.09091 61.1294 2.09091ZM65.0284 6.40625V11H63.8551V3.36364H64.9886V4.55682H65.0881C65.267 4.16903 65.5388 3.85748 65.9034 3.62216C66.268 3.38352 66.7386 3.2642 67.3153 3.2642C67.8324 3.2642 68.2848 3.37027 68.6726 3.58239C69.0604 3.79119 69.362 4.10938 69.5774 4.53693C69.7929 4.96117 69.9006 5.49811 69.9006 6.14773V11H68.7273V6.22727C68.7273 5.62737 68.5715 5.16004 68.2599 4.82528C67.9484 4.48722 67.5208 4.31818 66.9773 4.31818C66.6027 4.31818 66.268 4.39938 65.973 4.56179C65.6813 4.72419 65.451 4.96117 65.282 5.27273C65.1129 5.58428 65.0284 5.96212 65.0284 6.40625ZM75.2463 11.1591C74.5105 11.1591 73.8758 10.9967 73.3422 10.6719C72.8118 10.3438 72.4025 9.88636 72.1142 9.29972C71.8291 8.70975 71.6866 8.02367 71.6866 7.24148C71.6866 6.45928 71.8291 5.76989 72.1142 5.1733C72.4025 4.57339 72.8036 4.10606 73.3173 3.77131C73.8343 3.43324 74.4376 3.2642 75.127 3.2642C75.5247 3.2642 75.9174 3.33049 76.3052 3.46307C76.693 3.59564 77.046 3.81108 77.3642 4.10938C77.6824 4.40436 77.9359 4.79545 78.1248 5.28267C78.3137 5.76989 78.4082 6.36979 78.4082 7.08239V7.57955H72.5218V6.56534H77.215C77.215 6.13447 77.1288 5.75 76.9565 5.41193C76.7875 5.07386 76.5455 4.80705 76.2306 4.61151C75.9191 4.41596 75.5512 4.31818 75.127 4.31818C74.6596 4.31818 74.2553 4.43419 73.9139 4.66619C73.5758 4.89489 73.3156 5.19318 73.1333 5.56108C72.9511 5.92898 72.8599 6.32339 72.8599 6.74432V7.42045C72.8599 7.99716 72.9593 8.48603 73.1582 8.88707C73.3604 9.2848 73.6404 9.58807 73.9984 9.79688C74.3564 10.0024 74.7723 10.1051 75.2463 10.1051C75.5545 10.1051 75.8329 10.062 76.0815 9.97585C76.3334 9.88636 76.5505 9.75379 76.7328 9.57812C76.9151 9.39915 77.0559 9.17708 77.1554 8.91193L78.2889 9.23011C78.1696 9.61458 77.969 9.95265 77.6873 10.2443C77.4056 10.5327 77.0576 10.758 76.6433 10.9205C76.229 11.0795 75.7633 11.1591 75.2463 11.1591ZM87.014 11.1591C86.3777 11.1591 85.8159 10.9983 85.3287 10.6768C84.8414 10.352 84.4603 9.89465 84.1852 9.30469C83.9101 8.71141 83.7725 8.01042 83.7725 7.2017C83.7725 6.39962 83.9101 5.7036 84.1852 5.11364C84.4603 4.52367 84.8431 4.06794 85.3336 3.74645C85.8242 3.42495 86.3909 3.2642 87.0339 3.2642C87.5311 3.2642 87.9238 3.34706 88.2122 3.51278C88.5038 3.67519 88.7259 3.8608 88.8784 4.0696C89.0342 4.27509 89.1551 4.44413 89.2413 4.5767H89.3407V0.818182H90.514V11H89.3805V9.8267H89.2413C89.1551 9.96591 89.0325 10.1416 88.8734 10.3537C88.7143 10.5625 88.4873 10.7498 88.1923 10.9155C87.8973 11.0779 87.5046 11.1591 87.014 11.1591ZM87.1731 10.1051C87.6438 10.1051 88.0415 9.98248 88.3663 9.73722C88.6911 9.48864 88.938 9.1456 89.1071 8.7081C89.2761 8.26728 89.3606 7.75852 89.3606 7.18182C89.3606 6.61174 89.2778 6.11293 89.112 5.68537C88.9463 5.2545 88.7011 4.91974 88.3762 4.68111C88.0514 4.43916 87.6504 4.31818 87.1731 4.31818C86.676 4.31818 86.2617 4.44579 85.9302 4.70099C85.6021 4.95289 85.3552 5.29593 85.1895 5.73011C85.027 6.16098 84.9458 6.64489 84.9458 7.18182C84.9458 7.72538 85.0287 8.21922 85.1944 8.66335C85.3635 9.10417 85.612 9.45549 85.9402 9.71733C86.2716 9.97585 86.6826 10.1051 87.1731 10.1051ZM92.8258 11V3.36364H93.9991V11H92.8258ZM93.4224 2.09091C93.1937 2.09091 92.9965 2.01302 92.8308 1.85724C92.6684 1.70147 92.5872 1.5142 92.5872 1.29545C92.5872 1.0767 92.6684 0.889441 92.8308 0.733664C92.9965 0.577888 93.1937 0.5 93.4224 0.5C93.6511 0.5 93.8467 0.577888 94.0091 0.733664C94.1748 0.889441 94.2576 1.0767 94.2576 1.29545C94.2576 1.5142 94.1748 1.70147 94.0091 1.85724C93.8467 2.01302 93.6511 2.09091 93.4224 2.09091ZM99.2305 14.0227C98.6637 14.0227 98.1765 13.9498 97.7688 13.804C97.3612 13.6615 97.0214 13.4725 96.7496 13.2372C96.4812 13.0052 96.2674 12.7566 96.1083 12.4915L97.043 11.8352C97.149 11.9744 97.2833 12.1335 97.4457 12.3125C97.6081 12.4948 97.8301 12.6522 98.1119 12.7848C98.3969 12.9207 98.7698 12.9886 99.2305 12.9886C99.8469 12.9886 100.356 12.8395 100.757 12.5412C101.158 12.2429 101.358 11.7756 101.358 11.1392V9.58807H101.259C101.173 9.72727 101.05 9.89962 100.891 10.1051C100.735 10.3073 100.51 10.4879 100.215 10.647C99.9232 10.8028 99.5288 10.8807 99.0316 10.8807C98.4151 10.8807 97.8616 10.7348 97.3711 10.4432C96.8839 10.1515 96.4978 9.72727 96.2127 9.17045C95.931 8.61364 95.7901 7.9375 95.7901 7.14205C95.7901 6.35985 95.9277 5.67874 96.2028 5.09872C96.4779 4.51539 96.8607 4.06463 97.3512 3.74645C97.8417 3.42495 98.4085 3.2642 99.0515 3.2642C99.5487 3.2642 99.9431 3.34706 100.235 3.51278C100.53 3.67519 100.755 3.8608 100.911 4.0696C101.07 4.27509 101.193 4.44413 101.279 4.5767H101.398V3.36364H102.532V11.2188C102.532 11.875 102.382 12.4086 102.084 12.8196C101.789 13.2339 101.391 13.5372 100.891 13.7294C100.394 13.925 99.8403 14.0227 99.2305 14.0227ZM99.1907 9.8267C99.6613 9.8267 100.059 9.71899 100.384 9.50355C100.709 9.28812 100.956 8.97822 101.125 8.57386C101.294 8.16951 101.378 7.68561 101.378 7.12216C101.378 6.57197 101.295 6.08641 101.13 5.66548C100.964 5.24455 100.719 4.91477 100.394 4.67614C100.069 4.4375 99.668 4.31818 99.1907 4.31818C98.6935 4.31818 98.2792 4.44413 97.9478 4.69602C97.6197 4.94792 97.3728 5.28598 97.207 5.71023C97.0446 6.13447 96.9634 6.60511 96.9634 7.12216C96.9634 7.65246 97.0463 8.12145 97.212 8.52912C97.381 8.93348 97.6296 9.25166 97.9577 9.48366C98.2892 9.71236 98.7002 9.8267 99.1907 9.8267ZM104.679 11V3.36364H105.853V11H104.679ZM105.276 2.09091C105.047 2.09091 104.85 2.01302 104.684 1.85724C104.522 1.70147 104.441 1.5142 104.441 1.29545C104.441 1.0767 104.522 0.889441 104.684 0.733664C104.85 0.577888 105.047 0.5 105.276 0.5C105.505 0.5 105.7 0.577888 105.863 0.733664C106.028 0.889441 106.111 1.0767 106.111 1.29545C106.111 1.5142 106.028 1.70147 105.863 1.85724C105.7 2.01302 105.505 2.09091 105.276 2.09091ZM111.323 3.36364V4.35795H107.365V3.36364H111.323ZM108.519 1.53409H109.692V8.8125C109.692 9.14394 109.74 9.39252 109.836 9.55824C109.936 9.72064 110.061 9.83002 110.214 9.88636C110.37 9.93939 110.534 9.96591 110.706 9.96591C110.835 9.96591 110.941 9.95928 111.024 9.94602C111.107 9.92945 111.173 9.91619 111.223 9.90625L111.462 10.9602C111.382 10.9901 111.271 11.0199 111.129 11.0497C110.986 11.0829 110.806 11.0994 110.587 11.0994C110.255 11.0994 109.931 11.0282 109.612 10.8857C109.298 10.7431 109.036 10.526 108.827 10.2344C108.621 9.94271 108.519 9.57481 108.519 9.13068V1.53409ZM115.335 11.179C114.851 11.179 114.412 11.0878 114.017 10.9055C113.623 10.7199 113.31 10.4531 113.078 10.1051C112.846 9.75379 112.73 9.32955 112.73 8.83239C112.73 8.39489 112.816 8.04025 112.988 7.76847C113.16 7.49337 113.391 7.27794 113.679 7.12216C113.968 6.96638 114.286 6.85038 114.634 6.77415C114.985 6.6946 115.338 6.63163 115.693 6.58523C116.157 6.52557 116.533 6.48082 116.821 6.45099C117.113 6.41785 117.325 6.36316 117.458 6.28693C117.593 6.2107 117.661 6.07812 117.661 5.8892V5.84943C117.661 5.3589 117.527 4.97775 117.259 4.70597C116.994 4.43419 116.591 4.2983 116.051 4.2983C115.49 4.2983 115.051 4.42093 114.733 4.66619C114.415 4.91146 114.191 5.1733 114.062 5.4517L112.948 5.05398C113.147 4.58996 113.412 4.22869 113.744 3.97017C114.079 3.70833 114.443 3.52604 114.838 3.4233C115.235 3.31723 115.626 3.2642 116.011 3.2642C116.256 3.2642 116.538 3.29403 116.856 3.35369C117.177 3.41004 117.487 3.5277 117.786 3.70668C118.087 3.88565 118.338 4.15578 118.536 4.51705C118.735 4.87831 118.835 5.36222 118.835 5.96875V11H117.661V9.96591H117.602C117.522 10.1316 117.39 10.3089 117.204 10.4979C117.018 10.6868 116.771 10.8475 116.463 10.9801C116.155 11.1127 115.779 11.179 115.335 11.179ZM115.514 10.125C115.978 10.125 116.369 10.0339 116.687 9.85156C117.008 9.66927 117.25 9.43395 117.413 9.1456C117.579 8.85724 117.661 8.55398 117.661 8.2358V7.16193C117.612 7.22159 117.502 7.27628 117.333 7.32599C117.168 7.3724 116.975 7.41383 116.757 7.45028C116.541 7.48343 116.331 7.51326 116.125 7.53977C115.923 7.56297 115.759 7.58286 115.633 7.59943C115.328 7.6392 115.043 7.70384 114.778 7.79332C114.516 7.8795 114.304 8.01042 114.142 8.18608C113.982 8.35843 113.903 8.59375 113.903 8.89205C113.903 9.29972 114.054 9.60795 114.355 9.81676C114.66 10.0223 115.046 10.125 115.514 10.125ZM122.15 0.818182V11H120.976V0.818182H122.15ZM131.119 11.1591C130.483 11.1591 129.921 10.9983 129.434 10.6768C128.947 10.352 128.566 9.89465 128.291 9.30469C128.016 8.71141 127.878 8.01042 127.878 7.2017C127.878 6.39962 128.016 5.7036 128.291 5.11364C128.566 4.52367 128.949 4.06794 129.439 3.74645C129.93 3.42495 130.496 3.2642 131.139 3.2642C131.637 3.2642 132.029 3.34706 132.318 3.51278C132.609 3.67519 132.831 3.8608 132.984 4.0696C133.14 4.27509 133.261 4.44413 133.347 4.5767H133.446V0.818182H134.619V11H133.486V9.8267H133.347C133.261 9.96591 133.138 10.1416 132.979 10.3537C132.82 10.5625 132.593 10.7498 132.298 10.9155C132.003 11.0779 131.61 11.1591 131.119 11.1591ZM131.279 10.1051C131.749 10.1051 132.147 9.98248 132.472 9.73722C132.797 9.48864 133.044 9.1456 133.213 8.7081C133.382 8.26728 133.466 7.75852 133.466 7.18182C133.466 6.61174 133.383 6.11293 133.218 5.68537C133.052 5.2545 132.807 4.91974 132.482 4.68111C132.157 4.43916 131.756 4.31818 131.279 4.31818C130.781 4.31818 130.367 4.44579 130.036 4.70099C129.708 4.95289 129.461 5.29593 129.295 5.73011C129.133 6.16098 129.051 6.64489 129.051 7.18182C129.051 7.72538 129.134 8.21922 129.3 8.66335C129.469 9.10417 129.718 9.45549 130.046 9.71733C130.377 9.97585 130.788 10.1051 131.279 10.1051ZM140.133 11.1591C139.397 11.1591 138.762 10.9967 138.229 10.6719C137.699 10.3438 137.289 9.88636 137.001 9.29972C136.716 8.70975 136.573 8.02367 136.573 7.24148C136.573 6.45928 136.716 5.76989 137.001 5.1733C137.289 4.57339 137.69 4.10606 138.204 3.77131C138.721 3.43324 139.324 3.2642 140.014 3.2642C140.411 3.2642 140.804 3.33049 141.192 3.46307C141.58 3.59564 141.933 3.81108 142.251 4.10938C142.569 4.40436 142.823 4.79545 143.012 5.28267C143.2 5.76989 143.295 6.36979 143.295 7.08239V7.57955H137.409V6.56534H142.102C142.102 6.13447 142.016 5.75 141.843 5.41193C141.674 5.07386 141.432 4.80705 141.117 4.61151C140.806 4.41596 140.438 4.31818 140.014 4.31818C139.546 4.31818 139.142 4.43419 138.801 4.66619C138.463 4.89489 138.202 5.19318 138.02 5.56108C137.838 5.92898 137.747 6.32339 137.747 6.74432V7.42045C137.747 7.99716 137.846 8.48603 138.045 8.88707C138.247 9.2848 138.527 9.58807 138.885 9.79688C139.243 10.0024 139.659 10.1051 140.133 10.1051C140.441 10.1051 140.72 10.062 140.968 9.97585C141.22 9.88636 141.437 9.75379 141.619 9.57812C141.802 9.39915 141.943 9.17708 142.042 8.91193L143.176 9.23011C143.056 9.61458 142.856 9.95265 142.574 10.2443C142.292 10.5327 141.944 10.758 141.53 10.9205C141.116 11.0795 140.65 11.1591 140.133 11.1591ZM149.017 11V3.36364H150.151V4.51705H150.23C150.369 4.1392 150.621 3.83262 150.986 3.5973C151.351 3.36198 151.762 3.24432 152.219 3.24432C152.305 3.24432 152.413 3.24597 152.542 3.24929C152.671 3.2526 152.769 3.25758 152.835 3.2642V4.45739C152.796 4.44744 152.704 4.43253 152.562 4.41264C152.423 4.38944 152.275 4.37784 152.119 4.37784C151.748 4.37784 151.417 4.45573 151.125 4.61151C150.837 4.76397 150.608 4.97609 150.439 5.24787C150.273 5.51634 150.191 5.82292 150.191 6.16761V11H149.017ZM157.195 11.1591C156.46 11.1591 155.825 10.9967 155.291 10.6719C154.761 10.3438 154.352 9.88636 154.063 9.29972C153.778 8.70975 153.636 8.02367 153.636 7.24148C153.636 6.45928 153.778 5.76989 154.063 5.1733C154.352 4.57339 154.753 4.10606 155.267 3.77131C155.784 3.43324 156.387 3.2642 157.076 3.2642C157.474 3.2642 157.867 3.33049 158.254 3.46307C158.642 3.59564 158.995 3.81108 159.313 4.10938C159.632 4.40436 159.885 4.79545 160.074 5.28267C160.263 5.76989 160.357 6.36979 160.357 7.08239V7.57955H154.471V6.56534H159.164C159.164 6.13447 159.078 5.75 158.906 5.41193C158.737 5.07386 158.495 4.80705 158.18 4.61151C157.868 4.41596 157.5 4.31818 157.076 4.31818C156.609 4.31818 156.204 4.43419 155.863 4.66619C155.525 4.89489 155.265 5.19318 155.083 5.56108C154.9 5.92898 154.809 6.32339 154.809 6.74432V7.42045C154.809 7.99716 154.909 8.48603 155.107 8.88707C155.31 9.2848 155.59 9.58807 155.948 9.79688C156.306 10.0024 156.722 10.1051 157.195 10.1051C157.504 10.1051 157.782 10.062 158.031 9.97585C158.283 9.88636 158.5 9.75379 158.682 9.57812C158.864 9.39915 159.005 9.17708 159.105 8.91193L160.238 9.23011C160.119 9.61458 159.918 9.95265 159.637 10.2443C159.355 10.5327 159.007 10.758 158.593 10.9205C158.178 11.0795 157.713 11.1591 157.195 11.1591ZM165.543 3.36364V4.35795H161.426V3.36364H165.543ZM162.659 11V2.30966C162.659 1.87216 162.762 1.50758 162.968 1.21591C163.173 0.924242 163.44 0.705492 163.768 0.559658C164.096 0.413825 164.442 0.340908 164.807 0.340908C165.095 0.340908 165.331 0.364109 165.513 0.410511C165.695 0.456912 165.831 0.499999 165.921 0.539772L165.583 1.55398C165.523 1.53409 165.44 1.50923 165.334 1.4794C165.231 1.44957 165.095 1.43466 164.926 1.43466C164.539 1.43466 164.258 1.53243 164.086 1.72798C163.917 1.92353 163.833 2.21023 163.833 2.58807V11H162.659ZM170.074 11.1591C169.339 11.1591 168.704 10.9967 168.17 10.6719C167.64 10.3438 167.231 9.88636 166.942 9.29972C166.657 8.70975 166.515 8.02367 166.515 7.24148C166.515 6.45928 166.657 5.76989 166.942 5.1733C167.231 4.57339 167.632 4.10606 168.145 3.77131C168.662 3.43324 169.266 3.2642 169.955 3.2642C170.353 3.2642 170.746 3.33049 171.133 3.46307C171.521 3.59564 171.874 3.81108 172.192 4.10938C172.51 4.40436 172.764 4.79545 172.953 5.28267C173.142 5.76989 173.236 6.36979 173.236 7.08239V7.57955H167.35V6.56534H172.043C172.043 6.13447 171.957 5.75 171.785 5.41193C171.616 5.07386 171.374 4.80705 171.059 4.61151C170.747 4.41596 170.379 4.31818 169.955 4.31818C169.488 4.31818 169.083 4.43419 168.742 4.66619C168.404 4.89489 168.144 5.19318 167.961 5.56108C167.779 5.92898 167.688 6.32339 167.688 6.74432V7.42045C167.688 7.99716 167.787 8.48603 167.986 8.88707C168.189 9.2848 168.469 9.58807 168.827 9.79688C169.184 10.0024 169.6 10.1051 170.074 10.1051C170.383 10.1051 170.661 10.062 170.91 9.97585C171.162 9.88636 171.379 9.75379 171.561 9.57812C171.743 9.39915 171.884 9.17708 171.983 8.91193L173.117 9.23011C172.998 9.61458 172.797 9.95265 172.515 10.2443C172.234 10.5327 171.886 10.758 171.471 10.9205C171.057 11.0795 170.591 11.1591 170.074 11.1591ZM175.021 11V3.36364H176.155V4.51705H176.234C176.373 4.1392 176.625 3.83262 176.99 3.5973C177.354 3.36198 177.765 3.24432 178.223 3.24432C178.309 3.24432 178.417 3.24597 178.546 3.24929C178.675 3.2526 178.773 3.25758 178.839 3.2642V4.45739C178.8 4.44744 178.708 4.43253 178.566 4.41264C178.427 4.38944 178.279 4.37784 178.123 4.37784C177.752 4.37784 177.421 4.45573 177.129 4.61151C176.841 4.76397 176.612 4.97609 176.443 5.24787C176.277 5.51634 176.194 5.82292 176.194 6.16761V11H175.021ZM183.199 11.1591C182.464 11.1591 181.829 10.9967 181.295 10.6719C180.765 10.3438 180.356 9.88636 180.067 9.29972C179.782 8.70975 179.64 8.02367 179.64 7.24148C179.64 6.45928 179.782 5.76989 180.067 5.1733C180.356 4.57339 180.757 4.10606 181.27 3.77131C181.787 3.43324 182.391 3.2642 183.08 3.2642C183.478 3.2642 183.871 3.33049 184.258 3.46307C184.646 3.59564 184.999 3.81108 185.317 4.10938C185.635 4.40436 185.889 4.79545 186.078 5.28267C186.267 5.76989 186.361 6.36979 186.361 7.08239V7.57955H180.475V6.56534H185.168C185.168 6.13447 185.082 5.75 184.91 5.41193C184.741 5.07386 184.499 4.80705 184.184 4.61151C183.872 4.41596 183.504 4.31818 183.08 4.31818C182.613 4.31818 182.208 4.43419 181.867 4.66619C181.529 4.89489 181.269 5.19318 181.086 5.56108C180.904 5.92898 180.813 6.32339 180.813 6.74432V7.42045C180.813 7.99716 180.912 8.48603 181.111 8.88707C181.314 9.2848 181.594 9.58807 181.952 9.79688C182.309 10.0024 182.725 10.1051 183.199 10.1051C183.508 10.1051 183.786 10.062 184.035 9.97585C184.287 9.88636 184.504 9.75379 184.686 9.57812C184.868 9.39915 185.009 9.17708 185.108 8.91193L186.242 9.23011C186.123 9.61458 185.922 9.95265 185.64 10.2443C185.359 10.5327 185.011 10.758 184.596 10.9205C184.182 11.0795 183.716 11.1591 183.199 11.1591ZM184.055 2.44886L183.02 1.05682L181.986 2.44886H180.873V2.36932L182.483 0.301136H183.557L185.168 2.36932V2.44886H184.055ZM189.319 6.40625V11H188.146V3.36364H189.28V4.55682H189.379C189.558 4.16903 189.83 3.85748 190.194 3.62216C190.559 3.38352 191.03 3.2642 191.606 3.2642C192.123 3.2642 192.576 3.37027 192.964 3.58239C193.351 3.79119 193.653 4.10938 193.868 4.53693C194.084 4.96117 194.192 5.49811 194.192 6.14773V11H193.018V6.22727C193.018 5.62737 192.863 5.16004 192.551 4.82528C192.239 4.48722 191.812 4.31818 191.268 4.31818C190.894 4.31818 190.559 4.39938 190.264 4.56179C189.972 4.72419 189.742 4.96117 189.573 5.27273C189.404 5.58428 189.319 5.96212 189.319 6.40625ZM199.438 11.1591C198.722 11.1591 198.105 10.9901 197.588 10.652C197.071 10.3139 196.674 9.84825 196.395 9.25497C196.117 8.66169 195.978 7.9839 195.978 7.22159C195.978 6.44602 196.12 5.7616 196.405 5.16832C196.694 4.57173 197.095 4.10606 197.608 3.77131C198.125 3.43324 198.729 3.2642 199.418 3.2642C199.955 3.2642 200.439 3.36364 200.87 3.5625C201.301 3.76136 201.654 4.03977 201.929 4.39773C202.204 4.75568 202.374 5.1733 202.441 5.65057H201.267C201.178 5.30256 200.979 4.99432 200.671 4.72585C200.366 4.45407 199.955 4.31818 199.438 4.31818C198.98 4.31818 198.579 4.4375 198.235 4.67614C197.893 4.91146 197.627 5.24455 197.434 5.67543C197.245 6.10298 197.151 6.60511 197.151 7.18182C197.151 7.77178 197.244 8.28551 197.429 8.72301C197.618 9.16051 197.883 9.50024 198.225 9.74219C198.569 9.98414 198.974 10.1051 199.438 10.1051C199.743 10.1051 200.02 10.0521 200.268 9.94602C200.517 9.83996 200.727 9.6875 200.9 9.48864C201.072 9.28977 201.194 9.05114 201.267 8.77273H202.441C202.374 9.22348 202.21 9.6295 201.949 9.99077C201.69 10.3487 201.347 10.6338 200.919 10.8459C200.495 11.0547 200.001 11.1591 199.438 11.1591ZM204.156 11V3.36364H205.329V11H204.156ZM204.752 2.09091C204.524 2.09091 204.327 2.01302 204.161 1.85724C203.998 1.70147 203.917 1.5142 203.917 1.29545C203.917 1.0767 203.998 0.889441 204.161 0.733664C204.327 0.577888 204.524 0.5 204.752 0.5C204.981 0.5 205.177 0.577888 205.339 0.733664C205.505 0.889441 205.588 1.0767 205.588 1.29545C205.588 1.5142 205.505 1.70147 205.339 1.85724C205.177 2.01302 204.981 2.09091 204.752 2.09091ZM209.725 11.179C209.241 11.179 208.802 11.0878 208.408 10.9055C208.013 10.7199 207.7 10.4531 207.468 10.1051C207.236 9.75379 207.12 9.32955 207.12 8.83239C207.12 8.39489 207.206 8.04025 207.379 7.76847C207.551 7.49337 207.781 7.27794 208.07 7.12216C208.358 6.96638 208.676 6.85038 209.024 6.77415C209.376 6.6946 209.729 6.63163 210.083 6.58523C210.547 6.52557 210.923 6.48082 211.212 6.45099C211.503 6.41785 211.716 6.36316 211.848 6.28693C211.984 6.2107 212.052 6.07812 212.052 5.8892V5.84943C212.052 5.3589 211.918 4.97775 211.649 4.70597C211.384 4.43419 210.981 4.2983 210.441 4.2983C209.881 4.2983 209.442 4.42093 209.124 4.66619C208.806 4.91146 208.582 5.1733 208.453 5.4517L207.339 5.05398C207.538 4.58996 207.803 4.22869 208.134 3.97017C208.469 3.70833 208.834 3.52604 209.228 3.4233C209.626 3.31723 210.017 3.2642 210.401 3.2642C210.647 3.2642 210.928 3.29403 211.247 3.35369C211.568 3.41004 211.878 3.5277 212.176 3.70668C212.478 3.88565 212.728 4.15578 212.927 4.51705C213.126 4.87831 213.225 5.36222 213.225 5.96875V11H212.052V9.96591H211.992C211.913 10.1316 211.78 10.3089 211.595 10.4979C211.409 10.6868 211.162 10.8475 210.854 10.9801C210.546 11.1127 210.169 11.179 209.725 11.179ZM209.904 10.125C210.368 10.125 210.759 10.0339 211.078 9.85156C211.399 9.66927 211.641 9.43395 211.803 9.1456C211.969 8.85724 212.052 8.55398 212.052 8.2358V7.16193C212.002 7.22159 211.893 7.27628 211.724 7.32599C211.558 7.3724 211.366 7.41383 211.147 7.45028C210.932 7.48343 210.721 7.51326 210.516 7.53977C210.314 7.56297 210.15 7.58286 210.024 7.59943C209.719 7.6392 209.434 7.70384 209.169 7.79332C208.907 7.8795 208.695 8.01042 208.532 8.18608C208.373 8.35843 208.294 8.59375 208.294 8.89205C208.294 9.29972 208.444 9.60795 208.746 9.81676C209.051 10.0223 209.437 10.125 209.904 10.125ZM220.478 6.40625V11H219.304V3.36364H220.438V4.55682H220.537C220.716 4.16903 220.988 3.85748 221.353 3.62216C221.717 3.38352 222.188 3.2642 222.765 3.2642C223.282 3.2642 223.734 3.37027 224.122 3.58239C224.51 3.79119 224.811 4.10938 225.027 4.53693C225.242 4.96117 225.35 5.49811 225.35 6.14773V11H224.176V6.22727C224.176 5.62737 224.021 5.16004 223.709 4.82528C223.398 4.48722 222.97 4.31818 222.426 4.31818C222.052 4.31818 221.717 4.39938 221.422 4.56179C221.131 4.72419 220.9 4.96117 220.731 5.27273C220.562 5.58428 220.478 5.96212 220.478 6.40625ZM230.596 11.1591C229.907 11.1591 229.302 10.995 228.781 10.6669C228.264 10.3388 227.86 9.87973 227.568 9.28977C227.28 8.69981 227.136 8.01042 227.136 7.22159C227.136 6.42614 227.28 5.73177 227.568 5.13849C227.86 4.54522 228.264 4.08452 228.781 3.75639C229.302 3.42827 229.907 3.2642 230.596 3.2642C231.285 3.2642 231.889 3.42827 232.406 3.75639C232.926 4.08452 233.33 4.54522 233.619 5.13849C233.91 5.73177 234.056 6.42614 234.056 7.22159C234.056 8.01042 233.91 8.69981 233.619 9.28977C233.33 9.87973 232.926 10.3388 232.406 10.6669C231.889 10.995 231.285 11.1591 230.596 11.1591ZM230.596 10.1051C231.12 10.1051 231.551 9.97088 231.889 9.70241C232.227 9.43395 232.477 9.08097 232.639 8.64347C232.802 8.20597 232.883 7.73201 232.883 7.22159C232.883 6.71117 232.802 6.23556 232.639 5.79474C232.477 5.35393 232.227 4.99763 231.889 4.72585C231.551 4.45407 231.12 4.31818 230.596 4.31818C230.072 4.31818 229.642 4.45407 229.303 4.72585C228.965 4.99763 228.715 5.35393 228.553 5.79474C228.39 6.23556 228.309 6.71117 228.309 7.22159C228.309 7.73201 228.39 8.20597 228.553 8.64347C228.715 9.08097 228.965 9.43395 229.303 9.70241C229.642 9.97088 230.072 10.1051 230.596 10.1051ZM239.944 11V0.818182H243.504C244.213 0.818182 244.798 0.940814 245.259 1.18608C245.719 1.42803 246.062 1.7545 246.288 2.16548C246.513 2.57315 246.626 3.02557 246.626 3.52273C246.626 3.96023 246.548 4.3215 246.392 4.60653C246.24 4.89157 246.037 5.11695 245.786 5.28267C245.537 5.44839 245.267 5.57102 244.975 5.65057V5.75C245.287 5.76989 245.6 5.87926 245.915 6.07812C246.23 6.27699 246.493 6.56203 246.705 6.93324C246.917 7.30445 247.023 7.75852 247.023 8.29545C247.023 8.80587 246.907 9.26491 246.675 9.67259C246.443 10.0803 246.077 10.4034 245.577 10.642C245.076 10.8807 244.425 11 243.623 11H239.944ZM241.177 9.90625H243.623C244.428 9.90625 245 9.75047 245.338 9.43892C245.679 9.12405 245.85 8.7429 245.85 8.29545C245.85 7.95076 245.762 7.63258 245.587 7.34091C245.411 7.04593 245.161 6.81061 244.836 6.63494C244.511 6.45597 244.127 6.36648 243.683 6.36648H241.177V9.90625ZM241.177 5.29261H243.464C243.835 5.29261 244.17 5.2197 244.468 5.07386C244.77 4.92803 245.008 4.72254 245.184 4.45739C245.363 4.19223 245.452 3.88068 245.452 3.52273C245.452 3.07528 245.297 2.69579 244.985 2.38423C244.674 2.06937 244.18 1.91193 243.504 1.91193H241.177V5.29261ZM248.89 11V3.36364H250.024V4.51705H250.103C250.243 4.1392 250.494 3.83262 250.859 3.5973C251.224 3.36198 251.635 3.24432 252.092 3.24432C252.178 3.24432 252.286 3.24597 252.415 3.24929C252.544 3.2526 252.642 3.25758 252.708 3.2642V4.45739C252.669 4.44744 252.578 4.43253 252.435 4.41264C252.296 4.38944 252.148 4.37784 251.993 4.37784C251.621 4.37784 251.29 4.45573 250.998 4.61151C250.71 4.76397 250.481 4.97609 250.312 5.24787C250.146 5.51634 250.064 5.82292 250.064 6.16761V11H248.89ZM256.346 11.179C255.863 11.179 255.423 11.0878 255.029 10.9055C254.635 10.7199 254.321 10.4531 254.089 10.1051C253.857 9.75379 253.741 9.32955 253.741 8.83239C253.741 8.39489 253.827 8.04025 254 7.76847C254.172 7.49337 254.403 7.27794 254.691 7.12216C254.979 6.96638 255.297 6.85038 255.645 6.77415C255.997 6.6946 256.35 6.63163 256.704 6.58523C257.168 6.52557 257.545 6.48082 257.833 6.45099C258.125 6.41785 258.337 6.36316 258.469 6.28693C258.605 6.2107 258.673 6.07812 258.673 5.8892V5.84943C258.673 5.3589 258.539 4.97775 258.27 4.70597C258.005 4.43419 257.603 4.2983 257.062 4.2983C256.502 4.2983 256.063 4.42093 255.745 4.66619C255.427 4.91146 255.203 5.1733 255.074 5.4517L253.96 5.05398C254.159 4.58996 254.424 4.22869 254.756 3.97017C255.09 3.70833 255.455 3.52604 255.849 3.4233C256.247 3.31723 256.638 3.2642 257.023 3.2642C257.268 3.2642 257.55 3.29403 257.868 3.35369C258.189 3.41004 258.499 3.5277 258.797 3.70668C259.099 3.88565 259.349 4.15578 259.548 4.51705C259.747 4.87831 259.846 5.36222 259.846 5.96875V11H258.673V9.96591H258.613C258.534 10.1316 258.401 10.3089 258.216 10.4979C258.03 10.6868 257.783 10.8475 257.475 10.9801C257.167 11.1127 256.791 11.179 256.346 11.179ZM256.525 10.125C256.989 10.125 257.381 10.0339 257.699 9.85156C258.02 9.66927 258.262 9.43395 258.425 9.1456C258.59 8.85724 258.673 8.55398 258.673 8.2358V7.16193C258.623 7.22159 258.514 7.27628 258.345 7.32599C258.179 7.3724 257.987 7.41383 257.768 7.45028C257.553 7.48343 257.342 7.51326 257.137 7.53977C256.935 7.56297 256.771 7.58286 256.645 7.59943C256.34 7.6392 256.055 7.70384 255.79 7.79332C255.528 7.8795 255.316 8.01042 255.153 8.18608C254.994 8.35843 254.915 8.59375 254.915 8.89205C254.915 9.29972 255.065 9.60795 255.367 9.81676C255.672 10.0223 256.058 10.125 256.525 10.125ZM267.397 5.07386L266.343 5.37216C266.277 5.1965 266.179 5.0258 266.05 4.86009C265.924 4.69105 265.751 4.55185 265.533 4.44247C265.314 4.3331 265.034 4.27841 264.692 4.27841C264.225 4.27841 263.836 4.38613 263.524 4.60156C263.216 4.81368 263.062 5.08381 263.062 5.41193C263.062 5.7036 263.168 5.93395 263.38 6.10298C263.592 6.27202 263.924 6.41288 264.374 6.52557L265.508 6.80398C266.191 6.9697 266.699 7.22325 267.034 7.56463C267.369 7.9027 267.536 8.33854 267.536 8.87216C267.536 9.30966 267.41 9.70076 267.158 10.0455C266.91 10.3902 266.562 10.6619 266.114 10.8608C265.667 11.0597 265.147 11.1591 264.553 11.1591C263.774 11.1591 263.13 10.9901 262.619 10.652C262.109 10.3139 261.786 9.82008 261.65 9.17045L262.763 8.89205C262.87 9.30303 263.07 9.61127 263.365 9.81676C263.663 10.0223 264.053 10.125 264.533 10.125C265.08 10.125 265.514 10.009 265.836 9.77699C266.161 9.54167 266.323 9.25994 266.323 8.93182C266.323 8.66667 266.23 8.4446 266.045 8.26562C265.859 8.08333 265.574 7.94744 265.19 7.85795L263.917 7.55966C263.218 7.39394 262.704 7.13707 262.376 6.78906C262.051 6.43774 261.888 5.99858 261.888 5.47159C261.888 5.04072 262.009 4.65956 262.251 4.32812C262.497 3.99669 262.83 3.73651 263.251 3.54758C263.675 3.35866 264.156 3.2642 264.692 3.2642C265.448 3.2642 266.041 3.42992 266.472 3.76136C266.906 4.0928 267.215 4.5303 267.397 5.07386ZM269.302 11V3.36364H270.476V11H269.302ZM269.899 2.09091C269.67 2.09091 269.473 2.01302 269.307 1.85724C269.145 1.70147 269.064 1.5142 269.064 1.29545C269.064 1.0767 269.145 0.889441 269.307 0.733664C269.473 0.577888 269.67 0.5 269.899 0.5C270.128 0.5 270.323 0.577888 270.486 0.733664C270.651 0.889441 270.734 1.0767 270.734 1.29545C270.734 1.5142 270.651 1.70147 270.486 1.85724C270.323 2.01302 270.128 2.09091 269.899 2.09091ZM273.798 0.818182V11H272.625V0.818182H273.798ZM276.802 11.0795C276.557 11.0795 276.346 10.9917 276.171 10.8161C275.995 10.6404 275.907 10.4299 275.907 10.1847C275.907 9.93939 275.995 9.72893 276.171 9.55327C276.346 9.3776 276.557 9.28977 276.802 9.28977C277.047 9.28977 277.258 9.3776 277.433 9.55327C277.609 9.72893 277.697 9.93939 277.697 10.1847C277.697 10.3471 277.655 10.4962 277.573 10.6321C277.493 10.768 277.385 10.8774 277.249 10.9602C277.117 11.0398 276.968 11.0795 276.802 11.0795Z" fill="#374151"/>
</svg>
