<svg width="254" height="22" viewBox="0 0 254 22" fill="none" xmlns="http://www.w3.org/2000/svg">
<path d="M5.0071 21H0.393466L10.804 0.636363H16.3523L19.9915 21H15.3778L12.902 5.28977H12.7429L5.0071 21ZM6.06108 12.9957H16.9588L16.3821 16.3565H5.48438L6.06108 12.9957ZM28.5128 21.2983C26.9418 21.2983 25.6491 20.9669 24.6349 20.304C23.6274 19.6345 22.9214 18.7064 22.517 17.5199C22.1193 16.3333 22.0497 14.9678 22.3082 13.4233C22.5601 11.8589 23.0871 10.4867 23.8892 9.30682C24.6913 8.12026 25.7088 7.19555 26.9418 6.53267C28.1813 5.86316 29.5734 5.52841 31.1179 5.52841C32.4503 5.52841 33.5772 5.77036 34.4986 6.25426C35.42 6.73816 36.0961 7.41761 36.527 8.29261C36.9579 9.16761 37.1037 10.1951 36.9645 11.375H32.9773C32.9839 10.6193 32.7884 10.0062 32.3906 9.53551C31.9929 9.06487 31.4096 8.82955 30.6406 8.82955C29.9777 8.82955 29.3679 9.00852 28.8111 9.36648C28.2609 9.7178 27.7936 10.2315 27.4091 10.9077C27.0313 11.5838 26.7661 12.4025 26.6136 13.3636C26.4545 14.3381 26.4512 15.1667 26.6037 15.8494C26.7562 16.5322 27.0478 17.0526 27.4787 17.4105C27.9096 17.7685 28.4531 17.9474 29.1094 17.9474C29.5999 17.9474 30.054 17.848 30.4716 17.6491C30.8958 17.4503 31.267 17.1619 31.5852 16.7841C31.9034 16.3996 32.1487 15.9389 32.321 15.402H36.3182C36.0464 16.5753 35.5526 17.6027 34.8366 18.4844C34.1274 19.366 33.2358 20.0554 32.1619 20.5526C31.0881 21.0497 29.8717 21.2983 28.5128 21.2983ZM45.006 21.2983C43.4416 21.2983 42.1457 20.9801 41.1183 20.3438C40.0908 19.7008 39.3683 18.7926 38.9506 17.6193C38.5397 16.4394 38.4701 15.044 38.7418 13.4332C39.007 11.8622 39.5406 10.4834 40.3427 9.29688C41.1514 8.11032 42.1656 7.18561 43.3853 6.52273C44.605 5.85985 45.9639 5.52841 47.462 5.52841C48.4696 5.52841 49.381 5.69081 50.1964 6.01562C51.0183 6.33381 51.7011 6.81771 52.2447 7.46733C52.7882 8.11032 53.1594 8.91572 53.3583 9.88352C53.5638 10.8513 53.5605 11.9848 53.3484 13.2841L53.1594 14.4474H40.2731L40.6808 11.8224H49.5898C49.6893 11.2126 49.6495 10.6723 49.4705 10.2017C49.2915 9.73106 48.9933 9.36316 48.5756 9.09801C48.158 8.82623 47.6443 8.69034 47.0344 8.69034C46.4113 8.69034 45.828 8.8428 45.2844 9.14773C44.7409 9.45265 44.2835 9.85369 43.9123 10.3509C43.5477 10.8414 43.3124 11.375 43.2063 11.9517L42.739 14.5568C42.6064 15.3589 42.6329 16.0251 42.8185 16.5554C43.0108 17.0857 43.3422 17.4834 43.8129 17.7486C44.2835 18.0071 44.8801 18.1364 45.6026 18.1364C46.0733 18.1364 46.5141 18.0701 46.9251 17.9375C47.3427 17.8049 47.7139 17.6094 48.0387 17.3509C48.3635 17.0857 48.6287 16.7576 48.8342 16.3665L52.7021 16.625C52.3441 17.5663 51.8005 18.3883 51.0714 19.0909C50.3422 19.7869 49.4639 20.3305 48.4364 20.7216C47.4156 21.1061 46.2721 21.2983 45.006 21.2983ZM69.3544 10.0824L65.5064 10.321C65.4865 9.98295 65.3937 9.68134 65.228 9.41619C65.0689 9.14441 64.8336 8.92898 64.522 8.76989C64.2171 8.6108 63.8326 8.53125 63.3686 8.53125C62.6726 8.53125 62.0528 8.69034 61.5092 9.00852C60.9657 9.3267 60.6574 9.73437 60.5845 10.2315C60.5249 10.5497 60.6077 10.8182 60.8331 11.0369C61.0585 11.2557 61.5125 11.4413 62.1953 11.5938L64.88 12.1506C66.3118 12.4555 67.3459 12.9626 67.9822 13.6719C68.6252 14.3812 68.8539 15.3092 68.6683 16.456C68.5026 17.4304 68.075 18.2822 67.3857 19.0114C66.6963 19.7339 65.8213 20.2973 64.7607 20.7017C63.7 21.0994 62.5234 21.2983 61.2308 21.2983C59.156 21.2983 57.5784 20.8741 56.4979 20.0256C55.4174 19.1771 54.897 18.027 54.9368 16.5753L59.0732 16.3565C59.1063 16.9796 59.325 17.4503 59.7294 17.7685C60.1338 18.08 60.6873 18.2391 61.3899 18.2457C62.1787 18.259 62.8482 18.0966 63.3984 17.7585C63.9553 17.4138 64.2701 16.9962 64.343 16.5057C64.3961 16.161 64.2966 15.8826 64.0447 15.6705C63.7995 15.4583 63.3487 15.2827 62.6925 15.1435L60.147 14.6165C58.7019 14.3182 57.6645 13.7846 57.0348 13.0156C56.4051 12.2467 56.1896 11.2689 56.3885 10.0824C56.5476 9.13447 56.942 8.32244 57.5717 7.64631C58.2081 6.96354 59.0268 6.43987 60.0277 6.07528C61.0353 5.7107 62.1721 5.52841 63.4382 5.52841C65.4202 5.52841 66.9117 5.93608 67.9126 6.75142C68.9202 7.56676 69.4008 8.67708 69.3544 10.0824ZM85.0771 10.0824L81.229 10.321C81.2092 9.98295 81.1164 9.68134 80.9506 9.41619C80.7915 9.14441 80.5562 8.92898 80.2447 8.76989C79.9397 8.6108 79.5553 8.53125 79.0913 8.53125C78.3952 8.53125 77.7755 8.69034 77.2319 9.00852C76.6883 9.3267 76.3801 9.73437 76.3072 10.2315C76.2475 10.5497 76.3304 10.8182 76.5558 11.0369C76.7811 11.2557 77.2352 11.4413 77.918 11.5938L80.6026 12.1506C82.0344 12.4555 83.0685 12.9626 83.7049 13.6719C84.3479 14.3812 84.5766 15.3092 84.391 16.456C84.2253 17.4304 83.7977 18.2822 83.1083 19.0114C82.4189 19.7339 81.5439 20.2973 80.4833 20.7017C79.4227 21.0994 78.2461 21.2983 76.9535 21.2983C74.8787 21.2983 73.301 20.8741 72.2205 20.0256C71.14 19.1771 70.6197 18.027 70.6594 16.5753L74.7958 16.3565C74.829 16.9796 75.0477 17.4503 75.4521 17.7685C75.8564 18.08 76.4099 18.2391 77.1126 18.2457C77.9014 18.259 78.5709 18.0966 79.1211 17.7585C79.6779 17.4138 79.9928 16.9962 80.0657 16.5057C80.1187 16.161 80.0193 15.8826 79.7674 15.6705C79.5221 15.4583 79.0714 15.2827 78.4151 15.1435L75.8697 14.6165C74.4246 14.3182 73.3872 13.7846 72.7575 13.0156C72.1277 12.2467 71.9123 11.2689 72.1112 10.0824C72.2702 9.13447 72.6647 8.32244 73.2944 7.64631C73.9308 6.96354 74.7494 6.43987 75.7504 6.07528C76.7579 5.7107 77.8948 5.52841 79.1609 5.52841C81.1429 5.52841 82.6344 5.93608 83.6353 6.75142C84.6429 7.56676 85.1235 8.67708 85.0771 10.0824ZM90.608 21.2884C89.6402 21.2884 88.8016 21.1193 88.0923 20.7812C87.3897 20.4366 86.8726 19.9261 86.5412 19.25C86.2098 18.5739 86.1269 17.7353 86.2926 16.7344C86.4384 15.8859 86.7135 15.1766 87.1179 14.6065C87.5289 14.0298 88.0294 13.5658 88.6193 13.2145C89.2093 12.8632 89.8622 12.5947 90.5781 12.4091C91.3007 12.2235 92.0464 12.0975 92.8153 12.0312C93.7036 11.9384 94.4261 11.849 94.983 11.7628C95.5464 11.6766 95.9673 11.554 96.2457 11.3949C96.5241 11.2292 96.6932 10.9839 96.7528 10.6591V10.5994C96.8523 9.97633 96.7363 9.49242 96.4048 9.14773C96.08 8.7964 95.5597 8.62074 94.8438 8.62074C94.0881 8.62074 93.4451 8.78646 92.9148 9.1179C92.3911 9.44934 92.0166 9.87026 91.7912 10.3807L87.9332 10.0625C88.2779 9.13447 88.7983 8.33239 89.4943 7.65625C90.197 6.97348 91.0421 6.44981 92.0298 6.08523C93.0175 5.71401 94.1245 5.52841 95.3509 5.52841C96.1993 5.52841 96.9915 5.62784 97.7273 5.8267C98.4697 6.02557 99.1094 6.33381 99.6463 6.75142C100.19 7.16903 100.581 7.70597 100.82 8.36222C101.065 9.01184 101.115 9.79072 100.969 10.6989L99.2486 21H95.2315L95.5895 18.8821H95.4702C95.1454 19.3594 94.7476 19.7803 94.277 20.1449C93.8063 20.5028 93.2661 20.7846 92.6562 20.9901C92.0464 21.1889 91.3636 21.2884 90.608 21.2884ZM92.3082 18.3651C92.9247 18.3651 93.4915 18.2424 94.0085 17.9972C94.5322 17.7453 94.9631 17.4072 95.3011 16.983C95.6458 16.5587 95.8646 16.0781 95.9574 15.5412L96.2159 13.9205C96.0833 14.0066 95.8911 14.0829 95.6392 14.1491C95.3939 14.2154 95.1255 14.2784 94.8338 14.3381C94.5488 14.3911 94.2604 14.4408 93.9688 14.4872C93.6771 14.527 93.4152 14.5668 93.1832 14.6065C92.6728 14.6795 92.2154 14.7955 91.8111 14.9545C91.4067 15.1136 91.0786 15.3291 90.8267 15.6009C90.5748 15.866 90.419 16.1974 90.3594 16.5952C90.2666 17.1719 90.4025 17.6127 90.767 17.9176C91.1383 18.2159 91.652 18.3651 92.3082 18.3651ZM102.535 21L105.08 5.72727H109.187L108.739 8.39205H108.898C109.336 7.44413 109.923 6.72822 110.658 6.24432C111.401 5.75379 112.2 5.50852 113.055 5.50852C113.267 5.50852 113.489 5.52178 113.721 5.54829C113.96 5.56818 114.172 5.60133 114.357 5.64773L113.721 9.41619C113.535 9.3499 113.27 9.29687 112.925 9.2571C112.587 9.2107 112.266 9.1875 111.961 9.1875C111.344 9.1875 110.771 9.32339 110.241 9.59517C109.71 9.86032 109.263 10.2315 108.898 10.7088C108.54 11.1861 108.305 11.7363 108.192 12.3594L106.771 21H102.535ZM134.979 10.0824L131.131 10.321C131.112 9.98295 131.019 9.68134 130.853 9.41619C130.694 9.14441 130.459 8.92898 130.147 8.76989C129.842 8.6108 129.458 8.53125 128.994 8.53125C128.298 8.53125 127.678 8.69034 127.134 9.00852C126.591 9.3267 126.282 9.73437 126.21 10.2315C126.15 10.5497 126.233 10.8182 126.458 11.0369C126.683 11.2557 127.138 11.4413 127.82 11.5938L130.505 12.1506C131.937 12.4555 132.971 12.9626 133.607 13.6719C134.25 14.3812 134.479 15.3092 134.293 16.456C134.128 17.4304 133.7 18.2822 133.011 19.0114C132.321 19.7339 131.446 20.2973 130.386 20.7017C129.325 21.0994 128.148 21.2983 126.856 21.2983C124.781 21.2983 123.203 20.8741 122.123 20.0256C121.042 19.1771 120.522 18.027 120.562 16.5753L124.698 16.3565C124.731 16.9796 124.95 17.4503 125.354 17.7685C125.759 18.08 126.312 18.2391 127.015 18.2457C127.804 18.259 128.473 18.0966 129.023 17.7585C129.58 17.4138 129.895 16.9962 129.968 16.5057C130.021 16.161 129.922 15.8826 129.67 15.6705C129.424 15.4583 128.974 15.2827 128.317 15.1435L125.772 14.6165C124.327 14.3182 123.29 13.7846 122.66 13.0156C122.03 12.2467 121.815 11.2689 122.013 10.0824C122.173 9.13447 122.567 8.32244 123.197 7.64631C123.833 6.96354 124.652 6.43987 125.653 6.07528C126.66 5.7107 127.797 5.52841 129.063 5.52841C131.045 5.52841 132.537 5.93608 133.538 6.75142C134.545 7.56676 135.026 8.67708 134.979 10.0824ZM147.073 14.4972L148.534 5.72727H152.77L150.225 21H146.158L146.615 18.2259H146.456C145.986 19.1207 145.3 19.84 144.398 20.3835C143.497 20.9271 142.472 21.1989 141.326 21.1989C140.305 21.1989 139.443 20.9669 138.74 20.5028C138.044 20.0388 137.551 19.3793 137.259 18.5241C136.967 17.669 136.917 16.6449 137.11 15.4517L138.74 5.72727H142.976L141.485 14.696C141.346 15.5975 141.471 16.3101 141.863 16.8338C142.254 17.3575 142.85 17.6193 143.652 17.6193C144.163 17.6193 144.657 17.5033 145.134 17.2713C145.618 17.0327 146.035 16.6813 146.387 16.2173C146.738 15.7533 146.967 15.1799 147.073 14.4972ZM157.928 21.2884C156.96 21.2884 156.122 21.1193 155.413 20.7812C154.71 20.4366 154.193 19.9261 153.862 19.25C153.53 18.5739 153.447 17.7353 153.613 16.7344C153.759 15.8859 154.034 15.1766 154.438 14.6065C154.849 14.0298 155.35 13.5658 155.94 13.2145C156.53 12.8632 157.183 12.5947 157.898 12.4091C158.621 12.2235 159.367 12.0975 160.136 12.0312C161.024 11.9384 161.746 11.849 162.303 11.7628C162.867 11.6766 163.288 11.554 163.566 11.3949C163.844 11.2292 164.013 10.9839 164.073 10.6591V10.5994C164.173 9.97633 164.057 9.49242 163.725 9.14773C163.4 8.7964 162.88 8.62074 162.164 8.62074C161.408 8.62074 160.765 8.78646 160.235 9.1179C159.711 9.44934 159.337 9.87026 159.112 10.3807L155.254 10.0625C155.598 9.13447 156.119 8.33239 156.815 7.65625C157.517 6.97348 158.362 6.44981 159.35 6.08523C160.338 5.71401 161.445 5.52841 162.671 5.52841C163.52 5.52841 164.312 5.62784 165.048 5.8267C165.79 6.02557 166.43 6.33381 166.967 6.75142C167.51 7.16903 167.901 7.70597 168.14 8.36222C168.385 9.01184 168.435 9.79072 168.289 10.6989L166.569 21H162.552L162.91 18.8821H162.79C162.466 19.3594 162.068 19.7803 161.597 20.1449C161.127 20.5028 160.586 20.7846 159.977 20.9901C159.367 21.1889 158.684 21.2884 157.928 21.2884ZM159.629 18.3651C160.245 18.3651 160.812 18.2424 161.329 17.9972C161.853 17.7453 162.283 17.4072 162.621 16.983C162.966 16.5587 163.185 16.0781 163.278 15.5412L163.536 13.9205C163.404 14.0066 163.211 14.0829 162.96 14.1491C162.714 14.2154 162.446 14.2784 162.154 14.3381C161.869 14.3911 161.581 14.4408 161.289 14.4872C160.997 14.527 160.736 14.5668 160.504 14.6065C159.993 14.6795 159.536 14.7955 159.131 14.9545C158.727 15.1136 158.399 15.3291 158.147 15.6009C157.895 15.866 157.739 16.1974 157.68 16.5952C157.587 17.1719 157.723 17.6127 158.087 17.9176C158.459 18.2159 158.972 18.3651 159.629 18.3651ZM183.196 21.2983C181.625 21.2983 180.333 20.9669 179.319 20.304C178.311 19.6345 177.605 18.7064 177.201 17.5199C176.803 16.3333 176.733 14.9678 176.992 13.4233C177.244 11.8589 177.771 10.4867 178.573 9.30682C179.375 8.12026 180.392 7.19555 181.625 6.53267C182.865 5.86316 184.257 5.52841 185.801 5.52841C187.134 5.52841 188.261 5.77036 189.182 6.25426C190.104 6.73816 190.78 7.41761 191.211 8.29261C191.641 9.16761 191.787 10.1951 191.648 11.375H187.661C187.667 10.6193 187.472 10.0062 187.074 9.53551C186.676 9.06487 186.093 8.82955 185.324 8.82955C184.661 8.82955 184.051 9.00852 183.495 9.36648C182.944 9.7178 182.477 10.2315 182.093 10.9077C181.715 11.5838 181.45 12.4025 181.297 13.3636C181.138 14.3381 181.135 15.1667 181.287 15.8494C181.44 16.5322 181.731 17.0526 182.162 17.4105C182.593 17.7685 183.137 17.9474 183.793 17.9474C184.283 17.9474 184.738 17.848 185.155 17.6491C185.579 17.4503 185.951 17.1619 186.269 16.7841C186.587 16.3996 186.832 15.9389 187.005 15.402H191.002C190.73 16.5753 190.236 17.6027 189.52 18.4844C188.811 19.366 187.919 20.0554 186.846 20.5526C185.772 21.0497 184.555 21.2983 183.196 21.2983ZM199.69 21.2983C198.132 21.2983 196.843 20.9669 195.822 20.304C194.801 19.6345 194.082 18.7064 193.664 17.5199C193.253 16.3267 193.177 14.938 193.435 13.3537C193.687 11.7893 194.211 10.4205 195.006 9.24716C195.802 8.07386 196.813 7.16241 198.039 6.51278C199.265 5.85653 200.647 5.52841 202.185 5.52841C203.737 5.52841 205.022 5.86316 206.043 6.53267C207.064 7.19555 207.783 8.12358 208.201 9.31676C208.619 10.5099 208.698 11.8987 208.44 13.483C208.181 15.0407 207.651 16.4062 206.849 17.5795C206.047 18.7528 205.036 19.6676 203.816 20.3239C202.596 20.9735 201.221 21.2983 199.69 21.2983ZM200.107 18.017C200.823 18.017 201.456 17.8149 202.006 17.4105C202.563 16.9995 203.024 16.4427 203.388 15.7401C203.76 15.0308 204.018 14.2287 204.164 13.3338C204.31 12.4522 204.32 11.67 204.194 10.9872C204.068 10.2978 203.803 9.75426 203.398 9.35653C203.001 8.95881 202.454 8.75994 201.758 8.75994C201.042 8.75994 200.406 8.96544 199.849 9.37642C199.292 9.78078 198.831 10.3376 198.467 11.0469C198.102 11.7562 197.847 12.5616 197.701 13.4631C197.562 14.3381 197.552 15.1203 197.671 15.8097C197.79 16.4924 198.052 17.0327 198.457 17.4304C198.861 17.8215 199.411 18.017 200.107 18.017ZM215.668 12.1705L214.197 21H209.971L212.516 5.72727H216.543L216.106 8.42188H216.275C216.759 7.52699 217.442 6.82102 218.323 6.30398C219.211 5.78693 220.222 5.52841 221.356 5.52841C222.416 5.52841 223.301 5.76042 224.011 6.22443C224.727 6.68845 225.23 7.34801 225.522 8.20312C225.82 9.05824 225.87 10.0824 225.671 11.2756L224.04 21H219.805L221.306 12.0312C221.459 11.0966 221.339 10.3674 220.948 9.84375C220.564 9.31345 219.944 9.0483 219.089 9.0483C218.519 9.0483 217.995 9.17093 217.518 9.41619C217.04 9.66146 216.639 10.0194 216.315 10.4901C215.996 10.9541 215.781 11.5142 215.668 12.1705ZM238.028 5.72727L237.501 8.90909H228.294L228.831 5.72727H238.028ZM231.515 2.06818H235.751L233.385 16.3068C233.318 16.6979 233.328 17.0028 233.414 17.2216C233.501 17.4337 233.643 17.5829 233.842 17.669C234.047 17.7552 234.293 17.7983 234.578 17.7983C234.777 17.7983 234.979 17.7817 235.184 17.7486C235.39 17.7088 235.546 17.679 235.652 17.6591L235.811 20.8111C235.572 20.884 235.251 20.9635 234.846 21.0497C234.449 21.1359 233.978 21.1889 233.434 21.2088C232.4 21.2486 231.525 21.1127 230.809 20.8011C230.093 20.483 229.58 19.9957 229.268 19.3395C228.957 18.6832 228.89 17.858 229.069 16.8636L231.515 2.06818ZM242.557 21.2884C241.589 21.2884 240.751 21.1193 240.042 20.7812C239.339 20.4366 238.822 19.9261 238.49 19.25C238.159 18.5739 238.076 17.7353 238.242 16.7344C238.388 15.8859 238.663 15.1766 239.067 14.6065C239.478 14.0298 239.979 13.5658 240.569 13.2145C241.158 12.8632 241.811 12.5947 242.527 12.4091C243.25 12.2235 243.996 12.0975 244.765 12.0312C245.653 11.9384 246.375 11.849 246.932 11.7628C247.496 11.6766 247.917 11.554 248.195 11.3949C248.473 11.2292 248.642 10.9839 248.702 10.6591V10.5994C248.801 9.97633 248.685 9.49242 248.354 9.14773C248.029 8.7964 247.509 8.62074 246.793 8.62074C246.037 8.62074 245.394 8.78646 244.864 9.1179C244.34 9.44934 243.966 9.87026 243.74 10.3807L239.882 10.0625C240.227 9.13447 240.748 8.33239 241.444 7.65625C242.146 6.97348 242.991 6.44981 243.979 6.08523C244.967 5.71401 246.074 5.52841 247.3 5.52841C248.149 5.52841 248.941 5.62784 249.676 5.8267C250.419 6.02557 251.059 6.33381 251.596 6.75142C252.139 7.16903 252.53 7.70597 252.769 8.36222C253.014 9.01184 253.064 9.79072 252.918 10.6989L251.198 21H247.181L247.539 18.8821H247.419C247.095 19.3594 246.697 19.7803 246.226 20.1449C245.756 20.5028 245.215 20.7846 244.605 20.9901C243.996 21.1889 243.313 21.2884 242.557 21.2884ZM244.257 18.3651C244.874 18.3651 245.441 18.2424 245.958 17.9972C246.481 17.7453 246.912 17.4072 247.25 16.983C247.595 16.5587 247.814 16.0781 247.907 15.5412L248.165 13.9205C248.033 14.0066 247.84 14.0829 247.588 14.1491C247.343 14.2154 247.075 14.2784 246.783 14.3381C246.498 14.3911 246.21 14.4408 245.918 14.4872C245.626 14.527 245.364 14.5668 245.132 14.6065C244.622 14.6795 244.165 14.7955 243.76 14.9545C243.356 15.1136 243.028 15.3291 242.776 15.6009C242.524 15.866 242.368 16.1974 242.309 16.5952C242.216 17.1719 242.352 17.6127 242.716 17.9176C243.087 18.2159 243.601 18.3651 244.257 18.3651Z" fill="#0B0F10"/>
</svg>
