<svg width="87" height="19" viewBox="0 0 87 19" fill="none" xmlns="http://www.w3.org/2000/svg">
<path d="M4.47727 0.545454L6.50568 13.8068H6.66761L13.0852 0.545454H17.1761L8.26136 18H3.50568L0.377841 0.545454H4.47727ZM18.5568 18.2472C17.7273 18.2472 17.0085 18.1023 16.4006 17.8125C15.7983 17.517 15.3551 17.0795 15.071 16.5C14.7869 15.9205 14.7159 15.2017 14.858 14.3438C14.983 13.6165 15.2188 13.0085 15.5653 12.5199C15.9176 12.0256 16.3466 11.6278 16.8523 11.3267C17.358 11.0256 17.9176 10.7955 18.5312 10.6364C19.1506 10.4773 19.7898 10.3693 20.4489 10.3125C21.2102 10.233 21.8295 10.1562 22.3068 10.0824C22.7898 10.0085 23.1506 9.90341 23.3892 9.76705C23.6278 9.625 23.7727 9.41477 23.8239 9.13636V9.08523C23.9091 8.55114 23.8097 8.13636 23.5256 7.84091C23.2472 7.53977 22.8011 7.3892 22.1875 7.3892C21.5398 7.3892 20.9886 7.53125 20.5341 7.81534C20.0852 8.09943 19.7642 8.46023 19.571 8.89773L16.2642 8.625C16.5597 7.82955 17.0057 7.14205 17.6023 6.5625C18.2045 5.97727 18.929 5.52841 19.7756 5.21591C20.6222 4.89773 21.571 4.73864 22.6222 4.73864C23.3494 4.73864 24.0284 4.82386 24.6591 4.99432C25.2955 5.16477 25.8438 5.42898 26.304 5.78693C26.7699 6.14489 27.1051 6.60511 27.3097 7.16761C27.5199 7.72443 27.5625 8.39205 27.4375 9.17045L25.9631 18H22.5199L22.8267 16.1847H22.7244C22.446 16.5938 22.1051 16.9545 21.7017 17.267C21.2983 17.5739 20.8352 17.8153 20.3125 17.9915C19.7898 18.1619 19.2045 18.2472 18.5568 18.2472ZM20.0142 15.7415C20.5426 15.7415 21.0284 15.6364 21.4716 15.4261C21.9205 15.2102 22.2898 14.9205 22.5795 14.5568C22.875 14.1932 23.0625 13.7812 23.142 13.321L23.3636 11.9318C23.25 12.0057 23.0852 12.071 22.8693 12.1278C22.6591 12.1847 22.429 12.2386 22.179 12.2898C21.9347 12.3352 21.6875 12.3778 21.4375 12.4176C21.1875 12.4517 20.9631 12.4858 20.7642 12.5199C20.3267 12.5824 19.9347 12.6818 19.5881 12.8182C19.2415 12.9545 18.9602 13.1392 18.7443 13.3722C18.5284 13.5994 18.3949 13.8835 18.3438 14.2244C18.2642 14.7188 18.3807 15.0966 18.6932 15.358C19.0114 15.6136 19.4517 15.7415 20.0142 15.7415ZM35.3082 0.545454L32.4105 18H28.7798L31.6776 0.545454H35.3082ZM41.2507 18.2557C39.9155 18.2557 38.8104 17.9716 37.9354 17.4034C37.0604 16.8295 36.4439 16.0341 36.0859 15.017C35.7337 13.9943 35.6683 12.804 35.8899 11.446C36.1058 10.1051 36.5547 8.93182 37.2365 7.92614C37.9183 6.92045 38.7848 6.1392 39.8359 5.58239C40.8871 5.01989 42.0717 4.73864 43.3899 4.73864C44.7195 4.73864 45.8217 5.02557 46.6967 5.59943C47.5717 6.16761 48.1882 6.96307 48.5462 7.9858C48.9041 9.00852 48.9723 10.1989 48.7507 11.5568C48.5291 12.892 48.0746 14.0625 47.3871 15.0682C46.6996 16.0739 45.8331 16.858 44.7876 17.4205C43.7422 17.9773 42.5632 18.2557 41.2507 18.2557ZM41.6087 15.4432C42.2223 15.4432 42.7649 15.2699 43.2365 14.9233C43.7138 14.571 44.1087 14.0937 44.4212 13.4915C44.7393 12.8835 44.9609 12.196 45.0859 11.429C45.2109 10.6733 45.2195 10.0028 45.1115 9.41761C45.0036 8.8267 44.7763 8.3608 44.4297 8.01989C44.0888 7.67898 43.62 7.50852 43.0234 7.50852C42.4098 7.50852 41.8643 7.68466 41.3871 8.03693C40.9098 8.38352 40.5149 8.8608 40.2024 9.46875C39.8899 10.0767 39.6712 10.767 39.5462 11.5398C39.4268 12.2898 39.4183 12.9602 39.5206 13.5511C39.6229 14.1364 39.8473 14.5994 40.1939 14.9403C40.5405 15.2756 41.0121 15.4432 41.6087 15.4432ZM50.0376 18L52.2195 4.90909H55.7393L55.3558 7.19318H55.4922C55.8672 6.38068 56.37 5.76705 57.0007 5.35227C57.6371 4.93182 58.3217 4.72159 59.0547 4.72159C59.2365 4.72159 59.4268 4.73295 59.6257 4.75568C59.8303 4.77273 60.0121 4.80114 60.1712 4.84091L59.6257 8.07102C59.4666 8.0142 59.2393 7.96875 58.9439 7.93466C58.6541 7.89489 58.3786 7.875 58.1172 7.875C57.5888 7.875 57.0973 7.99148 56.6428 8.22443C56.1882 8.4517 55.8047 8.76989 55.4922 9.17898C55.1854 9.58807 54.9837 10.0597 54.8871 10.5938L53.6683 18H50.0376ZM65.1804 18.2557C63.8395 18.2557 62.7287 17.983 61.848 17.4375C60.9673 16.8864 60.348 16.108 59.9901 15.1023C59.6378 14.0909 59.5781 12.8949 59.8111 11.5142C60.0384 10.1676 60.4957 8.9858 61.1832 7.96875C61.8764 6.9517 62.7457 6.15909 63.7912 5.59091C64.8366 5.02273 66.0014 4.73864 67.2855 4.73864C68.1491 4.73864 68.9304 4.87784 69.6293 5.15625C70.3338 5.42898 70.919 5.84375 71.3849 6.40057C71.8509 6.9517 72.169 7.64205 72.3395 8.47159C72.5156 9.30114 72.5128 10.2727 72.331 11.3864L72.169 12.3835H61.1236L61.473 10.1335H69.1094C69.1946 9.6108 69.1605 9.14773 69.0071 8.74432C68.8537 8.34091 68.598 8.02557 68.2401 7.7983C67.8821 7.56534 67.4418 7.44886 66.919 7.44886C66.3849 7.44886 65.8849 7.57955 65.419 7.84091C64.9531 8.10227 64.5611 8.44602 64.2429 8.87216C63.9304 9.29261 63.7287 9.75 63.6378 10.2443L63.2372 12.4773C63.1236 13.1648 63.1463 13.7358 63.3054 14.1903C63.4702 14.6449 63.7543 14.9858 64.1577 15.2131C64.5611 15.4347 65.0724 15.5455 65.6918 15.5455C66.0952 15.5455 66.473 15.4886 66.8253 15.375C67.1832 15.2614 67.5014 15.0938 67.7798 14.8722C68.0582 14.6449 68.2855 14.3636 68.4616 14.0284L71.777 14.25C71.4702 15.0568 71.0043 15.7614 70.3793 16.3636C69.7543 16.9602 69.0014 17.4261 68.1207 17.7614C67.2457 18.0909 66.2656 18.2557 65.1804 18.2557ZM86.0504 8.64205L82.7521 8.84659C82.7351 8.55682 82.6555 8.2983 82.5135 8.07102C82.3771 7.83807 82.1754 7.65341 81.9084 7.51705C81.647 7.38068 81.3175 7.3125 80.9197 7.3125C80.3232 7.3125 79.7919 7.44886 79.326 7.72159C78.8601 7.99432 78.5959 8.34375 78.5334 8.76989C78.4822 9.04261 78.5533 9.27273 78.7464 9.46023C78.9396 9.64773 79.3288 9.80682 79.9141 9.9375L82.2152 10.4148C83.4425 10.6761 84.3288 11.1108 84.8743 11.7188C85.4254 12.3267 85.6214 13.1222 85.4624 14.1051C85.3203 14.9403 84.9538 15.6705 84.3629 16.2955C83.772 16.9148 83.022 17.3977 82.1129 17.7443C81.2038 18.0852 80.1953 18.2557 79.0874 18.2557C77.3089 18.2557 75.9567 17.892 75.0305 17.1648C74.1044 16.4375 73.6584 15.4517 73.6925 14.2074L77.2379 14.0199C77.2663 14.554 77.4538 14.9574 77.8004 15.2301C78.147 15.4972 78.6214 15.6335 79.2237 15.6392C79.8999 15.6506 80.4737 15.5114 80.9453 15.2216C81.4226 14.9261 81.6925 14.5682 81.755 14.1477C81.8004 13.8523 81.7152 13.6136 81.4993 13.4318C81.2891 13.25 80.9027 13.0994 80.3402 12.9801L78.1584 12.5284C76.9197 12.2727 76.0305 11.8153 75.4908 11.1562C74.951 10.4972 74.7663 9.65909 74.9368 8.64205C75.0732 7.82955 75.4112 7.13352 75.951 6.55398C76.4964 5.96875 77.1982 5.51989 78.0561 5.20739C78.9197 4.89489 79.8942 4.73864 80.9794 4.73864C82.6783 4.73864 83.9567 5.08807 84.8146 5.78693C85.6783 6.4858 86.0902 7.4375 86.0504 8.64205Z" fill="#0B0F10"/>
</svg>
