<svg width="65" height="20" viewBox="0 0 65 20" fill="none" xmlns="http://www.w3.org/2000/svg">
<path d="M4.47727 1.54545L6.50568 14.8068H6.66761L13.0852 1.54545H17.1761L8.26136 19H3.50568L0.377841 1.54545H4.47727ZM16.3111 19L18.4929 5.90909H22.1236L19.9418 19H16.3111ZM20.6832 4.20454C20.1435 4.20454 19.6974 4.02557 19.3452 3.66761C18.9986 3.30398 18.8565 2.87216 18.919 2.37216C18.9815 1.8608 19.2259 1.42898 19.652 1.0767C20.0781 0.718749 20.5611 0.539772 21.1009 0.539772C21.6406 0.539772 22.081 0.718749 22.4219 1.0767C22.7628 1.42898 22.9048 1.8608 22.848 2.37216C22.7912 2.87216 22.5497 3.30398 22.1236 3.66761C21.7031 4.02557 21.223 4.20454 20.6832 4.20454ZM35.2848 9.64205L31.9865 9.84659C31.9695 9.55682 31.8899 9.2983 31.7479 9.07102C31.6115 8.83807 31.4098 8.65341 31.1428 8.51705C30.8814 8.38068 30.5518 8.3125 30.1541 8.3125C29.5575 8.3125 29.0263 8.44886 28.5604 8.72159C28.0945 8.99432 27.8303 9.34375 27.7678 9.76989C27.7166 10.0426 27.7876 10.2727 27.9808 10.4602C28.174 10.6477 28.5632 10.8068 29.1484 10.9375L31.4496 11.4148C32.6768 11.6761 33.5632 12.1108 34.1087 12.7188C34.6598 13.3267 34.8558 14.1222 34.6967 15.1051C34.5547 15.9403 34.1882 16.6705 33.5973 17.2955C33.0064 17.9148 32.2564 18.3977 31.3473 18.7443C30.4382 19.0852 29.4297 19.2557 28.3217 19.2557C26.5433 19.2557 25.1911 18.892 24.2649 18.1648C23.3388 17.4375 22.8928 16.4517 22.9268 15.2074L26.4723 15.0199C26.5007 15.554 26.6882 15.9574 27.0348 16.2301C27.3814 16.4972 27.8558 16.6335 28.4581 16.6392C29.1342 16.6506 29.7081 16.5114 30.1797 16.2216C30.657 15.9261 30.9268 15.5682 30.9893 15.1477C31.0348 14.8523 30.9496 14.6136 30.7337 14.4318C30.5234 14.25 30.1371 14.0994 29.5746 13.9801L27.3928 13.5284C26.1541 13.2727 25.2649 12.8153 24.7251 12.1562C24.1854 11.4972 24.0007 10.6591 24.1712 9.64205C24.3075 8.82955 24.6456 8.13352 25.1854 7.55398C25.7308 6.96875 26.4325 6.51989 27.2905 6.20739C28.1541 5.89489 29.1286 5.73864 30.2138 5.73864C31.9126 5.73864 33.1911 6.08807 34.049 6.78693C34.9126 7.4858 35.3246 8.4375 35.2848 9.64205ZM40.0256 19.2472C39.196 19.2472 38.4773 19.1023 37.8693 18.8125C37.267 18.517 36.8239 18.0795 36.5398 17.5C36.2557 16.9205 36.1847 16.2017 36.3267 15.3438C36.4517 14.6165 36.6875 14.0085 37.0341 13.5199C37.3864 13.0256 37.8153 12.6278 38.321 12.3267C38.8267 12.0256 39.3864 11.7955 40 11.6364C40.6193 11.4773 41.2585 11.3693 41.9176 11.3125C42.679 11.233 43.2983 11.1562 43.7756 11.0824C44.2585 11.0085 44.6193 10.9034 44.858 10.767C45.0966 10.625 45.2415 10.4148 45.2926 10.1364V10.0852C45.3778 9.55114 45.2784 9.13636 44.9943 8.84091C44.7159 8.53977 44.2699 8.3892 43.6562 8.3892C43.0085 8.3892 42.4574 8.53125 42.0028 8.81534C41.554 9.09943 41.233 9.46023 41.0398 9.89773L37.733 9.625C38.0284 8.82955 38.4744 8.14205 39.071 7.5625C39.6733 6.97727 40.3977 6.52841 41.2443 6.21591C42.0909 5.89773 43.0398 5.73864 44.0909 5.73864C44.8182 5.73864 45.4972 5.82386 46.1278 5.99432C46.7642 6.16477 47.3125 6.42898 47.7727 6.78693C48.2386 7.14489 48.5739 7.60511 48.7784 8.16761C48.9886 8.72443 49.0312 9.39205 48.9062 10.1705L47.4318 19H43.9886L44.2955 17.1847H44.1932C43.9148 17.5938 43.5739 17.9545 43.1705 18.267C42.767 18.5739 42.304 18.8153 41.7812 18.9915C41.2585 19.1619 40.6733 19.2472 40.0256 19.2472ZM41.483 16.7415C42.0114 16.7415 42.4972 16.6364 42.9403 16.4261C43.3892 16.2102 43.7585 15.9205 44.0483 15.5568C44.3438 15.1932 44.5313 14.7812 44.6108 14.321L44.8324 12.9318C44.7188 13.0057 44.554 13.071 44.3381 13.1278C44.1278 13.1847 43.8977 13.2386 43.6477 13.2898C43.4034 13.3352 43.1562 13.3778 42.9062 13.4176C42.6562 13.4517 42.4318 13.4858 42.233 13.5199C41.7955 13.5824 41.4034 13.6818 41.0568 13.8182C40.7102 13.9545 40.429 14.1392 40.2131 14.3722C39.9972 14.5994 39.8636 14.8835 39.8125 15.2244C39.733 15.7188 39.8494 16.0966 40.1619 16.358C40.4801 16.6136 40.9205 16.7415 41.483 16.7415ZM42.0114 4.29829L40.0085 4.27273C40.1847 3.1875 40.5852 2.35511 41.2102 1.77557C41.8409 1.19034 42.5455 0.897727 43.3239 0.897727C43.7159 0.897727 44.0455 0.963068 44.3125 1.09375C44.5795 1.22443 44.8153 1.37216 45.0199 1.53693C45.2244 1.7017 45.4233 1.84943 45.6165 1.98011C45.8097 2.1108 46.0284 2.17614 46.2727 2.17614C46.5966 2.17614 46.8636 2.05398 47.0739 1.80966C47.2898 1.56534 47.429 1.24716 47.4915 0.855114L49.4602 0.914772C49.2727 1.99432 48.8636 2.82386 48.233 3.40341C47.6023 3.97727 46.9006 4.26989 46.1278 4.28125C45.7074 4.28125 45.3665 4.21591 45.1051 4.08523C44.8438 3.95455 44.6193 3.80682 44.4318 3.64204C44.2443 3.47727 44.0597 3.32955 43.8778 3.19886C43.696 3.06818 43.4744 3.00284 43.2131 3.00284C42.9176 3.00284 42.6591 3.11932 42.4375 3.35227C42.2216 3.58523 42.0795 3.90057 42.0114 4.29829ZM56.1804 19.2557C54.8452 19.2557 53.7401 18.9716 52.8651 18.4034C51.9901 17.8295 51.3736 17.0341 51.0156 16.017C50.6634 14.9943 50.598 13.804 50.8196 12.446C51.0355 11.1051 51.4844 9.93182 52.1662 8.92614C52.848 7.92045 53.7145 7.1392 54.7656 6.58239C55.8168 6.01989 57.0014 5.73864 58.3196 5.73864C59.6491 5.73864 60.7514 6.02557 61.6264 6.59943C62.5014 7.16761 63.1179 7.96307 63.4759 8.9858C63.8338 10.0085 63.902 11.1989 63.6804 12.5568C63.4588 13.892 63.0043 15.0625 62.3168 16.0682C61.6293 17.0739 60.7628 17.858 59.7173 18.4205C58.6719 18.9773 57.4929 19.2557 56.1804 19.2557ZM56.5384 16.4432C57.152 16.4432 57.6946 16.2699 58.1662 15.9233C58.6435 15.571 59.0384 15.0937 59.3509 14.4915C59.669 13.8835 59.8906 13.196 60.0156 12.429C60.1406 11.6733 60.1491 11.0028 60.0412 10.4176C59.9332 9.8267 59.706 9.3608 59.3594 9.01989C59.0185 8.67898 58.5497 8.50852 57.9531 8.50852C57.3395 8.50852 56.794 8.68466 56.3168 9.03693C55.8395 9.38352 55.4446 9.8608 55.1321 10.4688C54.8196 11.0767 54.6009 11.767 54.4759 12.5398C54.3565 13.2898 54.348 13.9602 54.4503 14.5511C54.5526 15.1364 54.777 15.5994 55.1236 15.9403C55.4702 16.2756 55.9418 16.4432 56.5384 16.4432Z" fill="#0B0F10"/>
</svg>
