<svg width="1440" height="424" viewBox="0 0 1440 424" fill="none" xmlns="http://www.w3.org/2000/svg">
<g filter="url(#filter0_d_20_882)">
<path d="M1384 24H56C38.3269 24 24 38.327 24 56V352C24 369.673 38.3269 384 56 384H1384C1401.67 384 1416 369.673 1416 352V56C1416 38.327 1401.67 24 1384 24Z" fill="white"/>
</g>
<path d="M67.1646 86.9999H56.71L61.5396 57.9089H71.7953C74.7214 57.9089 77.1504 58.5059 79.0822 59.6989C81.0235 60.8919 82.3918 62.6009 83.1873 64.8269C83.9828 67.0429 84.1248 69.6889 83.6134 72.7669C83.121 75.7409 82.1409 78.2929 80.6731 80.4229C79.2053 82.5449 77.3256 84.1729 75.0339 85.3099C72.7422 86.4369 70.1191 86.9999 67.1646 86.9999ZM63.7413 81.7299H67.5197C69.3473 81.7299 70.9477 81.3889 72.3208 80.7069C73.7034 80.0259 74.835 78.9739 75.7157 77.5539C76.6059 76.1339 77.2356 74.3149 77.6049 72.0989C77.9553 69.9969 77.9316 68.2929 77.5339 66.9859C77.1456 65.6699 76.3928 64.7079 75.2754 64.1019C74.1579 63.4869 72.6901 63.1789 70.872 63.1789H66.8237L63.7413 81.7299ZM95.5843 87.4259C93.3495 87.4259 91.4981 86.9719 90.0303 86.0619C88.5625 85.1439 87.5303 83.8469 86.9337 82.1699C86.3466 80.4849 86.2472 78.4909 86.6355 76.1899C87.0142 73.9459 87.7766 71.9759 88.9224 70.2809C90.0777 68.5859 91.5266 67.2649 93.269 66.3179C95.0114 65.3709 96.9527 64.8979 99.0928 64.8979C100.532 64.8979 101.835 65.1299 102.999 65.5939C104.174 66.0479 105.149 66.7399 105.925 67.6679C106.702 68.5859 107.232 69.7369 107.516 71.1189C107.81 72.5019 107.805 74.1209 107.502 75.9769L107.232 77.6389H88.823L89.4053 73.8889H102.133C102.275 73.0179 102.218 72.2459 101.962 71.5739C101.707 70.9019 101.281 70.3759 100.684 69.9969C100.087 69.6089 99.3533 69.4149 98.482 69.4149C97.5919 69.4149 96.7586 69.6329 95.982 70.0679C95.2055 70.5039 94.5521 71.0769 94.0218 71.7869C93.501 72.4879 93.1648 73.2499 93.0133 74.0739L92.3457 77.7949C92.1563 78.9409 92.1942 79.8929 92.4593 80.6509C92.7339 81.4079 93.2074 81.9759 93.8798 82.3549C94.5521 82.7239 95.4044 82.9089 96.4366 82.9089C97.1089 82.9089 97.7387 82.8139 98.3258 82.6249C98.9224 82.4359 99.4527 82.1559 99.9167 81.7869C100.381 81.4079 100.76 80.9389 101.053 80.3809L106.579 80.7499C106.067 82.0949 105.291 83.2689 104.249 84.2729C103.208 85.2669 101.953 86.0439 100.485 86.6019C99.0266 87.1519 97.393 87.4259 95.5843 87.4259ZM130.368 71.4029L124.871 71.7439C124.842 71.2609 124.71 70.8299 124.473 70.4519C124.246 70.0629 123.91 69.7559 123.464 69.5279C123.029 69.3009 122.48 69.1879 121.817 69.1879C120.822 69.1879 119.937 69.4149 119.161 69.8689C118.384 70.3239 117.944 70.9059 117.839 71.6159C117.754 72.0709 117.873 72.4549 118.195 72.7669C118.517 73.0799 119.165 73.3449 120.141 73.5619L123.976 74.3579C126.021 74.7939 127.499 75.5179 128.408 76.5309C129.326 77.5449 129.653 78.8699 129.388 80.5089C129.151 81.9009 128.54 83.1169 127.555 84.1589C126.571 85.1909 125.321 85.9959 123.805 86.5739C122.29 87.1419 120.609 87.4259 118.763 87.4259C115.799 87.4259 113.545 86.8199 112.001 85.6079C110.458 84.3959 109.714 82.7529 109.771 80.6789L115.68 80.3659C115.728 81.2569 116.04 81.9289 116.618 82.3839C117.196 82.8289 117.986 83.0559 118.99 83.0649C120.117 83.0839 121.073 82.8519 121.859 82.3689C122.655 81.8769 123.105 81.2799 123.209 80.5799C123.285 80.0869 123.143 79.6889 122.783 79.3859C122.432 79.0829 121.788 78.8319 120.851 78.6339L117.214 77.8809C115.15 77.4549 113.668 76.6919 112.768 75.5939C111.869 74.4949 111.561 73.0979 111.845 71.4029C112.072 70.0489 112.636 68.8889 113.536 67.9229C114.445 66.9479 115.614 66.1999 117.044 65.6789C118.483 65.1579 120.107 64.8979 121.916 64.8979C124.748 64.8979 126.878 65.4799 128.308 66.6449C129.748 67.8099 130.434 69.3959 130.368 71.4029ZM141.906 87.4259C139.661 87.4259 137.815 86.9529 136.366 86.0059C134.926 85.0489 133.918 83.7229 133.34 82.0279C132.772 80.3329 132.673 78.3829 133.042 76.1759C133.402 73.9409 134.155 71.9809 135.3 70.2949C136.446 68.5999 137.9 67.2789 139.661 66.3319C141.432 65.3759 143.421 64.8979 145.627 64.8979C147.531 64.8979 149.14 65.2429 150.457 65.9349C151.773 66.6259 152.739 67.5969 153.354 68.8469C153.97 70.0969 154.178 71.5639 153.979 73.2499H148.283C148.293 72.1699 148.013 71.2949 147.445 70.6219C146.877 69.9499 146.044 69.6139 144.945 69.6139C143.998 69.6139 143.127 69.8689 142.332 70.3809C141.546 70.8829 140.878 71.6159 140.329 72.5819C139.789 73.5479 139.41 74.7179 139.192 76.0909C138.965 77.4829 138.96 78.6669 139.178 79.6419C139.396 80.6169 139.813 81.3609 140.428 81.8719C141.044 82.3839 141.82 82.6389 142.758 82.6389C143.459 82.6389 144.107 82.4969 144.704 82.2129C145.31 81.9289 145.84 81.5169 146.295 80.9769C146.749 80.4279 147.1 79.7699 147.346 79.0029H153.056C152.668 80.6789 151.962 82.1469 150.94 83.4059C149.926 84.6659 148.653 85.6509 147.119 86.3609C145.585 87.0709 143.847 87.4259 141.906 87.4259ZM171.121 77.7099L173.209 65.1819H179.26L175.624 86.9999H169.814L170.467 83.0369H170.24C169.568 84.3149 168.588 85.3429 167.3 86.1189C166.012 86.8959 164.549 87.2839 162.911 87.2839C161.452 87.2839 160.221 86.9529 159.217 86.2899C158.223 85.6269 157.518 84.6849 157.101 83.4629C156.684 82.2409 156.613 80.7779 156.888 79.0739L159.217 65.1819H165.268L163.138 77.9939C162.939 79.2819 163.119 80.2999 163.678 81.0479C164.236 81.7959 165.089 82.1699 166.234 82.1699C166.964 82.1699 167.669 82.0049 168.351 81.6729C169.042 81.3319 169.639 80.8299 170.141 80.1679C170.643 79.5049 170.969 78.6859 171.121 77.7099ZM180.577 86.9999L185.407 57.9089H191.458L189.668 68.8469H189.839C190.199 68.2589 190.682 67.6629 191.288 67.0569C191.903 66.4409 192.656 65.9299 193.546 65.5229C194.436 65.1059 195.492 64.8979 196.714 64.8979C198.305 64.8979 199.701 65.3139 200.904 66.1479C202.107 66.9719 202.973 68.2169 203.504 69.8839C204.034 71.5409 204.091 73.6189 203.674 76.1189C203.276 78.5529 202.542 80.6079 201.472 82.2839C200.412 83.9509 199.138 85.2149 197.651 86.0769C196.174 86.9289 194.607 87.3549 192.95 87.3549C191.775 87.3549 190.809 87.1609 190.052 86.7729C189.304 86.3839 188.721 85.8969 188.305 85.3099C187.888 84.7129 187.59 84.1119 187.41 83.5059H187.112L186.543 86.9999H180.577ZM188.319 76.0909C188.111 77.3879 188.106 78.5199 188.305 79.4859C188.513 80.4519 188.911 81.2049 189.498 81.7439C190.094 82.2749 190.876 82.5399 191.842 82.5399C192.836 82.5399 193.717 82.2699 194.484 81.7299C195.26 81.1809 195.904 80.4229 196.415 79.4569C196.927 78.4819 197.287 77.3599 197.495 76.0909C197.694 74.8309 197.699 73.7229 197.509 72.7669C197.32 71.8109 196.932 71.0619 196.344 70.5229C195.757 69.9829 194.962 69.7129 193.958 69.7129C192.983 69.7129 192.107 69.9729 191.33 70.4939C190.563 71.0149 189.919 71.7539 189.398 72.7099C188.887 73.6669 188.527 74.7939 188.319 76.0909ZM205.893 86.9999L209.53 65.1819H215.396L214.757 68.9889H214.984C215.609 67.6339 216.447 66.6119 217.499 65.9199C218.559 65.2199 219.7 64.8689 220.922 64.8689C221.225 64.8689 221.542 64.8879 221.874 64.9259C222.214 64.9549 222.518 65.0019 222.783 65.0679L221.874 70.4519C221.608 70.3569 221.23 70.2809 220.737 70.2239C220.254 70.1579 219.795 70.1249 219.359 70.1249C218.479 70.1249 217.66 70.3189 216.902 70.7069C216.144 71.0859 215.505 71.6159 214.984 72.2979C214.473 72.9799 214.137 73.7659 213.976 74.6559L211.945 86.9999H205.893ZM227.8 87.4119C226.418 87.4119 225.22 87.1699 224.207 86.6879C223.203 86.1949 222.464 85.4659 221.991 84.4999C221.517 83.5339 221.399 82.3359 221.636 80.9059C221.844 79.6939 222.237 78.6809 222.815 77.8659C223.402 77.0429 224.117 76.3799 224.96 75.8779C225.802 75.3759 226.735 74.9919 227.758 74.7269C228.79 74.4619 229.855 74.2819 230.954 74.1879C232.223 74.0549 233.255 73.9269 234.05 73.8039C234.855 73.6809 235.457 73.5059 235.854 73.2779C236.252 73.0419 236.494 72.6909 236.579 72.2269V72.1419C236.721 71.2519 236.555 70.5609 236.082 70.0679C235.618 69.5659 234.874 69.3149 233.852 69.3149C232.772 69.3149 231.853 69.5519 231.096 70.0259C230.348 70.4989 229.813 71.0999 229.491 71.8299L223.979 71.3749C224.472 70.0489 225.215 68.9029 226.21 67.9379C227.213 66.9619 228.421 66.2139 229.832 65.6929C231.243 65.1629 232.824 64.8979 234.576 64.8979C235.788 64.8979 236.92 65.0399 237.971 65.3239C239.031 65.6079 239.945 66.0479 240.712 66.6449C241.489 67.2409 242.048 68.0089 242.388 68.9459C242.739 69.8739 242.81 70.9869 242.602 72.2839L240.144 86.9999H234.406L234.917 83.9739H234.746C234.282 84.6559 233.714 85.2579 233.042 85.7779C232.37 86.2899 231.598 86.6919 230.727 86.9859C229.855 87.2699 228.88 87.4119 227.8 87.4119ZM230.229 83.2359C231.11 83.2359 231.92 83.0609 232.658 82.7099C233.406 82.3499 234.022 81.8669 234.505 81.2609C234.997 80.6549 235.31 79.9689 235.442 79.2019L235.812 76.8859C235.622 77.0089 235.348 77.1179 234.988 77.2129C234.638 77.3079 234.254 77.3979 233.837 77.4829C233.43 77.5589 233.018 77.6299 232.602 77.6959C232.185 77.7529 231.811 77.8099 231.479 77.8659C230.75 77.9709 230.097 78.1359 229.519 78.3639C228.942 78.5909 228.473 78.8989 228.113 79.2869C227.753 79.6659 227.531 80.1389 227.445 80.7069C227.313 81.5309 227.507 82.1609 228.028 82.5969C228.558 83.0229 229.292 83.2359 230.229 83.2359ZM269.338 65.1819L268.585 69.7269H255.432L256.199 65.1819H269.338ZM260.034 59.9549H266.085L262.705 80.2949C262.61 80.8539 262.624 81.2899 262.747 81.6019C262.87 81.9049 263.074 82.1179 263.358 82.2409C263.652 82.3649 264.002 82.4259 264.409 82.4259C264.693 82.4259 264.982 82.4019 265.276 82.3549C265.569 82.2979 265.792 82.2559 265.943 82.2269L266.17 86.7299C265.83 86.8339 265.37 86.9479 264.793 87.0709C264.224 87.1939 263.552 87.2699 262.776 87.2979C261.298 87.3549 260.048 87.1609 259.026 86.7159C258.003 86.2609 257.269 85.5649 256.824 84.6279C256.379 83.6899 256.284 82.5109 256.54 81.0909L260.034 59.9549ZM275.808 87.4119C274.426 87.4119 273.228 87.1699 272.214 86.6879C271.211 86.1949 270.472 85.4659 269.999 84.4999C269.525 83.5339 269.407 82.3359 269.643 80.9059C269.852 79.6939 270.245 78.6809 270.822 77.8659C271.41 77.0429 272.125 76.3799 272.967 75.8779C273.81 75.3759 274.743 74.9919 275.766 74.7269C276.798 74.4619 277.863 74.2819 278.962 74.1879C280.231 74.0549 281.263 73.9269 282.058 73.8039C282.863 73.6809 283.464 73.5059 283.862 73.2779C284.26 73.0419 284.501 72.6909 284.587 72.2269V72.1419C284.729 71.2519 284.563 70.5609 284.089 70.0679C283.625 69.5659 282.882 69.3149 281.859 69.3149C280.78 69.3149 279.861 69.5519 279.104 70.0259C278.356 70.4989 277.821 71.0999 277.499 71.8299L271.987 71.3749C272.48 70.0489 273.223 68.9029 274.217 67.9379C275.221 66.9619 276.429 66.2139 277.839 65.6929C279.25 65.1629 280.832 64.8979 282.584 64.8979C283.796 64.8979 284.928 65.0399 285.979 65.3239C287.039 65.6079 287.953 66.0479 288.72 66.6449C289.497 67.2409 290.055 68.0089 290.396 68.9459C290.747 69.8739 290.818 70.9869 290.609 72.2839L288.152 86.9999H282.413L282.925 83.9739H282.754C282.29 84.6559 281.722 85.2579 281.05 85.7779C280.377 86.2899 279.606 86.6919 278.734 86.9859C277.863 87.2699 276.888 87.4119 275.808 87.4119ZM278.237 83.2359C279.118 83.2359 279.928 83.0609 280.666 82.7099C281.414 82.3499 282.03 81.8669 282.513 81.2609C283.005 80.6549 283.318 79.9689 283.45 79.2019L283.82 76.8859C283.63 77.0089 283.356 77.1179 282.996 77.2129C282.645 77.3079 282.262 77.3979 281.845 77.4829C281.438 77.5589 281.026 77.6299 280.609 77.6959C280.193 77.7529 279.819 77.8099 279.487 77.8659C278.758 77.9709 278.105 78.1359 277.527 78.3639C276.949 78.5909 276.481 78.8989 276.121 79.2869C275.761 79.6659 275.538 80.1389 275.453 80.7069C275.321 81.5309 275.515 82.1609 276.036 82.5969C276.566 83.0229 277.3 83.2359 278.237 83.2359ZM303.727 57.9089L298.898 86.9999H292.847L297.676 57.9089H303.727ZM313.631 87.4259C311.397 87.4259 309.545 86.9719 308.077 86.0619C306.61 85.1439 305.577 83.8469 304.981 82.1699C304.394 80.4849 304.294 78.4909 304.683 76.1899C305.061 73.9459 305.824 71.9759 306.969 70.2809C308.125 68.5859 309.574 67.2649 311.316 66.3179C313.058 65.3709 315 64.8979 317.14 64.8979C318.579 64.8979 319.881 65.1299 321.046 65.5939C322.22 66.0479 323.196 66.7399 323.972 67.6679C324.749 68.5859 325.279 69.7369 325.563 71.1189C325.857 72.5019 325.852 74.1209 325.549 75.9769L325.279 77.6389H306.87L307.452 73.8889H320.18C320.322 73.0179 320.265 72.2459 320.009 71.5739C319.754 70.9019 319.327 70.3759 318.731 69.9969C318.134 69.6089 317.4 69.4149 316.529 69.4149C315.639 69.4149 314.806 69.6329 314.029 70.0679C313.253 70.5039 312.599 71.0769 312.069 71.7869C311.548 72.4879 311.212 73.2499 311.06 74.0739L310.393 77.7949C310.203 78.9409 310.241 79.8929 310.506 80.6509C310.781 81.4079 311.254 81.9759 311.927 82.3549C312.599 82.7239 313.451 82.9089 314.484 82.9089C315.156 82.9089 315.786 82.8139 316.373 82.6249C316.969 82.4359 317.5 82.1559 317.964 81.7869C318.428 81.4079 318.807 80.9389 319.1 80.3809L324.626 80.7499C324.114 82.0949 323.338 83.2689 322.296 84.2729C321.254 85.2669 320 86.0439 318.532 86.6019C317.074 87.1519 315.44 87.4259 313.631 87.4259ZM335.872 74.3859L333.77 86.9999H327.733L331.369 65.1819H337.122L336.497 69.0309H336.739C337.43 67.7529 338.405 66.7439 339.665 66.0059C340.934 65.2669 342.378 64.8979 343.997 64.8979C345.512 64.8979 346.777 65.2289 347.79 65.8919C348.813 66.5549 349.532 67.4969 349.949 68.7189C350.375 69.9399 350.446 71.4029 350.162 73.1079L347.832 86.9999H341.781L343.926 74.1879C344.144 72.8519 343.973 71.8109 343.415 71.0619C342.866 70.3049 341.98 69.9259 340.759 69.9259C339.944 69.9259 339.196 70.1009 338.514 70.4519C337.832 70.8019 337.259 71.3129 336.795 71.9859C336.341 72.6489 336.033 73.4489 335.872 74.3859ZM367.815 65.1819L367.062 69.7269H353.908L354.675 65.1819H367.815ZM358.511 59.9549H364.562L361.181 80.2949C361.086 80.8539 361.101 81.2899 361.224 81.6019C361.347 81.9049 361.55 82.1179 361.835 82.2409C362.128 82.3649 362.478 82.4259 362.886 82.4259C363.17 82.4259 363.459 82.4019 363.752 82.3549C364.046 82.2979 364.268 82.2559 364.42 82.2269L364.647 86.7299C364.306 86.8339 363.847 86.9479 363.269 87.0709C362.701 87.1939 362.029 87.2699 361.252 87.2979C359.775 87.3549 358.525 87.1609 357.502 86.7159C356.479 86.2609 355.746 85.5649 355.3 84.6279C354.855 83.6899 354.761 82.5109 355.016 81.0909L358.511 59.9549ZM377.772 87.4259C375.547 87.4259 373.705 86.9529 372.246 86.0059C370.788 85.0489 369.761 83.7229 369.164 82.0279C368.577 80.3239 368.468 78.3399 368.837 76.0769C369.197 73.8419 369.945 71.8859 371.082 70.2099C372.218 68.5339 373.662 67.2319 375.414 66.3039C377.166 65.3659 379.14 64.8979 381.337 64.8979C383.553 64.8979 385.39 65.3759 386.849 66.3319C388.307 67.2789 389.335 68.6049 389.931 70.3099C390.528 72.0139 390.641 73.9979 390.272 76.2609C389.903 78.4869 389.145 80.4379 387.999 82.1139C386.853 83.7899 385.409 85.0969 383.667 86.0339C381.924 86.9619 379.96 87.4259 377.772 87.4259ZM378.369 82.7389C379.391 82.7389 380.296 82.4499 381.082 81.8719C381.877 81.2849 382.535 80.4899 383.056 79.4859C383.586 78.4729 383.956 77.3269 384.164 76.0479C384.372 74.7889 384.387 73.6709 384.207 72.6959C384.027 71.7109 383.648 70.9349 383.07 70.3659C382.502 69.7979 381.721 69.5139 380.727 69.5139C379.704 69.5139 378.795 69.8079 377.999 70.3949C377.204 70.9729 376.546 71.7679 376.025 72.7809C375.504 73.7949 375.139 74.9449 374.931 76.2329C374.732 77.4829 374.718 78.5999 374.888 79.5849C375.059 80.5609 375.433 81.3319 376.011 81.9009C376.588 82.4589 377.374 82.7389 378.369 82.7389ZM413.141 71.4029L407.644 71.7439C407.616 71.2609 407.483 70.8299 407.246 70.4519C407.019 70.0629 406.683 69.7559 406.238 69.5279C405.802 69.3009 405.253 69.1879 404.59 69.1879C403.596 69.1879 402.71 69.4149 401.934 69.8689C401.157 70.3239 400.717 70.9059 400.613 71.6159C400.528 72.0709 400.646 72.4549 400.968 72.7669C401.29 73.0799 401.939 73.3449 402.914 73.5619L406.749 74.3579C408.795 74.7939 410.272 75.5179 411.181 76.5309C412.1 77.5449 412.426 78.8699 412.161 80.5089C411.924 81.9009 411.314 83.1169 410.329 84.1589C409.344 85.1909 408.094 85.9959 406.579 86.5739C405.064 87.1419 403.383 87.4259 401.536 87.4259C398.572 87.4259 396.318 86.8199 394.775 85.6079C393.231 84.3959 392.488 82.7529 392.545 80.6789L398.454 80.3659C398.501 81.2569 398.814 81.9289 399.391 82.3839C399.969 82.8289 400.76 83.0559 401.763 83.0649C402.89 83.0839 403.847 82.8519 404.633 82.3689C405.428 81.8769 405.878 81.2799 405.982 80.5799C406.058 80.0869 405.916 79.6889 405.556 79.3859C405.206 79.0829 404.562 78.8319 403.624 78.6339L399.988 77.8809C397.924 77.4549 396.442 76.6919 395.542 75.5939C394.642 74.4949 394.335 73.0979 394.619 71.4029C394.846 70.0489 395.409 68.8889 396.309 67.9229C397.218 66.9479 398.388 66.1999 399.817 65.6789C401.257 65.1579 402.881 64.8979 404.69 64.8979C407.521 64.8979 409.652 65.4799 411.082 66.6449C412.521 67.8099 413.208 69.3959 413.141 71.4029ZM432.147 87.3549C430.48 87.3549 429.046 86.9289 427.843 86.0769C426.65 85.2149 425.798 83.9509 425.286 82.2839C424.784 80.6079 424.737 78.5529 425.144 76.1189C425.561 73.6189 426.309 71.5409 427.388 69.8839C428.468 68.2169 429.746 66.9719 431.224 66.1479C432.701 65.3139 434.24 64.8979 435.84 64.8979C437.052 64.8979 438.032 65.1059 438.781 65.5229C439.538 65.9299 440.121 66.4409 440.528 67.0569C440.935 67.6629 441.219 68.2589 441.38 68.8469H441.565L443.397 57.9089H449.434L444.604 86.9999H438.638L439.221 83.5059H438.965C438.586 84.1119 438.085 84.7129 437.46 85.3099C436.844 85.8969 436.096 86.3839 435.215 86.7729C434.344 87.1609 433.321 87.3549 432.147 87.3549ZM434.817 82.5399C435.783 82.5399 436.655 82.2749 437.431 81.7439C438.208 81.2049 438.861 80.4519 439.391 79.4859C439.922 78.5199 440.291 77.3879 440.499 76.0909C440.717 74.7939 440.722 73.6669 440.513 72.7099C440.305 71.7539 439.898 71.0149 439.292 70.4939C438.695 69.9729 437.905 69.7129 436.92 69.7129C435.925 69.7129 435.045 69.9829 434.278 70.5229C433.52 71.0619 432.89 71.8109 432.388 72.7669C431.896 73.7229 431.546 74.8309 431.337 76.0909C431.129 77.3599 431.115 78.4819 431.295 79.4569C431.475 80.4229 431.858 81.1809 432.445 81.7299C433.032 82.2699 433.823 82.5399 434.817 82.5399ZM459.452 87.4259C457.226 87.4259 455.384 86.9529 453.926 86.0059C452.468 85.0489 451.44 83.7229 450.844 82.0279C450.257 80.3239 450.148 78.3399 450.517 76.0769C450.877 73.8419 451.625 71.8859 452.761 70.2099C453.898 68.5339 455.342 67.2319 457.094 66.3039C458.846 65.3659 460.82 64.8979 463.017 64.8979C465.233 64.8979 467.07 65.3759 468.528 66.3319C469.987 67.2789 471.014 68.6049 471.611 70.3099C472.207 72.0139 472.321 73.9979 471.952 76.2609C471.582 78.4869 470.825 80.4379 469.679 82.1139C468.533 83.7899 467.089 85.0969 465.347 86.0339C463.604 86.9619 461.639 87.4259 459.452 87.4259ZM460.048 82.7389C461.071 82.7389 461.975 82.4499 462.761 81.8719C463.557 81.2849 464.215 80.4899 464.736 79.4859C465.266 78.4729 465.635 77.3269 465.844 76.0479C466.052 74.7889 466.066 73.6709 465.886 72.6959C465.706 71.7109 465.328 70.9349 464.75 70.3659C464.182 69.7979 463.401 69.5139 462.406 69.5139C461.384 69.5139 460.474 69.8079 459.679 70.3949C458.884 70.9729 458.225 71.7679 457.705 72.7809C457.184 73.7949 456.819 74.9449 456.611 76.2329C456.412 77.4829 456.398 78.5999 456.568 79.5849C456.739 80.5609 457.113 81.3319 457.69 81.9009C458.268 82.4589 459.054 82.7389 460.048 82.7389ZM498.738 65.1819L497.985 69.7269H484.519L485.272 65.1819H498.738ZM484.704 86.9999L488.61 63.6049C488.866 62.0239 489.387 60.7119 490.173 59.6699C490.968 58.6289 491.948 57.8479 493.113 57.3269C494.287 56.8059 495.556 56.5449 496.92 56.5449C497.848 56.5449 498.686 56.6159 499.434 56.7589C500.192 56.9009 500.741 57.0279 501.082 57.1419L499.278 61.6879C499.05 61.6119 498.771 61.5409 498.44 61.4739C498.108 61.4079 497.758 61.3749 497.388 61.3749C496.508 61.3749 495.859 61.5829 495.442 61.9999C495.035 62.4069 494.761 62.9799 494.619 63.7189L490.741 86.9999H484.704ZM514.324 77.7099L516.412 65.1819H522.463L518.827 86.9999H513.017L513.67 83.0369H513.443C512.771 84.3149 511.791 85.3429 510.503 86.1189C509.215 86.8959 507.752 87.2839 506.114 87.2839C504.655 87.2839 503.424 86.9529 502.42 86.2899C501.426 85.6269 500.721 84.6849 500.304 83.4629C499.887 82.2409 499.816 80.7779 500.091 79.0739L502.42 65.1819H508.472L506.341 77.9939C506.142 79.2819 506.322 80.2999 506.881 81.0479C507.439 81.7959 508.292 82.1699 509.438 82.1699C510.167 82.1699 510.872 82.0049 511.554 81.6729C512.245 81.3319 512.842 80.8299 513.344 80.1679C513.846 79.5049 514.172 78.6859 514.324 77.7099ZM538.908 65.1819L538.156 69.7269H525.002L525.769 65.1819H538.908ZM529.604 59.9549H535.656L532.275 80.2949C532.18 80.8539 532.194 81.2899 532.317 81.6019C532.441 81.9049 532.644 82.1179 532.928 82.2409C533.222 82.3649 533.572 82.4259 533.979 82.4259C534.263 82.4259 534.552 82.4019 534.846 82.3549C535.139 82.2979 535.362 82.2559 535.513 82.2269L535.741 86.7299C535.4 86.8339 534.941 86.9479 534.363 87.0709C533.795 87.1939 533.122 87.2699 532.346 87.2979C530.869 87.3549 529.619 87.1609 528.596 86.7159C527.573 86.2609 526.839 85.5649 526.394 84.6279C525.949 83.6899 525.854 82.5109 526.11 81.0909L529.604 59.9549ZM548.866 87.4259C546.631 87.4259 544.78 86.9719 543.312 86.0619C541.844 85.1439 540.812 83.8469 540.215 82.1699C539.628 80.4849 539.529 78.4909 539.917 76.1899C540.296 73.9459 541.058 71.9759 542.204 70.2809C543.359 68.5859 544.808 67.2649 546.55 66.3179C548.293 65.3709 550.234 64.8979 552.374 64.8979C553.814 64.8979 555.116 65.1299 556.281 65.5939C557.455 66.0479 558.43 66.7399 559.207 67.6679C559.983 68.5859 560.513 69.7369 560.798 71.1189C561.091 72.5019 561.086 74.1209 560.783 75.9769L560.513 77.6389H542.104L542.687 73.8889H555.414C555.556 73.0179 555.499 72.2459 555.244 71.5739C554.988 70.9019 554.562 70.3759 553.965 69.9969C553.369 69.6089 552.635 69.4149 551.763 69.4149C550.873 69.4149 550.04 69.6329 549.263 70.0679C548.487 70.5039 547.834 71.0769 547.303 71.7869C546.782 72.4879 546.446 73.2499 546.295 74.0739L545.627 77.7949C545.438 78.9409 545.476 79.8929 545.741 80.6509C546.015 81.4079 546.489 81.9759 547.161 82.3549C547.834 82.7239 548.686 82.9089 549.718 82.9089C550.39 82.9089 551.02 82.8139 551.607 82.6249C552.204 82.4359 552.734 82.1559 553.198 81.7869C553.662 81.4079 554.041 80.9389 554.335 80.3809L559.86 80.7499C559.349 82.0949 558.572 83.2689 557.531 84.2729C556.489 85.2669 555.234 86.0439 553.766 86.6019C552.308 87.1519 550.674 87.4259 548.866 87.4259ZM563.038 86.9999L567.868 57.9089H573.919L572.129 68.8469H572.3C572.66 68.2589 573.143 67.6629 573.749 67.0569C574.364 66.4409 575.117 65.9299 576.007 65.5229C576.897 65.1059 577.953 64.8979 579.175 64.8979C580.766 64.8979 582.162 65.3139 583.365 66.1479C584.568 66.9719 585.434 68.2169 585.964 69.8839C586.495 71.5409 586.552 73.6189 586.135 76.1189C585.737 78.5529 585.003 80.6079 583.933 82.2839C582.873 83.9509 581.599 85.2149 580.112 86.0769C578.635 86.9289 577.068 87.3549 575.411 87.3549C574.236 87.3549 573.27 87.1609 572.513 86.7729C571.765 86.3839 571.182 85.8969 570.766 85.3099C570.349 84.7129 570.051 84.1119 569.871 83.5059H569.572L569.004 86.9999H563.038ZM570.78 76.0909C570.571 77.3879 570.567 78.5199 570.766 79.4859C570.974 80.4519 571.372 81.2049 571.959 81.7439C572.555 82.2749 573.337 82.5399 574.303 82.5399C575.297 82.5399 576.178 82.2699 576.945 81.7299C577.721 81.1809 578.365 80.4229 578.876 79.4569C579.388 78.4819 579.748 77.3599 579.956 76.0909C580.155 74.8309 580.16 73.7229 579.97 72.7669C579.781 71.8109 579.393 71.0619 578.805 70.5229C578.218 69.9829 577.423 69.7129 576.419 69.7129C575.444 69.7129 574.568 69.9729 573.791 70.4939C573.024 71.0149 572.38 71.7539 571.859 72.7099C571.348 73.6669 570.988 74.7939 570.78 76.0909ZM598.241 87.4259C596.015 87.4259 594.174 86.9529 592.715 86.0059C591.257 85.0489 590.229 83.7229 589.633 82.0279C589.046 80.3239 588.937 78.3399 589.306 76.0769C589.666 73.8419 590.414 71.8859 591.55 70.2099C592.687 68.5339 594.131 67.2319 595.883 66.3039C597.635 65.3659 599.609 64.8979 601.806 64.8979C604.022 64.8979 605.859 65.3759 607.317 66.3319C608.776 67.2789 609.803 68.6049 610.4 70.3099C610.996 72.0139 611.11 73.9979 610.741 76.2609C610.371 78.4869 609.614 80.4379 608.468 82.1139C607.322 83.7899 605.878 85.0969 604.136 86.0339C602.393 86.9619 600.428 87.4259 598.241 87.4259ZM598.837 82.7389C599.86 82.7389 600.764 82.4499 601.55 81.8719C602.346 81.2849 603.004 80.4899 603.525 79.4859C604.055 78.4729 604.424 77.3269 604.633 76.0479C604.841 74.7889 604.855 73.6709 604.675 72.6959C604.496 71.7109 604.117 70.9349 603.539 70.3659C602.971 69.7979 602.19 69.5139 601.195 69.5139C600.173 69.5139 599.263 69.8079 598.468 70.3949C597.673 70.9729 597.014 71.7679 596.494 72.7809C595.973 73.7949 595.608 74.9449 595.4 76.2329C595.201 77.4829 595.187 78.5999 595.357 79.5849C595.528 80.5609 595.902 81.3319 596.479 81.9009C597.057 82.4589 597.843 82.7389 598.837 82.7389ZM623.766 57.9089L618.937 86.9999H612.886L617.715 57.9089H623.766Z" fill="#0B0F10"/>
<path d="M58.122 134H56.46L61.2668 120.909H62.9032L67.71 134H66.0481L62.1362 122.98H62.0339L58.122 134ZM58.7356 128.886H65.4345V130.293H58.7356V128.886ZM76.4991 126.381L75.144 126.764C75.0587 126.538 74.933 126.319 74.7668 126.106C74.6049 125.888 74.3833 125.71 74.1021 125.569C73.8208 125.428 73.4607 125.358 73.0218 125.358C72.421 125.358 71.9203 125.496 71.5197 125.773C71.1234 126.046 70.9252 126.393 70.9252 126.815C70.9252 127.19 71.0616 127.487 71.3343 127.704C71.607 127.921 72.0332 128.102 72.6127 128.247L74.0701 128.605C74.948 128.818 75.6021 129.144 76.0325 129.583C76.4629 130.018 76.6781 130.578 76.6781 131.264C76.6781 131.827 76.5161 132.33 76.1923 132.773C75.8727 133.216 75.4252 133.565 74.8499 133.821C74.2747 134.077 73.6056 134.205 72.8428 134.205C71.8414 134.205 71.0126 133.987 70.3563 133.553C69.7001 133.118 69.2846 132.483 69.1099 131.648L70.5417 131.29C70.6781 131.818 70.9359 132.214 71.3151 132.479C71.6987 132.743 72.1994 132.875 72.8173 132.875C73.5204 132.875 74.0786 132.726 74.492 132.428C74.9096 132.125 75.1184 131.763 75.1184 131.341C75.1184 131 74.9991 130.714 74.7605 130.484C74.5218 130.25 74.1553 130.075 73.661 129.96L72.0247 129.577C71.1255 129.364 70.465 129.033 70.0431 128.586C69.6255 128.134 69.4167 127.57 69.4167 126.892C69.4167 126.338 69.5722 125.848 69.8833 125.422C70.1987 124.996 70.6269 124.661 71.1681 124.418C71.7136 124.175 72.3315 124.054 73.0218 124.054C73.9934 124.054 74.7562 124.267 75.3102 124.693C75.8684 125.119 76.2647 125.682 76.4991 126.381ZM85.9034 126.381L84.5483 126.764C84.463 126.538 84.3373 126.319 84.1711 126.106C84.0092 125.888 83.7876 125.71 83.5064 125.569C83.2251 125.428 82.865 125.358 82.4261 125.358C81.8253 125.358 81.3246 125.496 80.924 125.773C80.5277 126.046 80.3295 126.393 80.3295 126.815C80.3295 127.19 80.4659 127.487 80.7386 127.704C81.0113 127.921 81.4375 128.102 82.017 128.247L83.4744 128.605C84.3523 128.818 85.0064 129.144 85.4368 129.583C85.8672 130.018 86.0824 130.578 86.0824 131.264C86.0824 131.827 85.9204 132.33 85.5966 132.773C85.277 133.216 84.8295 133.565 84.2542 133.821C83.679 134.077 83.0099 134.205 82.2471 134.205C81.2457 134.205 80.4169 133.987 79.7606 133.553C79.1044 133.118 78.6889 132.483 78.5142 131.648L79.946 131.29C80.0824 131.818 80.3402 132.214 80.7194 132.479C81.103 132.743 81.6037 132.875 82.2216 132.875C82.9247 132.875 83.4829 132.726 83.8963 132.428C84.3139 132.125 84.5227 131.763 84.5227 131.341C84.5227 131 84.4034 130.714 84.1648 130.484C83.9261 130.25 83.5596 130.075 83.0653 129.96L81.429 129.577C80.5298 129.364 79.8693 129.033 79.4474 128.586C79.0298 128.134 78.821 127.57 78.821 126.892C78.821 126.338 78.9765 125.848 79.2876 125.422C79.603 124.996 80.0312 124.661 80.5724 124.418C81.1179 124.175 81.7358 124.054 82.4261 124.054C83.3977 124.054 84.1605 124.267 84.7145 124.693C85.2727 125.119 85.669 125.682 85.9034 126.381ZM88.3531 134V124.182H89.8617V134H88.3531ZM89.1202 122.545C88.8261 122.545 88.5726 122.445 88.3595 122.245C88.1507 122.045 88.0463 121.804 88.0463 121.523C88.0463 121.241 88.1507 121.001 88.3595 120.8C88.5726 120.6 88.8261 120.5 89.1202 120.5C89.4142 120.5 89.6656 120.6 89.8744 120.8C90.0875 121.001 90.194 121.241 90.194 121.523C90.194 121.804 90.0875 122.045 89.8744 122.245C89.6656 122.445 89.4142 122.545 89.1202 122.545ZM99.5792 126.381L98.2241 126.764C98.1388 126.538 98.0131 126.319 97.8469 126.106C97.685 125.888 97.4634 125.71 97.1822 125.569C96.9009 125.428 96.5408 125.358 96.1019 125.358C95.501 125.358 95.0003 125.496 94.5998 125.773C94.2035 126.046 94.0053 126.393 94.0053 126.815C94.0053 127.19 94.1417 127.487 94.4144 127.704C94.6871 127.921 95.1133 128.102 95.6928 128.247L97.1502 128.605C98.028 128.818 98.6822 129.144 99.1125 129.583C99.5429 130.018 99.7581 130.578 99.7581 131.264C99.7581 131.827 99.5962 132.33 99.2724 132.773C98.9527 133.216 98.5053 133.565 97.93 133.821C97.3547 134.077 96.6857 134.205 95.9229 134.205C94.9215 134.205 94.0927 133.987 93.4364 133.553C92.7802 133.118 92.3647 132.483 92.19 131.648L93.6218 131.29C93.7581 131.818 94.016 132.214 94.3952 132.479C94.7787 132.743 95.2795 132.875 95.8974 132.875C96.6005 132.875 97.1587 132.726 97.5721 132.428C97.9897 132.125 98.1985 131.763 98.1985 131.341C98.1985 131 98.0792 130.714 97.8405 130.484C97.6019 130.25 97.2354 130.075 96.7411 129.96L95.1047 129.577C94.2056 129.364 93.5451 129.033 93.1232 128.586C92.7056 128.134 92.4968 127.57 92.4968 126.892C92.4968 126.338 92.6523 125.848 92.9634 125.422C93.2787 124.996 93.707 124.661 94.2482 124.418C94.7937 124.175 95.4116 124.054 96.1019 124.054C97.0735 124.054 97.8363 124.267 98.3902 124.693C98.9485 125.119 99.3448 125.682 99.5792 126.381ZM106.299 124.182V125.46H101.211V124.182H106.299ZM102.694 121.83H104.202V131.188C104.202 131.614 104.264 131.933 104.388 132.146C104.516 132.355 104.678 132.496 104.874 132.568C105.074 132.636 105.285 132.67 105.506 132.67C105.673 132.67 105.809 132.662 105.915 132.645C106.022 132.624 106.107 132.607 106.171 132.594L106.478 133.949C106.376 133.987 106.233 134.026 106.05 134.064C105.866 134.107 105.634 134.128 105.353 134.128C104.927 134.128 104.509 134.036 104.1 133.853C103.695 133.67 103.359 133.391 103.09 133.016C102.826 132.641 102.694 132.168 102.694 131.597V121.83ZM111.457 134.23C110.835 134.23 110.271 134.113 109.763 133.879C109.256 133.64 108.854 133.297 108.555 132.849C108.257 132.398 108.108 131.852 108.108 131.213C108.108 130.651 108.219 130.195 108.44 129.845C108.662 129.491 108.958 129.214 109.329 129.014C109.7 128.814 110.109 128.665 110.556 128.567C111.008 128.464 111.462 128.384 111.918 128.324C112.514 128.247 112.998 128.19 113.369 128.151C113.744 128.109 114.016 128.038 114.187 127.94C114.362 127.842 114.449 127.672 114.449 127.429V127.378C114.449 126.747 114.276 126.257 113.931 125.908C113.59 125.558 113.072 125.384 112.378 125.384C111.658 125.384 111.093 125.541 110.684 125.857C110.275 126.172 109.987 126.509 109.821 126.866L108.389 126.355C108.645 125.759 108.986 125.294 109.412 124.962C109.842 124.625 110.311 124.391 110.818 124.259C111.33 124.122 111.832 124.054 112.327 124.054C112.642 124.054 113.004 124.092 113.413 124.169C113.827 124.241 114.225 124.393 114.609 124.623C114.996 124.853 115.318 125.2 115.574 125.665C115.83 126.129 115.957 126.751 115.957 127.531V134H114.449V132.67H114.372C114.27 132.884 114.099 133.112 113.861 133.354C113.622 133.597 113.305 133.804 112.908 133.974C112.512 134.145 112.028 134.23 111.457 134.23ZM111.688 132.875C112.284 132.875 112.787 132.758 113.196 132.523C113.609 132.289 113.92 131.987 114.129 131.616C114.342 131.245 114.449 130.855 114.449 130.446V129.065C114.385 129.142 114.244 129.212 114.027 129.276C113.814 129.336 113.567 129.389 113.286 129.436C113.009 129.479 112.738 129.517 112.474 129.551C112.214 129.581 112.003 129.607 111.841 129.628C111.449 129.679 111.082 129.762 110.741 129.877C110.405 129.988 110.132 130.156 109.923 130.382C109.719 130.604 109.616 130.906 109.616 131.29C109.616 131.814 109.81 132.21 110.198 132.479C110.59 132.743 111.087 132.875 111.688 132.875ZM120.961 132.21L120.858 132.901C120.786 133.386 120.675 133.906 120.526 134.46C120.381 135.014 120.23 135.536 120.072 136.026C119.915 136.516 119.785 136.906 119.682 137.196H118.532C118.587 136.923 118.66 136.563 118.749 136.116C118.839 135.668 118.928 135.168 119.018 134.614C119.111 134.064 119.188 133.501 119.248 132.926L119.324 132.21H120.961ZM131.707 134.23C131.085 134.23 130.521 134.113 130.013 133.879C129.506 133.64 129.104 133.297 128.805 132.849C128.507 132.398 128.358 131.852 128.358 131.213C128.358 130.651 128.469 130.195 128.69 129.845C128.912 129.491 129.208 129.214 129.579 129.014C129.95 128.814 130.359 128.665 130.806 128.567C131.258 128.464 131.712 128.384 132.168 128.324C132.764 128.247 133.248 128.19 133.619 128.151C133.994 128.109 134.266 128.038 134.437 127.94C134.612 127.842 134.699 127.672 134.699 127.429V127.378C134.699 126.747 134.526 126.257 134.181 125.908C133.84 125.558 133.322 125.384 132.628 125.384C131.908 125.384 131.343 125.541 130.934 125.857C130.525 126.172 130.237 126.509 130.071 126.866L128.639 126.355C128.895 125.759 129.236 125.294 129.662 124.962C130.092 124.625 130.561 124.391 131.068 124.259C131.58 124.122 132.082 124.054 132.577 124.054C132.892 124.054 133.254 124.092 133.663 124.169C134.077 124.241 134.475 124.393 134.859 124.623C135.246 124.853 135.568 125.2 135.824 125.665C136.08 126.129 136.207 126.751 136.207 127.531V134H134.699V132.67H134.622C134.52 132.884 134.349 133.112 134.111 133.354C133.872 133.597 133.555 133.804 133.158 133.974C132.762 134.145 132.278 134.23 131.707 134.23ZM131.938 132.875C132.534 132.875 133.037 132.758 133.446 132.523C133.859 132.289 134.17 131.987 134.379 131.616C134.592 131.245 134.699 130.855 134.699 130.446V129.065C134.635 129.142 134.494 129.212 134.277 129.276C134.064 129.336 133.817 129.389 133.536 129.436C133.259 129.479 132.988 129.517 132.724 129.551C132.464 129.581 132.253 129.607 132.091 129.628C131.699 129.679 131.332 129.762 130.991 129.877C130.655 129.988 130.382 130.156 130.173 130.382C129.969 130.604 129.866 130.906 129.866 131.29C129.866 131.814 130.06 132.21 130.448 132.479C130.84 132.743 131.337 132.875 131.938 132.875ZM138.961 137.682V124.182H140.418V125.741H140.597C140.708 125.571 140.861 125.354 141.057 125.089C141.258 124.821 141.543 124.582 141.914 124.374C142.289 124.161 142.796 124.054 143.435 124.054C144.262 124.054 144.991 124.261 145.621 124.674C146.252 125.087 146.744 125.673 147.098 126.432C147.452 127.19 147.628 128.085 147.628 129.116C147.628 130.156 147.452 131.058 147.098 131.82C146.744 132.579 146.254 133.167 145.628 133.585C145.001 133.998 144.279 134.205 143.461 134.205C142.83 134.205 142.325 134.1 141.946 133.891C141.567 133.678 141.275 133.437 141.07 133.169C140.866 132.896 140.708 132.67 140.597 132.491H140.469V137.682H138.961ZM140.444 129.091C140.444 129.832 140.552 130.487 140.77 131.053C140.987 131.616 141.305 132.057 141.722 132.376C142.14 132.692 142.651 132.849 143.256 132.849C143.887 132.849 144.413 132.683 144.835 132.351C145.261 132.014 145.581 131.562 145.794 130.996C146.011 130.425 146.12 129.79 146.12 129.091C146.12 128.401 146.013 127.778 145.8 127.224C145.591 126.666 145.274 126.225 144.848 125.901C144.426 125.573 143.895 125.409 143.256 125.409C142.643 125.409 142.127 125.565 141.709 125.876C141.292 126.183 140.976 126.613 140.763 127.167C140.55 127.717 140.444 128.358 140.444 129.091ZM153.918 134.205C153.032 134.205 152.254 133.994 151.585 133.572C150.92 133.15 150.4 132.56 150.025 131.801C149.655 131.043 149.469 130.156 149.469 129.142C149.469 128.119 149.655 127.227 150.025 126.464C150.4 125.701 150.92 125.109 151.585 124.687C152.254 124.265 153.032 124.054 153.918 124.054C154.805 124.054 155.58 124.265 156.245 124.687C156.914 125.109 157.434 125.701 157.805 126.464C158.18 127.227 158.367 128.119 158.367 129.142C158.367 130.156 158.18 131.043 157.805 131.801C157.434 132.56 156.914 133.15 156.245 133.572C155.58 133.994 154.805 134.205 153.918 134.205ZM153.918 132.849C154.591 132.849 155.145 132.677 155.58 132.332C156.015 131.987 156.336 131.533 156.545 130.97C156.754 130.408 156.858 129.798 156.858 129.142C156.858 128.486 156.754 127.874 156.545 127.308C156.336 126.741 156.015 126.283 155.58 125.933C155.145 125.584 154.591 125.409 153.918 125.409C153.245 125.409 152.691 125.584 152.256 125.933C151.822 126.283 151.5 126.741 151.291 127.308C151.082 127.874 150.978 128.486 150.978 129.142C150.978 129.798 151.082 130.408 151.291 130.97C151.5 131.533 151.822 131.987 152.256 132.332C152.691 132.677 153.245 132.849 153.918 132.849ZM160.67 134V124.182H162.178V134H160.67ZM161.437 122.545C161.143 122.545 160.889 122.445 160.676 122.245C160.467 122.045 160.363 121.804 160.363 121.523C160.363 121.241 160.467 121.001 160.676 120.8C160.889 120.6 161.143 120.5 161.437 120.5C161.731 120.5 161.982 120.6 162.191 120.8C162.404 121.001 162.511 121.241 162.511 121.523C162.511 121.804 162.404 122.045 162.191 122.245C161.982 122.445 161.731 122.545 161.437 122.545ZM169.058 134.205C168.112 134.205 167.296 133.996 166.61 133.578C165.928 133.156 165.401 132.568 165.031 131.814C164.664 131.055 164.481 130.173 164.481 129.168C164.481 128.162 164.664 127.276 165.031 126.509C165.401 125.737 165.917 125.136 166.578 124.706C167.242 124.271 168.018 124.054 168.904 124.054C169.416 124.054 169.921 124.139 170.419 124.31C170.918 124.48 171.372 124.757 171.781 125.141C172.19 125.52 172.516 126.023 172.759 126.649C173.002 127.276 173.123 128.047 173.123 128.963V129.602H165.555V128.298H171.589C171.589 127.744 171.478 127.25 171.257 126.815C171.039 126.381 170.728 126.038 170.323 125.786C169.923 125.535 169.45 125.409 168.904 125.409C168.303 125.409 167.784 125.558 167.345 125.857C166.91 126.151 166.575 126.534 166.341 127.007C166.107 127.48 165.99 127.987 165.99 128.528V129.398C165.99 130.139 166.117 130.768 166.373 131.283C166.633 131.795 166.993 132.185 167.453 132.453C167.914 132.717 168.448 132.849 169.058 132.849C169.454 132.849 169.812 132.794 170.132 132.683C170.455 132.568 170.735 132.398 170.969 132.172C171.203 131.942 171.384 131.656 171.512 131.315L172.97 131.724C172.816 132.219 172.558 132.653 172.196 133.028C171.834 133.399 171.387 133.689 170.854 133.898C170.321 134.102 169.722 134.205 169.058 134.205ZM184.597 134.205C183.651 134.205 182.835 133.996 182.149 133.578C181.467 133.156 180.941 132.568 180.57 131.814C180.203 131.055 180.02 130.173 180.02 129.168C180.02 128.162 180.203 127.276 180.57 126.509C180.941 125.737 181.456 125.136 182.117 124.706C182.781 124.271 183.557 124.054 184.443 124.054C184.955 124.054 185.46 124.139 185.958 124.31C186.457 124.48 186.911 124.757 187.32 125.141C187.729 125.52 188.055 126.023 188.298 126.649C188.541 127.276 188.662 128.047 188.662 128.963V129.602H181.094V128.298H187.128C187.128 127.744 187.017 127.25 186.796 126.815C186.578 126.381 186.267 126.038 185.862 125.786C185.462 125.535 184.989 125.409 184.443 125.409C183.843 125.409 183.323 125.558 182.884 125.857C182.449 126.151 182.115 126.534 181.88 127.007C181.646 127.48 181.529 127.987 181.529 128.528V129.398C181.529 130.139 181.656 130.768 181.912 131.283C182.172 131.795 182.532 132.185 182.992 132.453C183.453 132.717 183.987 132.849 184.597 132.849C184.993 132.849 185.351 132.794 185.671 132.683C185.994 132.568 186.274 132.398 186.508 132.172C186.742 131.942 186.923 131.656 187.051 131.315L188.509 131.724C188.355 132.219 188.097 132.653 187.735 133.028C187.373 133.399 186.926 133.689 186.393 133.898C185.86 134.102 185.262 134.205 184.597 134.205ZM198.909 134.23C198.286 134.23 197.722 134.113 197.215 133.879C196.708 133.64 196.305 133.297 196.007 132.849C195.708 132.398 195.559 131.852 195.559 131.213C195.559 130.651 195.67 130.195 195.892 129.845C196.113 129.491 196.409 129.214 196.78 129.014C197.151 128.814 197.56 128.665 198.007 128.567C198.459 128.464 198.913 128.384 199.369 128.324C199.965 128.247 200.449 128.19 200.82 128.151C201.195 128.109 201.468 128.038 201.638 127.94C201.813 127.842 201.9 127.672 201.9 127.429V127.378C201.9 126.747 201.727 126.257 201.382 125.908C201.041 125.558 200.524 125.384 199.829 125.384C199.109 125.384 198.544 125.541 198.135 125.857C197.726 126.172 197.438 126.509 197.272 126.866L195.84 126.355C196.096 125.759 196.437 125.294 196.863 124.962C197.294 124.625 197.762 124.391 198.269 124.259C198.781 124.122 199.284 124.054 199.778 124.054C200.093 124.054 200.455 124.092 200.865 124.169C201.278 124.241 201.676 124.393 202.06 124.623C202.448 124.853 202.769 125.2 203.025 125.665C203.281 126.129 203.409 126.751 203.409 127.531V134H201.9V132.67H201.823C201.721 132.884 201.551 133.112 201.312 133.354C201.073 133.597 200.756 133.804 200.36 133.974C199.963 134.145 199.48 134.23 198.909 134.23ZM199.139 132.875C199.735 132.875 200.238 132.758 200.647 132.523C201.061 132.289 201.372 131.987 201.58 131.616C201.794 131.245 201.9 130.855 201.9 130.446V129.065C201.836 129.142 201.695 129.212 201.478 129.276C201.265 129.336 201.018 129.389 200.737 129.436C200.46 129.479 200.189 129.517 199.925 129.551C199.665 129.581 199.454 129.607 199.292 129.628C198.9 129.679 198.534 129.762 198.193 129.877C197.856 129.988 197.583 130.156 197.374 130.382C197.17 130.604 197.068 130.906 197.068 131.29C197.068 131.814 197.262 132.21 197.649 132.479C198.041 132.743 198.538 132.875 199.139 132.875ZM206.162 124.182H207.67V134.716C207.67 135.321 207.566 135.845 207.357 136.288C207.153 136.732 206.842 137.075 206.424 137.317C206.011 137.56 205.489 137.682 204.858 137.682C204.807 137.682 204.756 137.682 204.705 137.682C204.653 137.682 204.602 137.682 204.551 137.682V136.276C204.602 136.276 204.649 136.276 204.692 136.276C204.734 136.276 204.781 136.276 204.832 136.276C205.293 136.276 205.629 136.139 205.842 135.866C206.055 135.598 206.162 135.214 206.162 134.716V124.182ZM206.903 122.545C206.609 122.545 206.356 122.445 206.143 122.245C205.934 122.045 205.83 121.804 205.83 121.523C205.83 121.241 205.934 121.001 206.143 120.8C206.356 120.6 206.609 120.5 206.903 120.5C207.197 120.5 207.449 120.6 207.658 120.8C207.871 121.001 207.977 121.241 207.977 121.523C207.977 121.804 207.871 122.045 207.658 122.245C207.449 122.445 207.197 122.545 206.903 122.545ZM216.621 129.986V124.182H218.129V134H216.621V132.338H216.519C216.289 132.837 215.931 133.261 215.445 133.61C214.959 133.955 214.345 134.128 213.604 134.128C212.99 134.128 212.445 133.994 211.968 133.725C211.49 133.452 211.115 133.043 210.843 132.498C210.57 131.948 210.433 131.256 210.433 130.42V124.182H211.942V130.318C211.942 131.034 212.142 131.605 212.543 132.031C212.948 132.457 213.463 132.67 214.09 132.67C214.465 132.67 214.846 132.575 215.234 132.383C215.626 132.191 215.954 131.897 216.218 131.501C216.487 131.104 216.621 130.599 216.621 129.986ZM224.6 134.205C223.782 134.205 223.059 133.998 222.433 133.585C221.806 133.167 221.316 132.579 220.963 131.82C220.609 131.058 220.432 130.156 220.432 129.116C220.432 128.085 220.609 127.19 220.963 126.432C221.316 125.673 221.809 125.087 222.439 124.674C223.07 124.261 223.799 124.054 224.625 124.054C225.265 124.054 225.77 124.161 226.14 124.374C226.515 124.582 226.801 124.821 226.997 125.089C227.197 125.354 227.353 125.571 227.463 125.741H227.591V120.909H229.1V134H227.642V132.491H227.463C227.353 132.67 227.195 132.896 226.99 133.169C226.786 133.437 226.494 133.678 226.115 133.891C225.735 134.1 225.23 134.205 224.6 134.205ZM224.804 132.849C225.409 132.849 225.921 132.692 226.338 132.376C226.756 132.057 227.074 131.616 227.291 131.053C227.508 130.487 227.617 129.832 227.617 129.091C227.617 128.358 227.51 127.717 227.297 127.167C227.084 126.613 226.769 126.183 226.351 125.876C225.934 125.565 225.418 125.409 224.804 125.409C224.165 125.409 223.632 125.573 223.206 125.901C222.784 126.225 222.467 126.666 222.254 127.224C222.045 127.778 221.941 128.401 221.941 129.091C221.941 129.79 222.047 130.425 222.26 130.996C222.478 131.562 222.797 132.014 223.219 132.351C223.645 132.683 224.174 132.849 224.804 132.849ZM236.189 134.205C235.243 134.205 234.426 133.996 233.74 133.578C233.059 133.156 232.532 132.568 232.162 131.814C231.795 131.055 231.612 130.173 231.612 129.168C231.612 128.162 231.795 127.276 232.162 126.509C232.532 125.737 233.048 125.136 233.708 124.706C234.373 124.271 235.149 124.054 236.035 124.054C236.547 124.054 237.051 124.139 237.55 124.31C238.049 124.48 238.502 124.757 238.912 125.141C239.321 125.52 239.647 126.023 239.89 126.649C240.132 127.276 240.254 128.047 240.254 128.963V129.602H232.686V128.298H238.72C238.72 127.744 238.609 127.25 238.387 126.815C238.17 126.381 237.859 126.038 237.454 125.786C237.054 125.535 236.581 125.409 236.035 125.409C235.434 125.409 234.914 125.558 234.475 125.857C234.041 126.151 233.706 126.534 233.472 127.007C233.238 127.48 233.12 127.987 233.12 128.528V129.398C233.12 130.139 233.248 130.768 233.504 131.283C233.764 131.795 234.124 132.185 234.584 132.453C235.044 132.717 235.579 132.849 236.189 132.849C236.585 132.849 236.943 132.794 237.262 132.683C237.586 132.568 237.865 132.398 238.1 132.172C238.334 131.942 238.515 131.656 238.643 131.315L240.1 131.724C239.947 132.219 239.689 132.653 239.327 133.028C238.965 133.399 238.517 133.689 237.985 133.898C237.452 134.102 236.853 134.205 236.189 134.205ZM247.611 124.182H249.12V134.716C249.12 135.321 249.015 135.845 248.806 136.288C248.602 136.732 248.291 137.075 247.873 137.317C247.46 137.56 246.938 137.682 246.307 137.682C246.256 137.682 246.205 137.682 246.154 137.682C246.103 137.682 246.051 137.682 246 137.682V136.276C246.051 136.276 246.098 136.276 246.141 136.276C246.184 136.276 246.23 136.276 246.282 136.276C246.742 136.276 247.078 136.139 247.292 135.866C247.505 135.598 247.611 135.214 247.611 134.716V124.182ZM248.353 122.545C248.059 122.545 247.805 122.445 247.592 122.245C247.383 122.045 247.279 121.804 247.279 121.523C247.279 121.241 247.383 121.001 247.592 120.8C247.805 120.6 248.059 120.5 248.353 120.5C248.647 120.5 248.898 120.6 249.107 120.8C249.32 121.001 249.426 121.241 249.426 121.523C249.426 121.804 249.32 122.045 249.107 122.245C248.898 122.445 248.647 122.545 248.353 122.545ZM255.871 134.205C254.985 134.205 254.207 133.994 253.538 133.572C252.873 133.15 252.354 132.56 251.979 131.801C251.608 131.043 251.422 130.156 251.422 129.142C251.422 128.119 251.608 127.227 251.979 126.464C252.354 125.701 252.873 125.109 253.538 124.687C254.207 124.265 254.985 124.054 255.871 124.054C256.758 124.054 257.533 124.265 258.198 124.687C258.867 125.109 259.387 125.701 259.758 126.464C260.133 127.227 260.32 128.119 260.32 129.142C260.32 130.156 260.133 131.043 259.758 131.801C259.387 132.56 258.867 133.15 258.198 133.572C257.533 133.994 256.758 134.205 255.871 134.205ZM255.871 132.849C256.545 132.849 257.099 132.677 257.533 132.332C257.968 131.987 258.29 131.533 258.498 130.97C258.707 130.408 258.812 129.798 258.812 129.142C258.812 128.486 258.707 127.874 258.498 127.308C258.29 126.741 257.968 126.283 257.533 125.933C257.099 125.584 256.545 125.409 255.871 125.409C255.198 125.409 254.644 125.584 254.209 125.933C253.775 126.283 253.453 126.741 253.244 127.308C253.035 127.874 252.931 128.486 252.931 129.142C252.931 129.798 253.035 130.408 253.244 130.97C253.453 131.533 253.775 131.987 254.209 132.332C254.644 132.677 255.198 132.849 255.871 132.849ZM270.3 124.182L266.669 134H265.135L261.504 124.182H263.141L265.851 132.006H265.953L268.663 124.182H270.3ZM276.056 134.205C275.11 134.205 274.294 133.996 273.608 133.578C272.926 133.156 272.4 132.568 272.029 131.814C271.662 131.055 271.479 130.173 271.479 129.168C271.479 128.162 271.662 127.276 272.029 126.509C272.4 125.737 272.915 125.136 273.576 124.706C274.24 124.271 275.016 124.054 275.902 124.054C276.414 124.054 276.919 124.139 277.417 124.31C277.916 124.48 278.37 124.757 278.779 125.141C279.188 125.52 279.514 126.023 279.757 126.649C280 127.276 280.121 128.047 280.121 128.963V129.602H272.553V128.298H278.587C278.587 127.744 278.476 127.25 278.255 126.815C278.037 126.381 277.726 126.038 277.321 125.786C276.921 125.535 276.448 125.409 275.902 125.409C275.301 125.409 274.782 125.558 274.343 125.857C273.908 126.151 273.574 126.534 273.339 127.007C273.105 127.48 272.988 127.987 272.988 128.528V129.398C272.988 130.139 273.115 130.768 273.371 131.283C273.631 131.795 273.991 132.185 274.451 132.453C274.912 132.717 275.446 132.849 276.056 132.849C276.452 132.849 276.81 132.794 277.13 132.683C277.453 132.568 277.733 132.398 277.967 132.172C278.201 131.942 278.382 131.656 278.51 131.315L279.968 131.724C279.814 132.219 279.556 132.653 279.194 133.028C278.832 133.399 278.385 133.689 277.852 133.898C277.319 134.102 276.721 134.205 276.056 134.205ZM283.924 128.094V134H282.416V124.182H283.873V125.716H284.001C284.231 125.217 284.581 124.817 285.049 124.514C285.518 124.207 286.123 124.054 286.865 124.054C287.529 124.054 288.111 124.19 288.61 124.463C289.108 124.732 289.496 125.141 289.773 125.69C290.05 126.236 290.189 126.926 290.189 127.761V134H288.68V127.864C288.68 127.092 288.48 126.491 288.079 126.061C287.679 125.626 287.129 125.409 286.43 125.409C285.949 125.409 285.518 125.513 285.139 125.722C284.764 125.931 284.468 126.236 284.25 126.636C284.033 127.037 283.924 127.523 283.924 128.094ZM299.9 126.381L298.545 126.764C298.459 126.538 298.334 126.319 298.167 126.106C298.006 125.888 297.784 125.71 297.503 125.569C297.221 125.428 296.861 125.358 296.422 125.358C295.822 125.358 295.321 125.496 294.92 125.773C294.524 126.046 294.326 126.393 294.326 126.815C294.326 127.19 294.462 127.487 294.735 127.704C295.008 127.921 295.434 128.102 296.013 128.247L297.471 128.605C298.349 128.818 299.003 129.144 299.433 129.583C299.863 130.018 300.079 130.578 300.079 131.264C300.079 131.827 299.917 132.33 299.593 132.773C299.273 133.216 298.826 133.565 298.251 133.821C297.675 134.077 297.006 134.205 296.243 134.205C295.242 134.205 294.413 133.987 293.757 133.553C293.101 133.118 292.685 132.483 292.51 131.648L293.942 131.29C294.079 131.818 294.336 132.214 294.716 132.479C295.099 132.743 295.6 132.875 296.218 132.875C296.921 132.875 297.479 132.726 297.893 132.428C298.31 132.125 298.519 131.763 298.519 131.341C298.519 131 298.4 130.714 298.161 130.484C297.922 130.25 297.556 130.075 297.062 129.96L295.425 129.577C294.526 129.364 293.866 129.033 293.444 128.586C293.026 128.134 292.817 127.57 292.817 126.892C292.817 126.338 292.973 125.848 293.284 125.422C293.599 124.996 294.028 124.661 294.569 124.418C295.114 124.175 295.732 124.054 296.422 124.054C297.394 124.054 298.157 124.267 298.711 124.693C299.269 125.119 299.665 125.682 299.9 126.381ZM310.301 134.23C309.679 134.23 309.114 134.113 308.607 133.879C308.1 133.64 307.697 133.297 307.399 132.849C307.101 132.398 306.952 131.852 306.952 131.213C306.952 130.651 307.063 130.195 307.284 129.845C307.506 129.491 307.802 129.214 308.173 129.014C308.543 128.814 308.952 128.665 309.4 128.567C309.852 128.464 310.305 128.384 310.761 128.324C311.358 128.247 311.842 128.19 312.212 128.151C312.587 128.109 312.86 128.038 313.031 127.94C313.205 127.842 313.293 127.672 313.293 127.429V127.378C313.293 126.747 313.12 126.257 312.775 125.908C312.434 125.558 311.916 125.384 311.222 125.384C310.501 125.384 309.937 125.541 309.528 125.857C309.119 126.172 308.831 126.509 308.665 126.866L307.233 126.355C307.489 125.759 307.83 125.294 308.256 124.962C308.686 124.625 309.155 124.391 309.662 124.259C310.173 124.122 310.676 124.054 311.17 124.054C311.486 124.054 311.848 124.092 312.257 124.169C312.67 124.241 313.069 124.393 313.452 124.623C313.84 124.853 314.162 125.2 314.418 125.665C314.673 126.129 314.801 126.751 314.801 127.531V134H313.293V132.67H313.216C313.114 132.884 312.943 133.112 312.705 133.354C312.466 133.597 312.148 133.804 311.752 133.974C311.356 134.145 310.872 134.23 310.301 134.23ZM310.531 132.875C311.128 132.875 311.631 132.758 312.04 132.523C312.453 132.289 312.764 131.987 312.973 131.616C313.186 131.245 313.293 130.855 313.293 130.446V129.065C313.229 129.142 313.088 129.212 312.871 129.276C312.658 129.336 312.411 129.389 312.129 129.436C311.852 129.479 311.582 129.517 311.317 129.551C311.058 129.581 310.847 129.607 310.685 129.628C310.293 129.679 309.926 129.762 309.585 129.877C309.249 129.988 308.976 130.156 308.767 130.382C308.563 130.604 308.46 130.906 308.46 131.29C308.46 131.814 308.654 132.21 309.042 132.479C309.434 132.743 309.93 132.875 310.531 132.875ZM321.824 124.182V125.46H316.736V124.182H321.824ZM318.219 121.83H319.728V131.188C319.728 131.614 319.79 131.933 319.913 132.146C320.041 132.355 320.203 132.496 320.399 132.568C320.599 132.636 320.81 132.67 321.032 132.67C321.198 132.67 321.334 132.662 321.441 132.645C321.547 132.624 321.633 132.607 321.697 132.594L322.003 133.949C321.901 133.987 321.758 134.026 321.575 134.064C321.392 134.107 321.16 134.128 320.878 134.128C320.452 134.128 320.035 134.036 319.626 133.853C319.221 133.67 318.884 133.391 318.616 133.016C318.351 132.641 318.219 132.168 318.219 131.597V121.83ZM325.813 120.909V134H324.305V120.909H325.813ZM332.692 134.205C331.746 134.205 330.93 133.996 330.244 133.578C329.562 133.156 329.036 132.568 328.665 131.814C328.299 131.055 328.116 130.173 328.116 129.168C328.116 128.162 328.299 127.276 328.665 126.509C329.036 125.737 329.552 125.136 330.212 124.706C330.877 124.271 331.653 124.054 332.539 124.054C333.05 124.054 333.555 124.139 334.054 124.31C334.553 124.48 335.006 124.757 335.415 125.141C335.825 125.52 336.151 126.023 336.393 126.649C336.636 127.276 336.758 128.047 336.758 128.963V129.602H329.19V128.298H335.224C335.224 127.744 335.113 127.25 334.891 126.815C334.674 126.381 334.363 126.038 333.958 125.786C333.558 125.535 333.085 125.409 332.539 125.409C331.938 125.409 331.418 125.558 330.979 125.857C330.545 126.151 330.21 126.534 329.976 127.007C329.741 127.48 329.624 127.987 329.624 128.528V129.398C329.624 130.139 329.752 130.768 330.008 131.283C330.268 131.795 330.628 132.185 331.088 132.453C331.548 132.717 332.083 132.849 332.692 132.849C333.089 132.849 333.447 132.794 333.766 132.683C334.09 132.568 334.369 132.398 334.604 132.172C334.838 131.942 335.019 131.656 335.147 131.315L336.604 131.724C336.451 132.219 336.193 132.653 335.831 133.028C335.469 133.399 335.021 133.689 334.489 133.898C333.956 134.102 333.357 134.205 332.692 134.205ZM343.322 124.182V125.46H338.234V124.182H343.322ZM339.717 121.83H341.226V131.188C341.226 131.614 341.288 131.933 341.411 132.146C341.539 132.355 341.701 132.496 341.897 132.568C342.097 132.636 342.308 132.67 342.53 132.67C342.696 132.67 342.832 132.662 342.939 132.645C343.045 132.624 343.131 132.607 343.195 132.594L343.501 133.949C343.399 133.987 343.256 134.026 343.073 134.064C342.89 134.107 342.658 134.128 342.376 134.128C341.95 134.128 341.533 134.036 341.124 133.853C340.719 133.67 340.382 133.391 340.114 133.016C339.849 132.641 339.717 132.168 339.717 131.597V121.83ZM348.481 134.23C347.859 134.23 347.294 134.113 346.787 133.879C346.28 133.64 345.877 133.297 345.579 132.849C345.281 132.398 345.131 131.852 345.131 131.213C345.131 130.651 345.242 130.195 345.464 129.845C345.685 129.491 345.982 129.214 346.352 129.014C346.723 128.814 347.132 128.665 347.58 128.567C348.031 128.464 348.485 128.384 348.941 128.324C349.538 128.247 350.021 128.19 350.392 128.151C350.767 128.109 351.04 128.038 351.21 127.94C351.385 127.842 351.472 127.672 351.472 127.429V127.378C351.472 126.747 351.3 126.257 350.955 125.908C350.614 125.558 350.096 125.384 349.401 125.384C348.681 125.384 348.116 125.541 347.707 125.857C347.298 126.172 347.011 126.509 346.844 126.866L345.413 126.355C345.668 125.759 346.009 125.294 346.435 124.962C346.866 124.625 347.335 124.391 347.842 124.259C348.353 124.122 348.856 124.054 349.35 124.054C349.665 124.054 350.028 124.092 350.437 124.169C350.85 124.241 351.249 124.393 351.632 124.623C352.02 124.853 352.342 125.2 352.597 125.665C352.853 126.129 352.981 126.751 352.981 127.531V134H351.472V132.67H351.396C351.293 132.884 351.123 133.112 350.884 133.354C350.646 133.597 350.328 133.804 349.932 133.974C349.536 134.145 349.052 134.23 348.481 134.23ZM348.711 132.875C349.308 132.875 349.81 132.758 350.219 132.523C350.633 132.289 350.944 131.987 351.153 131.616C351.366 131.245 351.472 130.855 351.472 130.446V129.065C351.408 129.142 351.268 129.212 351.05 129.276C350.837 129.336 350.59 129.389 350.309 129.436C350.032 129.479 349.761 129.517 349.497 129.551C349.237 129.581 349.026 129.607 348.864 129.628C348.472 129.679 348.106 129.762 347.765 129.877C347.428 129.988 347.156 130.156 346.947 130.382C346.742 130.604 346.64 130.906 346.64 131.29C346.64 131.814 346.834 132.21 347.222 132.479C347.614 132.743 348.11 132.875 348.711 132.875ZM362.689 126.381L361.334 126.764C361.248 126.538 361.123 126.319 360.956 126.106C360.795 125.888 360.573 125.71 360.292 125.569C360.01 125.428 359.65 125.358 359.211 125.358C358.611 125.358 358.11 125.496 357.709 125.773C357.313 126.046 357.115 126.393 357.115 126.815C357.115 127.19 357.251 127.487 357.524 127.704C357.797 127.921 358.223 128.102 358.802 128.247L360.26 128.605C361.138 128.818 361.792 129.144 362.222 129.583C362.653 130.018 362.868 130.578 362.868 131.264C362.868 131.827 362.706 132.33 362.382 132.773C362.062 133.216 361.615 133.565 361.04 133.821C360.464 134.077 359.795 134.205 359.032 134.205C358.031 134.205 357.202 133.987 356.546 133.553C355.89 133.118 355.474 132.483 355.3 131.648L356.731 131.29C356.868 131.818 357.126 132.214 357.505 132.479C357.888 132.743 358.389 132.875 359.007 132.875C359.71 132.875 360.268 132.726 360.682 132.428C361.099 132.125 361.308 131.763 361.308 131.341C361.308 131 361.189 130.714 360.95 130.484C360.711 130.25 360.345 130.075 359.851 129.96L358.214 129.577C357.315 129.364 356.655 129.033 356.233 128.586C355.815 128.134 355.606 127.57 355.606 126.892C355.606 126.338 355.762 125.848 356.073 125.422C356.388 124.996 356.817 124.661 357.358 124.418C357.903 124.175 358.521 124.054 359.211 124.054C360.183 124.054 360.946 124.267 361.5 124.693C362.058 125.119 362.454 125.682 362.689 126.381ZM373.09 134.23C372.468 134.23 371.903 134.113 371.396 133.879C370.889 133.64 370.487 133.297 370.188 132.849C369.89 132.398 369.741 131.852 369.741 131.213C369.741 130.651 369.852 130.195 370.073 129.845C370.295 129.491 370.591 129.214 370.962 129.014C371.332 128.814 371.741 128.665 372.189 128.567C372.641 128.464 373.094 128.384 373.55 128.324C374.147 128.247 374.631 128.19 375.001 128.151C375.376 128.109 375.649 128.038 375.82 127.94C375.994 127.842 376.082 127.672 376.082 127.429V127.378C376.082 126.747 375.909 126.257 375.564 125.908C375.223 125.558 374.705 125.384 374.011 125.384C373.29 125.384 372.726 125.541 372.317 125.857C371.908 126.172 371.62 126.509 371.454 126.866L370.022 126.355C370.278 125.759 370.619 125.294 371.045 124.962C371.475 124.625 371.944 124.391 372.451 124.259C372.962 124.122 373.465 124.054 373.96 124.054C374.275 124.054 374.637 124.092 375.046 124.169C375.46 124.241 375.858 124.393 376.241 124.623C376.629 124.853 376.951 125.2 377.207 125.665C377.462 126.129 377.59 126.751 377.59 127.531V134H376.082V132.67H376.005C375.903 132.884 375.732 133.112 375.494 133.354C375.255 133.597 374.938 133.804 374.541 133.974C374.145 134.145 373.661 134.23 373.09 134.23ZM373.32 132.875C373.917 132.875 374.42 132.758 374.829 132.523C375.242 132.289 375.553 131.987 375.762 131.616C375.975 131.245 376.082 130.855 376.082 130.446V129.065C376.018 129.142 375.877 129.212 375.66 129.276C375.447 129.336 375.2 129.389 374.918 129.436C374.641 129.479 374.371 129.517 374.107 129.551C373.847 129.581 373.636 129.607 373.474 129.628C373.082 129.679 372.715 129.762 372.374 129.877C372.038 129.988 371.765 130.156 371.556 130.382C371.352 130.604 371.249 130.906 371.249 131.29C371.249 131.814 371.443 132.21 371.831 132.479C372.223 132.743 372.719 132.875 373.32 132.875ZM385.611 134V120.909H387.119V125.741H387.247C387.358 125.571 387.511 125.354 387.707 125.089C387.907 124.821 388.193 124.582 388.564 124.374C388.939 124.161 389.446 124.054 390.085 124.054C390.912 124.054 391.64 124.261 392.271 124.674C392.902 125.087 393.394 125.673 393.748 126.432C394.101 127.19 394.278 128.085 394.278 129.116C394.278 130.156 394.101 131.058 393.748 131.82C393.394 132.579 392.904 133.167 392.278 133.585C391.651 133.998 390.929 134.205 390.111 134.205C389.48 134.205 388.975 134.1 388.596 133.891C388.216 133.678 387.925 133.437 387.72 133.169C387.515 132.896 387.358 132.67 387.247 132.491H387.068V134H385.611ZM387.094 129.091C387.094 129.832 387.202 130.487 387.42 131.053C387.637 131.616 387.954 132.057 388.372 132.376C388.79 132.692 389.301 132.849 389.906 132.849C390.537 132.849 391.063 132.683 391.485 132.351C391.911 132.014 392.231 131.562 392.444 130.996C392.661 130.425 392.77 129.79 392.77 129.091C392.77 128.401 392.663 127.778 392.45 127.224C392.241 126.666 391.924 126.225 391.498 125.901C391.076 125.573 390.545 125.409 389.906 125.409C389.292 125.409 388.777 125.565 388.359 125.876C387.942 126.183 387.626 126.613 387.413 127.167C387.2 127.717 387.094 128.358 387.094 129.091ZM396.586 134V124.182H398.043V125.665H398.145C398.324 125.179 398.648 124.785 399.117 124.482C399.586 124.18 400.114 124.028 400.702 124.028C400.813 124.028 400.952 124.031 401.118 124.035C401.284 124.039 401.41 124.045 401.495 124.054V125.588C401.444 125.575 401.327 125.556 401.143 125.531C400.964 125.501 400.775 125.486 400.574 125.486C400.097 125.486 399.671 125.586 399.296 125.786C398.925 125.982 398.631 126.255 398.414 126.604C398.201 126.95 398.094 127.344 398.094 127.787V134H396.586ZM403.283 134V124.182H404.792V134H403.283ZM404.05 122.545C403.756 122.545 403.502 122.445 403.289 122.245C403.081 122.045 402.976 121.804 402.976 121.523C402.976 121.241 403.081 121.001 403.289 120.8C403.502 120.6 403.756 120.5 404.05 120.5C404.344 120.5 404.596 120.6 404.804 120.8C405.017 121.001 405.124 121.241 405.124 121.523C405.124 121.804 405.017 122.045 404.804 122.245C404.596 122.445 404.344 122.545 404.05 122.545ZM409.063 120.909V134H407.555V120.909H409.063ZM413.335 128.094V134H411.826V120.909H413.335V125.716H413.462C413.692 125.209 414.038 124.806 414.498 124.508C414.962 124.205 415.58 124.054 416.352 124.054C417.021 124.054 417.607 124.188 418.109 124.457C418.612 124.721 419.002 125.128 419.279 125.678C419.56 126.223 419.701 126.918 419.701 127.761V134H418.192V127.864C418.192 127.084 417.99 126.481 417.585 126.055C417.185 125.624 416.629 125.409 415.917 125.409C415.423 125.409 414.979 125.513 414.587 125.722C414.2 125.931 413.893 126.236 413.667 126.636C413.445 127.037 413.335 127.523 413.335 128.094ZM425.35 134.23C424.728 134.23 424.163 134.113 423.656 133.879C423.149 133.64 422.746 133.297 422.448 132.849C422.15 132.398 422.001 131.852 422.001 131.213C422.001 130.651 422.111 130.195 422.333 129.845C422.555 129.491 422.851 129.214 423.221 129.014C423.592 128.814 424.001 128.665 424.449 128.567C424.9 128.464 425.354 128.384 425.81 128.324C426.407 128.247 426.89 128.19 427.261 128.151C427.636 128.109 427.909 128.038 428.079 127.94C428.254 127.842 428.341 127.672 428.341 127.429V127.378C428.341 126.747 428.169 126.257 427.824 125.908C427.483 125.558 426.965 125.384 426.27 125.384C425.55 125.384 424.986 125.541 424.577 125.857C424.167 126.172 423.88 126.509 423.714 126.866L422.282 126.355C422.537 125.759 422.878 125.294 423.305 124.962C423.735 124.625 424.204 124.391 424.711 124.259C425.222 124.122 425.725 124.054 426.219 124.054C426.535 124.054 426.897 124.092 427.306 124.169C427.719 124.241 428.118 124.393 428.501 124.623C428.889 124.853 429.211 125.2 429.466 125.665C429.722 126.129 429.85 126.751 429.85 127.531V134H428.341V132.67H428.265C428.162 132.884 427.992 133.112 427.753 133.354C427.515 133.597 427.197 133.804 426.801 133.974C426.405 134.145 425.921 134.23 425.35 134.23ZM425.58 132.875C426.177 132.875 426.68 132.758 427.089 132.523C427.502 132.289 427.813 131.987 428.022 131.616C428.235 131.245 428.341 130.855 428.341 130.446V129.065C428.278 129.142 428.137 129.212 427.92 129.276C427.706 129.336 427.459 129.389 427.178 129.436C426.901 129.479 426.631 129.517 426.366 129.551C426.106 129.581 425.895 129.607 425.733 129.628C425.341 129.679 424.975 129.762 424.634 129.877C424.297 129.988 424.025 130.156 423.816 130.382C423.611 130.604 423.509 130.906 423.509 131.29C423.509 131.814 423.703 132.21 424.091 132.479C424.483 132.743 424.979 132.875 425.58 132.875ZM432.603 134V124.182H434.061V125.665H434.163C434.342 125.179 434.666 124.785 435.135 124.482C435.603 124.18 436.132 124.028 436.72 124.028C436.831 124.028 436.969 124.031 437.135 124.035C437.301 124.039 437.427 124.045 437.512 124.054V125.588C437.461 125.575 437.344 125.556 437.161 125.531C436.982 125.501 436.792 125.486 436.592 125.486C436.115 125.486 435.689 125.586 435.314 125.786C434.943 125.982 434.649 126.255 434.431 126.604C434.218 126.95 434.112 127.344 434.112 127.787V134H432.603ZM443.118 134.205C442.172 134.205 441.356 133.996 440.67 133.578C439.988 133.156 439.462 132.568 439.091 131.814C438.725 131.055 438.542 130.173 438.542 129.168C438.542 128.162 438.725 127.276 439.091 126.509C439.462 125.737 439.978 125.136 440.638 124.706C441.303 124.271 442.078 124.054 442.965 124.054C443.476 124.054 443.981 124.139 444.48 124.31C444.978 124.48 445.432 124.757 445.841 125.141C446.25 125.52 446.576 126.023 446.819 126.649C447.062 127.276 447.184 128.047 447.184 128.963V129.602H439.615V128.298H445.65C445.65 127.744 445.539 127.25 445.317 126.815C445.1 126.381 444.789 126.038 444.384 125.786C443.983 125.535 443.51 125.409 442.965 125.409C442.364 125.409 441.844 125.558 441.405 125.857C440.971 126.151 440.636 126.534 440.402 127.007C440.167 127.48 440.05 127.987 440.05 128.528V129.398C440.05 130.139 440.178 130.768 440.434 131.283C440.694 131.795 441.054 132.185 441.514 132.453C441.974 132.717 442.509 132.849 443.118 132.849C443.515 132.849 443.873 132.794 444.192 132.683C444.516 132.568 444.795 132.398 445.029 132.172C445.264 131.942 445.445 131.656 445.573 131.315L447.03 131.724C446.877 132.219 446.619 132.653 446.257 133.028C445.895 133.399 445.447 133.689 444.914 133.898C444.382 134.102 443.783 134.205 443.118 134.205ZM449.478 134V124.182H450.936V125.716H451.064C451.268 125.192 451.598 124.785 452.054 124.495C452.51 124.201 453.058 124.054 453.697 124.054C454.345 124.054 454.884 124.201 455.314 124.495C455.749 124.785 456.088 125.192 456.331 125.716H456.433C456.684 125.209 457.061 124.806 457.564 124.508C458.067 124.205 458.67 124.054 459.373 124.054C460.251 124.054 460.969 124.329 461.527 124.879C462.086 125.424 462.365 126.274 462.365 127.429V134H460.856V127.429C460.856 126.705 460.658 126.187 460.262 125.876C459.865 125.565 459.399 125.409 458.862 125.409C458.172 125.409 457.637 125.618 457.257 126.036C456.878 126.449 456.689 126.973 456.689 127.608V134H455.154V127.276C455.154 126.717 454.973 126.268 454.611 125.927C454.249 125.582 453.782 125.409 453.211 125.409C452.819 125.409 452.453 125.513 452.112 125.722C451.775 125.931 451.502 126.221 451.294 126.592C451.089 126.958 450.987 127.382 450.987 127.864V134H449.478ZM466.222 134.102C465.907 134.102 465.636 133.989 465.411 133.763C465.185 133.538 465.072 133.267 465.072 132.952C465.072 132.636 465.185 132.366 465.411 132.14C465.636 131.914 465.907 131.801 466.222 131.801C466.538 131.801 466.808 131.914 467.034 132.14C467.26 132.366 467.373 132.636 467.373 132.952C467.373 133.161 467.32 133.352 467.213 133.527C467.111 133.702 466.972 133.842 466.798 133.949C466.627 134.051 466.435 134.102 466.222 134.102Z" fill="#374151"/>
<path d="M1357 64H845C831.745 64 821 74.745 821 88V320C821 333.255 831.745 344 845 344H1357C1370.25 344 1381 333.255 1381 320V88C1381 74.745 1370.25 64 1357 64Z" fill="black"/>
<path d="M1136 244C1158.09 244 1176 226.091 1176 204C1176 181.909 1158.09 164 1136 164C1113.91 164 1096 181.909 1096 204C1096 226.091 1113.91 244 1136 244Z" fill="#F59E0B"/>
<path d="M1126 179L1176 204L1126 229V179Z" fill="#0B0F10"/>
<path d="M248 164H84C68.536 164 56 176.536 56 192C56 207.464 68.536 220 84 220H248C263.464 220 276 207.464 276 192C276 176.536 263.464 164 248 164Z" fill="#16A34A"/>
<path d="M95.5492 192.955H97.6401L98.5833 194.307L99.4413 195.511L101.157 197.955H98.8617L97.6856 196.307L97.1174 195.33L95.5492 192.955ZM102.163 191.341C101.951 192.583 101.54 193.638 100.93 194.506C100.324 195.373 99.5833 196.032 98.7083 196.483C97.8371 196.934 96.8977 197.159 95.8901 197.159C94.8333 197.159 93.9223 196.919 93.1572 196.438C92.3958 195.956 91.8447 195.261 91.5038 194.352C91.1628 193.439 91.0984 192.339 91.3106 191.051C91.5151 189.805 91.9223 188.748 92.5322 187.881C93.142 187.009 93.8863 186.347 94.7651 185.892C95.6439 185.434 96.589 185.205 97.6003 185.205C98.6496 185.205 99.5549 185.447 100.316 185.932C101.081 186.417 101.632 187.117 101.969 188.034C102.31 188.947 102.375 190.049 102.163 191.341ZM99.714 191.051C99.8466 190.252 99.8409 189.581 99.6969 189.04C99.5568 188.494 99.2992 188.081 98.9242 187.801C98.5492 187.521 98.0757 187.381 97.5038 187.381C96.8825 187.381 96.3125 187.536 95.7935 187.847C95.2784 188.157 94.8428 188.608 94.4867 189.199C94.1344 189.786 93.8901 190.5 93.7538 191.341C93.6174 192.144 93.6212 192.814 93.7651 193.352C93.9128 193.89 94.1761 194.297 94.5549 194.574C94.9375 194.847 95.4128 194.983 95.981 194.983C96.5984 194.983 97.1628 194.831 97.6742 194.528C98.1894 194.222 98.6231 193.777 98.9753 193.193C99.3276 192.606 99.5738 191.892 99.714 191.051ZM109.306 193.284L110.141 188.273H112.562L111.107 197H108.783L109.045 195.415H108.954C108.685 195.926 108.293 196.337 107.778 196.648C107.263 196.958 106.677 197.114 106.022 197.114C105.439 197.114 104.946 196.981 104.545 196.716C104.147 196.451 103.865 196.074 103.698 195.585C103.531 195.097 103.503 194.511 103.613 193.83L104.545 188.273H106.965L106.113 193.398C106.033 193.913 106.105 194.32 106.329 194.619C106.552 194.919 106.893 195.068 107.352 195.068C107.643 195.068 107.925 195.002 108.198 194.869C108.475 194.733 108.713 194.532 108.914 194.267C109.115 194.002 109.246 193.674 109.306 193.284ZM116.998 197.17C116.104 197.17 115.363 196.989 114.776 196.625C114.189 196.258 113.776 195.739 113.538 195.068C113.303 194.394 113.263 193.597 113.418 192.676C113.57 191.778 113.875 190.991 114.333 190.312C114.795 189.634 115.375 189.106 116.072 188.727C116.769 188.348 117.545 188.159 118.401 188.159C118.977 188.159 119.498 188.252 119.964 188.438C120.433 188.619 120.824 188.896 121.134 189.267C121.445 189.634 121.657 190.095 121.771 190.648C121.888 191.201 121.886 191.848 121.765 192.591L121.657 193.256H114.293L114.526 191.756H119.617C119.674 191.407 119.651 191.098 119.549 190.83C119.447 190.561 119.276 190.35 119.038 190.199C118.799 190.044 118.505 189.966 118.157 189.966C117.801 189.966 117.468 190.053 117.157 190.227C116.846 190.402 116.585 190.631 116.373 190.915C116.165 191.195 116.03 191.5 115.969 191.83L115.702 193.318C115.627 193.777 115.642 194.157 115.748 194.46C115.858 194.763 116.047 194.991 116.316 195.142C116.585 195.29 116.926 195.364 117.339 195.364C117.608 195.364 117.86 195.326 118.094 195.25C118.333 195.174 118.545 195.062 118.731 194.915C118.916 194.763 119.068 194.576 119.185 194.352L121.396 194.5C121.191 195.038 120.88 195.508 120.464 195.909C120.047 196.307 119.545 196.617 118.958 196.841C118.375 197.061 117.721 197.17 116.998 197.17ZM122.621 197L124.076 188.273H126.423L126.167 189.795H126.258C126.508 189.254 126.843 188.845 127.263 188.568C127.688 188.288 128.144 188.148 128.633 188.148C128.754 188.148 128.881 188.155 129.013 188.17C129.15 188.182 129.271 188.201 129.377 188.227L129.013 190.381C128.907 190.343 128.756 190.312 128.559 190.29C128.366 190.263 128.182 190.25 128.008 190.25C127.656 190.25 127.328 190.328 127.025 190.483C126.722 190.634 126.466 190.847 126.258 191.119C126.053 191.392 125.919 191.706 125.854 192.062L125.042 197H122.621ZM132.717 197.17C131.826 197.17 131.09 196.981 130.506 196.602C129.923 196.22 129.512 195.689 129.273 195.011C129.039 194.33 128.995 193.536 129.143 192.631C129.287 191.737 129.586 190.955 130.04 190.284C130.495 189.614 131.073 189.093 131.773 188.722C132.474 188.347 133.264 188.159 134.143 188.159C135.029 188.159 135.764 188.35 136.347 188.733C136.931 189.112 137.342 189.642 137.58 190.324C137.819 191.006 137.864 191.799 137.717 192.705C137.569 193.595 137.266 194.375 136.808 195.045C136.349 195.716 135.772 196.239 135.075 196.614C134.378 196.985 133.592 197.17 132.717 197.17ZM132.955 195.295C133.364 195.295 133.726 195.18 134.04 194.949C134.359 194.714 134.622 194.396 134.83 193.994C135.042 193.589 135.19 193.131 135.273 192.619C135.357 192.116 135.362 191.669 135.29 191.278C135.219 190.884 135.067 190.574 134.836 190.347C134.609 190.119 134.296 190.006 133.898 190.006C133.489 190.006 133.126 190.123 132.808 190.358C132.489 190.589 132.226 190.907 132.018 191.312C131.809 191.718 131.664 192.178 131.58 192.693C131.501 193.193 131.495 193.64 131.563 194.034C131.631 194.424 131.781 194.733 132.012 194.96C132.243 195.184 132.558 195.295 132.955 195.295ZM142.295 197L143.749 188.273H146.05L145.8 189.812H145.897C146.162 189.301 146.531 188.898 147.005 188.602C147.482 188.307 148.018 188.159 148.613 188.159C149.204 188.159 149.685 188.309 150.056 188.608C150.431 188.903 150.647 189.305 150.704 189.812H150.795C151.052 189.312 151.441 188.913 151.96 188.614C152.478 188.311 153.058 188.159 153.698 188.159C154.505 188.159 155.122 188.419 155.55 188.938C155.978 189.456 156.113 190.187 155.954 191.131L154.977 197H152.556L153.465 191.608C153.537 191.119 153.465 190.756 153.249 190.517C153.033 190.275 152.732 190.153 152.346 190.153C151.906 190.153 151.541 190.294 151.249 190.574C150.958 190.85 150.778 191.216 150.71 191.67L149.806 197H147.46L148.38 191.557C148.444 191.125 148.374 190.784 148.17 190.534C147.969 190.28 147.668 190.153 147.266 190.153C147.001 190.153 146.749 190.222 146.511 190.358C146.276 190.491 146.077 190.678 145.914 190.92C145.751 191.159 145.645 191.439 145.596 191.761L144.71 197H142.295ZM160.826 197.17C159.932 197.17 159.192 196.989 158.604 196.625C158.017 196.258 157.604 195.739 157.366 195.068C157.131 194.394 157.091 193.597 157.246 192.676C157.398 191.778 157.703 190.991 158.161 190.312C158.623 189.634 159.203 189.106 159.9 188.727C160.597 188.348 161.373 188.159 162.229 188.159C162.805 188.159 163.326 188.252 163.792 188.438C164.262 188.619 164.652 188.896 164.962 189.267C165.273 189.634 165.485 190.095 165.599 190.648C165.716 191.201 165.714 191.848 165.593 192.591L165.485 193.256H158.121L158.354 191.756H163.445C163.502 191.407 163.479 191.098 163.377 190.83C163.275 190.561 163.104 190.35 162.866 190.199C162.627 190.044 162.334 189.966 161.985 189.966C161.629 189.966 161.296 190.053 160.985 190.227C160.674 190.402 160.413 190.631 160.201 190.915C159.993 191.195 159.858 191.5 159.798 191.83L159.531 193.318C159.455 193.777 159.47 194.157 159.576 194.46C159.686 194.763 159.875 194.991 160.144 195.142C160.413 195.29 160.754 195.364 161.167 195.364C161.436 195.364 161.688 195.326 161.923 195.25C162.161 195.174 162.373 195.062 162.559 194.915C162.745 194.763 162.896 194.576 163.013 194.352L165.224 194.5C165.019 195.038 164.709 195.508 164.292 195.909C163.875 196.307 163.373 196.617 162.786 196.841C162.203 197.061 161.549 197.17 160.826 197.17ZM170.198 197L172.13 185.364H176.721C177.6 185.364 178.323 185.519 178.891 185.83C179.463 186.14 179.865 186.581 180.096 187.153C180.331 187.722 180.386 188.392 180.261 189.165C180.132 189.937 179.853 190.6 179.425 191.153C179.001 191.706 178.448 192.133 177.766 192.432C177.088 192.727 176.302 192.875 175.408 192.875H172.335L172.675 190.898H175.346C175.816 190.898 176.217 190.833 176.55 190.705C176.884 190.576 177.147 190.383 177.34 190.125C177.537 189.867 177.666 189.547 177.727 189.165C177.791 188.775 177.768 188.449 177.658 188.188C177.549 187.922 177.35 187.722 177.062 187.585C176.774 187.445 176.395 187.375 175.925 187.375H174.266L172.658 197H170.198ZM177.357 191.705L179.374 197H176.658L174.704 191.705H177.357ZM184.56 197.17C183.666 197.17 182.926 196.989 182.339 196.625C181.752 196.258 181.339 195.739 181.1 195.068C180.865 194.394 180.826 193.597 180.981 192.676C181.132 191.778 181.437 190.991 181.896 190.312C182.358 189.634 182.937 189.106 183.634 188.727C184.331 188.348 185.108 188.159 185.964 188.159C186.54 188.159 187.06 188.252 187.526 188.438C187.996 188.619 188.386 188.896 188.697 189.267C189.007 189.634 189.219 190.095 189.333 190.648C189.451 191.201 189.449 191.848 189.327 192.591L189.219 193.256H181.856L182.089 191.756H187.18C187.237 191.407 187.214 191.098 187.112 190.83C187.009 190.561 186.839 190.35 186.6 190.199C186.362 190.044 186.068 189.966 185.719 189.966C185.363 189.966 185.03 190.053 184.719 190.227C184.409 190.402 184.147 190.631 183.935 190.915C183.727 191.195 183.593 191.5 183.532 191.83L183.265 193.318C183.189 193.777 183.204 194.157 183.31 194.46C183.42 194.763 183.61 194.991 183.879 195.142C184.147 195.29 184.488 195.364 184.901 195.364C185.17 195.364 185.422 195.326 185.657 195.25C185.896 195.174 186.108 195.062 186.293 194.915C186.479 194.763 186.63 194.576 186.748 194.352L188.958 194.5C188.754 195.038 188.443 195.508 188.026 195.909C187.61 196.307 187.108 196.617 186.521 196.841C185.937 197.061 185.284 197.17 184.56 197.17ZM193.57 200.455C192.782 200.455 192.125 200.347 191.599 200.131C191.076 199.919 190.678 199.629 190.406 199.261C190.137 198.894 189.989 198.481 189.962 198.023L192.258 197.722C192.299 197.9 192.379 198.064 192.496 198.216C192.618 198.367 192.79 198.489 193.013 198.58C193.241 198.67 193.534 198.716 193.894 198.716C194.421 198.716 194.879 198.587 195.269 198.33C195.659 198.076 195.9 197.65 195.991 197.051L196.252 195.455H196.15C196.006 195.697 195.809 195.926 195.559 196.142C195.313 196.358 195.012 196.534 194.656 196.67C194.303 196.807 193.896 196.875 193.434 196.875C192.775 196.875 192.203 196.723 191.718 196.42C191.237 196.114 190.888 195.646 190.673 195.017C190.46 194.384 190.434 193.585 190.593 192.619C190.76 191.631 191.059 190.805 191.491 190.142C191.923 189.479 192.434 188.983 193.025 188.653C193.616 188.324 194.231 188.159 194.871 188.159C195.36 188.159 195.754 188.242 196.053 188.409C196.356 188.572 196.589 188.777 196.752 189.023C196.915 189.265 197.031 189.504 197.099 189.739H197.195L197.434 188.273H199.837L198.371 197.085C198.254 197.831 197.972 198.453 197.525 198.949C197.082 199.449 196.519 199.824 195.837 200.074C195.156 200.328 194.4 200.455 193.57 200.455ZM194.479 195.057C194.866 195.057 195.212 194.96 195.519 194.767C195.83 194.57 196.089 194.29 196.298 193.926C196.506 193.559 196.652 193.119 196.735 192.608C196.818 192.097 196.817 191.653 196.729 191.278C196.646 190.9 196.483 190.606 196.241 190.398C196.002 190.189 195.688 190.085 195.298 190.085C194.896 190.085 194.544 190.193 194.241 190.409C193.938 190.621 193.686 190.917 193.485 191.295C193.288 191.674 193.15 192.112 193.07 192.608C192.987 193.112 192.983 193.547 193.059 193.915C193.138 194.278 193.296 194.561 193.531 194.761C193.765 194.958 194.082 195.057 194.479 195.057ZM200.309 197L201.763 188.273H204.184L202.729 197H200.309ZM203.224 187.136C202.864 187.136 202.567 187.017 202.332 186.778C202.101 186.536 202.006 186.248 202.048 185.915C202.089 185.574 202.252 185.286 202.536 185.051C202.82 184.812 203.142 184.693 203.502 184.693C203.862 184.693 204.156 184.812 204.383 185.051C204.61 185.286 204.705 185.574 204.667 185.915C204.629 186.248 204.468 186.536 204.184 186.778C203.904 187.017 203.584 187.136 203.224 187.136ZM212.958 190.761L210.759 190.898C210.748 190.705 210.695 190.532 210.6 190.381C210.509 190.225 210.375 190.102 210.197 190.011C210.022 189.92 209.803 189.875 209.538 189.875C209.14 189.875 208.786 189.966 208.475 190.148C208.165 190.33 207.988 190.562 207.947 190.847C207.913 191.028 207.96 191.182 208.089 191.307C208.218 191.432 208.477 191.538 208.867 191.625L210.401 191.943C211.219 192.117 211.81 192.407 212.174 192.812C212.541 193.218 212.672 193.748 212.566 194.403C212.471 194.96 212.227 195.447 211.833 195.864C211.439 196.277 210.939 196.598 210.333 196.83C209.727 197.057 209.055 197.17 208.316 197.17C207.13 197.17 206.229 196.928 205.612 196.443C204.994 195.958 204.697 195.301 204.719 194.472L207.083 194.347C207.102 194.703 207.227 194.972 207.458 195.153C207.689 195.331 208.005 195.422 208.407 195.426C208.858 195.434 209.24 195.341 209.555 195.148C209.873 194.951 210.053 194.712 210.094 194.432C210.125 194.235 210.068 194.076 209.924 193.955C209.784 193.833 209.526 193.733 209.151 193.653L207.697 193.352C206.871 193.182 206.278 192.877 205.918 192.438C205.558 191.998 205.435 191.439 205.549 190.761C205.64 190.22 205.865 189.756 206.225 189.369C206.589 188.979 207.057 188.68 207.629 188.472C208.204 188.263 208.854 188.159 209.577 188.159C210.71 188.159 211.562 188.392 212.134 188.858C212.71 189.324 212.985 189.958 212.958 190.761ZM219.749 188.273L219.448 190.091H214.187L214.494 188.273H219.749ZM216.028 186.182H218.448L217.096 194.318C217.058 194.542 217.064 194.716 217.113 194.841C217.162 194.962 217.244 195.047 217.357 195.097C217.475 195.146 217.615 195.17 217.778 195.17C217.891 195.17 218.007 195.161 218.124 195.142C218.242 195.119 218.331 195.102 218.391 195.091L218.482 196.892C218.346 196.934 218.162 196.979 217.931 197.028C217.704 197.078 217.435 197.108 217.124 197.119C216.533 197.142 216.033 197.064 215.624 196.886C215.215 196.705 214.922 196.426 214.744 196.051C214.566 195.676 214.528 195.205 214.63 194.636L216.028 186.182ZM219.871 197L221.326 188.273H223.673L223.417 189.795H223.508C223.758 189.254 224.093 188.845 224.513 188.568C224.938 188.288 225.394 188.148 225.883 188.148C226.004 188.148 226.131 188.155 226.263 188.17C226.4 188.182 226.521 188.201 226.627 188.227L226.263 190.381C226.157 190.343 226.006 190.312 225.809 190.29C225.616 190.263 225.432 190.25 225.258 190.25C224.906 190.25 224.578 190.328 224.275 190.483C223.972 190.634 223.716 190.847 223.508 191.119C223.303 191.392 223.169 191.706 223.104 192.062L222.292 197H219.871ZM228.634 197.165C228.081 197.165 227.602 197.068 227.197 196.875C226.795 196.678 226.5 196.386 226.31 196C226.121 195.614 226.074 195.134 226.168 194.562C226.252 194.078 226.409 193.672 226.64 193.347C226.875 193.017 227.161 192.752 227.498 192.551C227.835 192.35 228.208 192.197 228.617 192.091C229.03 191.985 229.456 191.913 229.896 191.875C230.403 191.822 230.816 191.771 231.134 191.722C231.456 191.672 231.697 191.602 231.856 191.511C232.015 191.417 232.112 191.277 232.146 191.091V191.057C232.202 190.701 232.136 190.424 231.947 190.227C231.761 190.027 231.464 189.926 231.055 189.926C230.623 189.926 230.255 190.021 229.952 190.21C229.653 190.4 229.439 190.64 229.31 190.932L227.106 190.75C227.303 190.22 227.6 189.761 227.998 189.375C228.399 188.985 228.882 188.686 229.447 188.477C230.011 188.265 230.644 188.159 231.344 188.159C231.829 188.159 232.282 188.216 232.702 188.33C233.127 188.443 233.492 188.619 233.799 188.858C234.11 189.097 234.333 189.403 234.469 189.778C234.61 190.15 234.638 190.595 234.555 191.114L233.572 197H231.276L231.481 195.79H231.413C231.227 196.062 231 196.303 230.731 196.511C230.462 196.716 230.153 196.877 229.805 196.994C229.456 197.108 229.066 197.165 228.634 197.165ZM229.606 195.494C229.958 195.494 230.282 195.424 230.577 195.284C230.877 195.14 231.123 194.947 231.316 194.705C231.513 194.462 231.638 194.187 231.691 193.881L231.839 192.955C231.763 193.004 231.653 193.047 231.509 193.085C231.369 193.123 231.216 193.159 231.049 193.193C230.886 193.223 230.721 193.252 230.555 193.278C230.388 193.301 230.238 193.324 230.106 193.347C229.814 193.388 229.553 193.455 229.322 193.545C229.091 193.636 228.903 193.759 228.759 193.915C228.615 194.066 228.526 194.256 228.492 194.483C228.439 194.812 228.517 195.064 228.725 195.239C228.937 195.409 229.231 195.494 229.606 195.494ZM235.45 197L236.904 188.273H239.251L238.995 189.795H239.086C239.336 189.254 239.671 188.845 240.092 188.568C240.516 188.288 240.972 188.148 241.461 188.148C241.582 188.148 241.709 188.155 241.842 188.17C241.978 188.182 242.099 188.201 242.205 188.227L241.842 190.381C241.736 190.343 241.584 190.312 241.387 190.29C241.194 190.263 241.01 190.25 240.836 190.25C240.484 190.25 240.156 190.328 239.853 190.483C239.55 190.634 239.294 190.847 239.086 191.119C238.881 191.392 238.747 191.706 238.683 192.062L237.87 197H235.45Z" fill="white"/>
<defs>
<filter id="filter0_d_20_882" x="-8" y="0" width="1456" height="424" filterUnits="userSpaceOnUse" color-interpolation-filters="sRGB">
<feFlood flood-opacity="0" result="BackgroundImageFix"/>
<feColorMatrix in="SourceAlpha" type="matrix" values="0 0 0 0 0 0 0 0 0 0 0 0 0 0 0 0 0 0 127 0" result="hardAlpha"/>
<feOffset dy="8"/>
<feGaussianBlur stdDeviation="16"/>
<feColorMatrix type="matrix" values="0 0 0 0 0 0 0 0 0 0 0 0 0 0 0 0 0 0 0.25 0"/>
<feBlend mode="normal" in2="BackgroundImageFix" result="effect1_dropShadow_20_882"/>
<feBlend mode="normal" in="SourceGraphic" in2="effect1_dropShadow_20_882" result="shape"/>
</filter>
</defs>
</svg>
